G04*
G04 #@! TF.GenerationSoftware,Altium Limited,Altium Designer,20.0.14 (345)*
G04*
G04 Layer_Physical_Order=1*
G04 Layer_Color=255*
%FSLAX44Y44*%
%MOMM*%
G71*
G01*
G75*
%ADD14R,0.9000X0.7000*%
%ADD15R,0.7000X0.9000*%
%ADD16R,0.6000X0.4700*%
%ADD17R,0.9500X0.6500*%
%ADD18R,0.6000X1.5500*%
%ADD19R,1.2000X1.8000*%
%ADD20R,0.8000X0.9500*%
%ADD21R,1.1000X0.6000*%
%ADD22R,1.5000X1.5000*%
%ADD36C,1.2000*%
%ADD37C,0.5000*%
%ADD38C,1.5000*%
%ADD39R,1.5000X1.5000*%
%ADD40C,0.6000*%
G36*
X470000Y640040D02*
X461270D01*
Y630000D01*
Y619960D01*
X470000D01*
Y612000D01*
X406000D01*
Y592000D01*
X402040D01*
Y595730D01*
X388960D01*
Y592000D01*
X385000D01*
Y626000D01*
X403000Y644000D01*
X470000D01*
Y640040D01*
D02*
G37*
G36*
X439000Y565000D02*
X439000Y496000D01*
X421000D01*
X421000Y543000D01*
X392000Y572000D01*
Y586000D01*
X418000D01*
X439000Y565000D01*
D02*
G37*
G36*
X274460Y651270D02*
X280000D01*
Y650000D01*
X281270D01*
Y639710D01*
X283000D01*
Y574000D01*
X353000Y504000D01*
Y503000D01*
X370960D01*
Y500270D01*
X378000D01*
X385040D01*
Y503000D01*
X411000D01*
Y499290D01*
X407520D01*
Y493500D01*
Y487710D01*
X411000D01*
Y478450D01*
X409838Y478219D01*
X408006Y476994D01*
X406781Y475162D01*
X406604Y474270D01*
X412000D01*
Y471730D01*
X406604D01*
X406781Y470838D01*
X408006Y469006D01*
X409838Y467781D01*
X411000Y467550D01*
Y466000D01*
X348000D01*
Y489000D01*
X269000Y568000D01*
Y658000D01*
X274460D01*
Y651270D01*
D02*
G37*
G36*
X451270Y158604D02*
X452162Y158781D01*
X453994Y160006D01*
X455219Y161838D01*
X455450Y163000D01*
X470000D01*
Y19000D01*
X33000D01*
Y63000D01*
X63392D01*
Y51000D01*
X63819Y48854D01*
X65035Y47035D01*
X83035Y29035D01*
X84854Y27819D01*
X87000Y27392D01*
X218000D01*
X220146Y27819D01*
X221913Y29000D01*
X381000D01*
X457000Y105000D01*
Y125500D01*
X457500D01*
Y138500D01*
X457000D01*
Y140960D01*
X457040D01*
Y145730D01*
X450000D01*
X442960D01*
Y142000D01*
X416000D01*
X415000Y143000D01*
Y163000D01*
X444550D01*
X444781Y161838D01*
X446006Y160006D01*
X447838Y158781D01*
X448730Y158604D01*
Y164000D01*
X451270D01*
Y158604D01*
D02*
G37*
G36*
X392960Y141270D02*
X400250D01*
Y140000D01*
X401520D01*
Y134210D01*
X407000D01*
Y100000D01*
X368040D01*
Y103730D01*
X361000D01*
Y105000D01*
X359730D01*
Y111040D01*
X355000D01*
Y124212D01*
X355960Y124960D01*
X362730D01*
Y130500D01*
X364000D01*
Y131770D01*
X372040D01*
Y136040D01*
X372788Y137000D01*
X388000D01*
Y144000D01*
X392960D01*
Y141270D01*
D02*
G37*
%LPC*%
G36*
X458730Y640040D02*
X449960D01*
Y631270D01*
X458730D01*
Y640040D01*
D02*
G37*
G36*
Y628730D02*
X449960D01*
Y619960D01*
X458730D01*
Y628730D01*
D02*
G37*
G36*
X402040Y604290D02*
X396770D01*
Y598270D01*
X402040D01*
Y604290D01*
D02*
G37*
G36*
X394230D02*
X388960D01*
Y598270D01*
X394230D01*
Y604290D01*
D02*
G37*
G36*
X411540Y584290D02*
X406270D01*
Y578270D01*
X411540D01*
Y584290D01*
D02*
G37*
G36*
X403730D02*
X398460D01*
Y578270D01*
X403730D01*
Y584290D01*
D02*
G37*
G36*
X411540Y575730D02*
X406270D01*
Y569710D01*
X411540D01*
Y575730D01*
D02*
G37*
G36*
X403730D02*
X398460D01*
Y569710D01*
X403730D01*
Y575730D01*
D02*
G37*
G36*
X437040Y509790D02*
X431020D01*
Y505270D01*
X437040D01*
Y509790D01*
D02*
G37*
G36*
X428480D02*
X422460D01*
Y505270D01*
X428480D01*
Y509790D01*
D02*
G37*
G36*
X437040Y502730D02*
X431020D01*
Y498210D01*
X437040D01*
Y502730D01*
D02*
G37*
G36*
X428480D02*
X422460D01*
Y498210D01*
X428480D01*
Y502730D01*
D02*
G37*
G36*
X278730Y648730D02*
X274460D01*
Y639710D01*
X278730D01*
Y648730D01*
D02*
G37*
G36*
X404980Y499290D02*
X398960D01*
Y494770D01*
X404980D01*
Y499290D01*
D02*
G37*
G36*
X385040Y497730D02*
X379270D01*
Y492960D01*
X385040D01*
Y497730D01*
D02*
G37*
G36*
X376730D02*
X370960D01*
Y492960D01*
X376730D01*
Y497730D01*
D02*
G37*
G36*
X404980Y492230D02*
X398960D01*
Y487710D01*
X404980D01*
Y492230D01*
D02*
G37*
G36*
X431040Y156290D02*
X425020D01*
Y151770D01*
X431040D01*
Y156290D01*
D02*
G37*
G36*
X422480D02*
X416460D01*
Y151770D01*
X422480D01*
Y156290D01*
D02*
G37*
G36*
X457040Y153040D02*
X451270D01*
Y148270D01*
X457040D01*
Y153040D01*
D02*
G37*
G36*
X448730D02*
X442960D01*
Y148270D01*
X448730D01*
Y153040D01*
D02*
G37*
G36*
X431040Y149230D02*
X425020D01*
Y144710D01*
X431040D01*
Y149230D01*
D02*
G37*
G36*
X422480D02*
X416460D01*
Y144710D01*
X422480D01*
Y149230D01*
D02*
G37*
G36*
X60040Y60040D02*
X51270D01*
Y51270D01*
X60040D01*
Y60040D01*
D02*
G37*
G36*
X48730D02*
X39960D01*
Y51270D01*
X48730D01*
Y60040D01*
D02*
G37*
G36*
X60040Y48730D02*
X51270D01*
Y39960D01*
X60040D01*
Y48730D01*
D02*
G37*
G36*
X48730D02*
X39960D01*
Y39960D01*
X48730D01*
Y48730D01*
D02*
G37*
G36*
X398980Y138730D02*
X392960D01*
Y134210D01*
X398980D01*
Y138730D01*
D02*
G37*
G36*
X372040Y129230D02*
X365270D01*
Y124960D01*
X372040D01*
Y129230D01*
D02*
G37*
G36*
X368040Y111040D02*
X362270D01*
Y106270D01*
X368040D01*
Y111040D01*
D02*
G37*
%LPD*%
D14*
X360000Y531000D02*
D03*
Y546000D02*
D03*
X378000Y531000D02*
D03*
Y546000D02*
D03*
X460000Y287000D02*
D03*
Y272000D02*
D03*
X248000Y248000D02*
D03*
Y233000D02*
D03*
X388000Y444000D02*
D03*
Y429000D02*
D03*
X311000Y226000D02*
D03*
Y241000D02*
D03*
X378000Y514000D02*
D03*
Y499000D02*
D03*
X450000Y147000D02*
D03*
Y132000D02*
D03*
X340000Y105000D02*
D03*
Y90000D02*
D03*
X361000Y105000D02*
D03*
Y90000D02*
D03*
D15*
X316000Y156000D02*
D03*
X301000D02*
D03*
Y120000D02*
D03*
X316000D02*
D03*
X462000Y437000D02*
D03*
X447000D02*
D03*
X396000Y172000D02*
D03*
X411000D02*
D03*
X368000Y373000D02*
D03*
X353000D02*
D03*
X368000Y307000D02*
D03*
X353000D02*
D03*
D16*
X409500Y443500D02*
D03*
Y430500D02*
D03*
X428500Y437000D02*
D03*
X269500Y247500D02*
D03*
Y234500D02*
D03*
X288500Y241000D02*
D03*
D17*
X423750Y129500D02*
D03*
Y150500D02*
D03*
X400250Y140000D02*
D03*
X429750Y504000D02*
D03*
X406250Y493500D02*
D03*
Y514500D02*
D03*
D18*
X280000Y650000D02*
D03*
X290000D02*
D03*
D19*
X306000Y675250D02*
D03*
X264000D02*
D03*
D20*
X414500Y597000D02*
D03*
X395500D02*
D03*
X405000Y577000D02*
D03*
D21*
X336000Y149500D02*
D03*
Y140000D02*
D03*
Y130500D02*
D03*
X364000D02*
D03*
Y149500D02*
D03*
D22*
X257500Y373000D02*
D03*
X292500D02*
D03*
X257500Y307000D02*
D03*
X292500D02*
D03*
D36*
X355000Y40000D02*
D03*
X398000Y61000D02*
D03*
X355000D02*
D03*
D37*
X445271Y272000D02*
X460000D01*
X422000Y244000D02*
Y380000D01*
X460000Y287000D02*
Y311600D01*
X360000Y546000D02*
Y585000D01*
X280000Y570000D02*
X351000Y499000D01*
X250000Y623000D02*
Y645000D01*
X224000Y671000D02*
X250000Y645000D01*
X218999Y658317D02*
X227000Y650315D01*
X106317Y658317D02*
X218999D01*
X227000Y340000D02*
X236000Y331000D01*
X227000Y340000D02*
Y650315D01*
X378000Y531000D02*
X392000D01*
X360000Y495000D02*
Y531000D01*
Y495000D02*
X361000Y494000D01*
X360000Y546000D02*
X378000D01*
X462000Y420000D02*
Y437000D01*
X422000Y380000D02*
X462000Y420000D01*
X433000Y233000D02*
X452000D01*
X422000Y244000D02*
X433000Y233000D01*
X462000Y195000D02*
Y223000D01*
X452000Y233000D02*
X462000Y223000D01*
X92000Y556000D02*
X103000Y545000D01*
X92000Y556000D02*
Y644000D01*
X106317Y658317D01*
X236000Y331000D02*
X319729D01*
X326729Y324000D01*
X327000D01*
X79000Y140000D02*
Y650000D01*
X65200Y126200D02*
X79000Y140000D01*
Y650000D02*
X100000Y671000D01*
X50000Y126200D02*
X65200D01*
X69000Y51000D02*
Y81800D01*
X76000Y24000D02*
X386000D01*
X87000Y33000D02*
X218000D01*
X50000Y100800D02*
X69000Y81800D01*
X449000Y147000D02*
X450000D01*
X69000Y51000D02*
X87000Y33000D01*
X386000Y24000D02*
X465000Y103000D01*
X257000Y283000D02*
Y306500D01*
X275000Y252650D02*
Y269000D01*
X269850Y247500D02*
X275000Y252650D01*
X312000Y40000D02*
X355000D01*
X284000Y68000D02*
X312000Y40000D01*
X284000Y68000D02*
Y104000D01*
Y121000D02*
Y138000D01*
Y104000D02*
Y121000D01*
X285000Y120000D02*
X301000D01*
X284000Y121000D02*
X285000Y120000D01*
X301000Y155000D02*
Y156000D01*
X284000Y138000D02*
X301000Y155000D01*
X315830Y138809D02*
X316010Y138628D01*
X316000Y120000D02*
X316010Y120010D01*
Y138628D01*
X301000Y120000D02*
Y121000D01*
X218000Y33000D02*
X230000Y45000D01*
X247197Y247197D02*
X248000Y248000D01*
X240197Y247197D02*
X247197D01*
X230000Y45000D02*
Y237000D01*
X240197Y247197D01*
X316000Y119000D02*
Y120000D01*
X267250Y114250D02*
Y114521D01*
X264000Y118000D02*
Y229350D01*
Y118000D02*
X265000Y117000D01*
X264000Y229350D02*
X267650Y233000D01*
X265000Y116771D02*
Y117000D01*
Y116771D02*
X267250Y114521D01*
X318000Y156000D02*
X327000D01*
X333500Y149500D02*
X336000D01*
X327000Y156000D02*
X333500Y149500D01*
X317291Y140000D02*
X336000D01*
X100000Y671000D02*
X224000D01*
X316000Y82610D02*
X324146Y74465D01*
X384535D02*
X398000Y61000D01*
X324146Y74465D02*
X384535D01*
X316000Y82610D02*
Y97000D01*
X315830Y138809D02*
X316021Y139000D01*
X335750Y149250D02*
X336000Y149500D01*
X428500Y437000D02*
Y458500D01*
Y437000D02*
X447000D01*
X388000Y444000D02*
X388350Y443650D01*
X387191Y444809D02*
X388000Y444000D01*
X388350Y443650D02*
X409350D01*
X409500Y443500D01*
X360191Y444809D02*
X387191D01*
X360000Y445000D02*
X360191Y444809D01*
X407000Y428000D02*
X408000Y429000D01*
X388000D02*
X408000D01*
X409000Y430000D01*
X409150Y430500D02*
X409500D01*
X409000Y430350D02*
X409150Y430500D01*
X409000Y430000D02*
Y430350D01*
X407000Y249000D02*
Y428000D01*
X267650Y233000D02*
X269150Y234500D01*
X269500D01*
Y247500D02*
X269850D01*
X288500Y241000D02*
X311000D01*
X248000Y233000D02*
X267650D01*
X248000Y248000D02*
X268650D01*
X269150Y247500D01*
X269500D01*
X316000Y97000D02*
X324000Y105000D01*
X339000D01*
X450000Y147000D02*
X450803Y146197D01*
X465000Y103000D02*
Y139000D01*
X450803Y146197D02*
X457803D01*
X465000Y139000D01*
X375186Y185000D02*
X452000D01*
X462000Y195000D01*
X361000Y90000D02*
X379000D01*
X391000Y233000D02*
X407000Y249000D01*
X346000Y233000D02*
X391000D01*
X312000Y241000D02*
X325000Y254000D01*
X311000Y241000D02*
X312000D01*
X325000Y254000D02*
X388000D01*
X324000Y214000D02*
X450000D01*
X343278Y131000D02*
X353000Y140722D01*
X336000Y130500D02*
X336500Y131000D01*
X343278D01*
X336000Y108000D02*
Y130500D01*
Y108000D02*
X339000Y105000D01*
X361000D02*
X362000D01*
X363000Y106000D01*
X355000Y61000D02*
X374000D01*
X312000Y225000D02*
X313000D01*
X324000Y214000D01*
X311000Y226000D02*
X312000Y225000D01*
X353000Y162814D02*
X375186Y185000D01*
X353000Y140722D02*
Y162814D01*
X411000Y172000D02*
X427000D01*
X450000Y111000D02*
Y132000D01*
Y147000D02*
Y164000D01*
X398750Y140000D02*
X400250D01*
X423750Y129500D02*
X446500D01*
X449000Y132000D01*
X450000D01*
X373500Y172000D02*
X380000D01*
X364000Y162500D02*
X373500Y172000D01*
X375000Y172000D02*
X396000D01*
X380000Y172000D02*
X380000Y172000D01*
X462000Y437000D02*
Y473000D01*
X406250Y478750D02*
Y493500D01*
X316021Y139000D02*
X316291D01*
X317291Y140000D01*
X340000Y90000D02*
X361000D01*
X257500Y359500D02*
Y373000D01*
X244000Y346000D02*
X257500Y359500D01*
X257000Y306500D02*
X257500Y307000D01*
X378000Y499000D02*
X378000Y499000D01*
X447000Y477000D02*
Y535000D01*
X428500Y458500D02*
X447000Y477000D01*
X406250Y514500D02*
Y529979D01*
X411000Y534729D01*
Y535000D01*
X430000Y504250D02*
Y551250D01*
X405000Y576250D02*
Y577000D01*
X429750Y504000D02*
X430000Y504250D01*
X395000Y597500D02*
X395500Y597000D01*
X395000Y597500D02*
Y620000D01*
X405000Y630000D02*
X460000D01*
X395000Y620000D02*
X405000Y630000D01*
X368000Y340000D02*
Y373000D01*
Y308000D02*
Y340000D01*
X367000Y307000D02*
X368000Y308000D01*
X378000Y514000D02*
X378250Y514250D01*
X406000D01*
X406250Y514500D01*
X290000Y650000D02*
X335000D01*
X414500Y597000D02*
X414500Y597000D01*
X440000D01*
X293000Y373000D02*
X353000D01*
X292000Y307000D02*
X352000D01*
X364000Y149500D02*
Y162500D01*
D38*
X460000Y362400D02*
D03*
Y337000D02*
D03*
Y655400D02*
D03*
X50000Y634200D02*
D03*
Y608800D02*
D03*
Y583400D02*
D03*
Y558000D02*
D03*
Y532600D02*
D03*
Y507200D02*
D03*
Y481800D02*
D03*
Y456400D02*
D03*
Y431000D02*
D03*
Y405600D02*
D03*
Y380200D02*
D03*
Y354800D02*
D03*
Y329400D02*
D03*
Y304000D02*
D03*
Y278600D02*
D03*
Y253200D02*
D03*
Y227800D02*
D03*
Y202400D02*
D03*
Y177000D02*
D03*
Y151600D02*
D03*
Y126200D02*
D03*
Y100800D02*
D03*
Y75400D02*
D03*
X202400Y634200D02*
D03*
Y608800D02*
D03*
Y583400D02*
D03*
Y558000D02*
D03*
Y532600D02*
D03*
Y507200D02*
D03*
Y481800D02*
D03*
Y456400D02*
D03*
Y431000D02*
D03*
Y405600D02*
D03*
Y380200D02*
D03*
Y354800D02*
D03*
Y329400D02*
D03*
Y304000D02*
D03*
Y278600D02*
D03*
Y253200D02*
D03*
Y227800D02*
D03*
Y202400D02*
D03*
Y177000D02*
D03*
Y151600D02*
D03*
Y126200D02*
D03*
Y100800D02*
D03*
Y75400D02*
D03*
D39*
X460000Y311600D02*
D03*
Y630000D02*
D03*
X50000Y50000D02*
D03*
X202400D02*
D03*
D40*
X445271Y272000D02*
D03*
X360000Y585000D02*
D03*
X250000Y623000D02*
D03*
X392000Y531000D02*
D03*
X103000Y545000D02*
D03*
X327000Y324000D02*
D03*
X257000Y283000D02*
D03*
X275000Y269000D02*
D03*
X284000Y104000D02*
D03*
X379000Y90000D02*
D03*
X267250Y114250D02*
D03*
X388000Y254000D02*
D03*
X346000Y233000D02*
D03*
X374000Y61000D02*
D03*
X450000Y214000D02*
D03*
X427000Y172000D02*
D03*
X450000Y111000D02*
D03*
Y164000D02*
D03*
X462000Y473000D02*
D03*
X412000D02*
D03*
X360000Y445000D02*
D03*
X316021Y139000D02*
D03*
X244000Y346000D02*
D03*
X447000Y535000D02*
D03*
X411000D02*
D03*
X368000Y340000D02*
D03*
X335000Y650000D02*
D03*
X440000Y597000D02*
D03*
M02*
