M48
;Layer_Color=9474304
;FILE_FORMAT=2:4
INCH,LZ
;TYPE=PLATED
T1F00S00C0.0118
T2F00S00C0.0354
%
T01
X011024Y001187
X01063Y00374
X012402Y005512
X011614Y006496
X012992Y00689
X013583Y007874
X012205Y008071
Y013976
X013583Y014567
X014764Y001181
X016339Y011024
X015748Y018307
X014764Y016535
X013189Y025591
T02
X001969Y001969
Y002968
Y003968
Y004969
Y005968
Y006969
Y007969
Y008968
Y009969
Y010969
Y011968
Y012968
Y013968
Y014969
X007969
Y013968
Y012968
Y011968
Y010969
Y009969
Y008968
Y007969
Y006969
Y005968
Y004969
Y003968
Y002968
Y001969
X01811Y024803
Y025803
X007969Y024969
Y023969
Y022968
Y021969
Y020968
Y019969
Y018968
Y017968
Y016968
Y015969
X001969
Y016968
Y017968
Y018968
Y019969
Y020968
Y021969
Y022968
Y023969
Y024969
M30
