M48
;Layer_Color=9474304
;FILE_FORMAT=2:4
INCH,LZ
;TYPE=PLATED
T1F00S00C0.0118
T2F00S00C0.0354
%
T01
X010522Y004498
X011181Y004094
X012442Y005472
X014921Y003543
X014724Y002402
X013622Y009173
X015276Y01
X014488Y013386
X012874Y012756
X009606Y013622
X010118Y011142
X010827Y010591
X01753Y010709
X017717Y008425
Y006457
X016811Y006772
X017717Y00437
X018189Y018622
X01622
X016181Y021063
X017598
X017323Y023504
X014173Y023031
X015433Y020906
X014173Y01752
X013189Y025591
X009843Y024528
X004055Y021457
T02
X001969Y001969
Y002968
Y003968
Y004969
Y005968
Y006969
Y007969
Y008968
Y009969
Y010969
Y011968
Y012968
Y013968
Y014969
X007969
Y013968
Y012968
Y011968
Y010969
Y009969
Y008968
Y007969
Y006969
Y005968
Y004969
Y003968
Y002968
Y001969
X01811Y012268
Y013268
Y014268
Y024803
Y025803
X007969Y024969
Y023969
Y022968
Y021969
Y020968
Y019969
Y018968
Y017968
Y016968
Y015969
X001969
Y016968
Y017968
Y018968
Y019969
Y020968
Y021969
Y022968
Y023969
Y024969
M30
