G04*
G04 #@! TF.GenerationSoftware,Altium Limited,Altium Designer,20.0.12 (288)*
G04*
G04 Layer_Color=65535*
%FSLAX44Y44*%
%MOMM*%
G71*
G01*
G75*
%ADD10C,0.2500*%
%ADD11C,0.2540*%
%ADD12C,0.2000*%
%ADD13C,0.1500*%
G36*
X331740Y573002D02*
Y572774D01*
Y572545D01*
Y572316D01*
Y572087D01*
Y571858D01*
Y571629D01*
Y571400D01*
Y571172D01*
Y570943D01*
Y570714D01*
Y570485D01*
Y570256D01*
Y570027D01*
Y569799D01*
Y569570D01*
Y569341D01*
Y569112D01*
Y568883D01*
Y568654D01*
Y568425D01*
Y568197D01*
Y567968D01*
Y567739D01*
Y567510D01*
Y567281D01*
Y567052D01*
Y566824D01*
Y566595D01*
Y566366D01*
Y566137D01*
Y565908D01*
Y565679D01*
Y565450D01*
Y565221D01*
Y564993D01*
Y564764D01*
Y564535D01*
Y564306D01*
Y564077D01*
Y563848D01*
Y563620D01*
Y563391D01*
Y563162D01*
Y562933D01*
Y562704D01*
Y562475D01*
Y562247D01*
Y562018D01*
Y561789D01*
Y561560D01*
Y561331D01*
Y561102D01*
Y560873D01*
Y560645D01*
Y560416D01*
Y560187D01*
Y559958D01*
Y559729D01*
Y559500D01*
Y559272D01*
Y559043D01*
Y558814D01*
Y558585D01*
Y558356D01*
Y558127D01*
Y557898D01*
Y557670D01*
Y557441D01*
Y557212D01*
Y556983D01*
Y556754D01*
Y556525D01*
Y556297D01*
Y556068D01*
Y555839D01*
Y555610D01*
Y555381D01*
Y555152D01*
Y554923D01*
Y554695D01*
Y554466D01*
Y554237D01*
Y554008D01*
Y553779D01*
Y553550D01*
Y553321D01*
Y553093D01*
Y552864D01*
Y552635D01*
Y552406D01*
Y552177D01*
Y551948D01*
Y551720D01*
Y551491D01*
Y551262D01*
Y551033D01*
Y550804D01*
Y550575D01*
Y550346D01*
Y550118D01*
Y549889D01*
Y549660D01*
Y549431D01*
Y549202D01*
Y548973D01*
Y548745D01*
Y548516D01*
Y548287D01*
Y548058D01*
Y547829D01*
Y547600D01*
Y547371D01*
Y547143D01*
Y546914D01*
Y546685D01*
Y546456D01*
Y546227D01*
Y545998D01*
Y545770D01*
Y545541D01*
Y545312D01*
Y545083D01*
Y544854D01*
Y544625D01*
Y544396D01*
Y544168D01*
Y543939D01*
Y543710D01*
Y543481D01*
Y543252D01*
Y543023D01*
Y542794D01*
Y542566D01*
Y542337D01*
Y542108D01*
Y541879D01*
Y541650D01*
Y541421D01*
Y541193D01*
Y540964D01*
Y540735D01*
Y540506D01*
Y540277D01*
Y540048D01*
Y539819D01*
Y539591D01*
Y539362D01*
Y539133D01*
Y538904D01*
Y538675D01*
Y538446D01*
Y538218D01*
Y537989D01*
Y537760D01*
Y537531D01*
Y537302D01*
Y537073D01*
Y536844D01*
Y536616D01*
Y536387D01*
Y536158D01*
Y535929D01*
Y535700D01*
Y535471D01*
Y535243D01*
Y535014D01*
Y534785D01*
Y534556D01*
Y534327D01*
Y534098D01*
Y533869D01*
Y533641D01*
Y533412D01*
Y533183D01*
Y532954D01*
Y532725D01*
Y532496D01*
Y532267D01*
Y532039D01*
Y531810D01*
Y531581D01*
Y531352D01*
Y531123D01*
Y530894D01*
Y530666D01*
Y530437D01*
Y530208D01*
Y529979D01*
Y529750D01*
Y529521D01*
Y529292D01*
Y529064D01*
Y528835D01*
Y528606D01*
Y528377D01*
Y528148D01*
Y527919D01*
Y527691D01*
Y527462D01*
Y527233D01*
Y527004D01*
Y526775D01*
Y526546D01*
Y526317D01*
Y526089D01*
Y525860D01*
Y525631D01*
Y525402D01*
Y525173D01*
Y524944D01*
Y524715D01*
Y524487D01*
Y524258D01*
Y524029D01*
Y523800D01*
Y523571D01*
Y523342D01*
Y523114D01*
Y522885D01*
Y522656D01*
Y522427D01*
Y522198D01*
Y521969D01*
Y521740D01*
Y521512D01*
Y521283D01*
Y521054D01*
Y520825D01*
Y520596D01*
Y520367D01*
Y520139D01*
Y519910D01*
Y519681D01*
Y519452D01*
Y519223D01*
Y518994D01*
Y518765D01*
Y518537D01*
Y518308D01*
Y518079D01*
Y517850D01*
Y517621D01*
Y517392D01*
Y517164D01*
Y516935D01*
Y516706D01*
Y516477D01*
Y516248D01*
Y516019D01*
Y515790D01*
Y515562D01*
Y515333D01*
Y515104D01*
Y514875D01*
Y514646D01*
Y514417D01*
Y514189D01*
Y513960D01*
Y513731D01*
Y513502D01*
Y513273D01*
Y513044D01*
Y512816D01*
Y512587D01*
Y512358D01*
Y512129D01*
Y511900D01*
Y511671D01*
Y511442D01*
Y511213D01*
Y510985D01*
Y510756D01*
Y510527D01*
Y510298D01*
Y510069D01*
Y509840D01*
Y509612D01*
Y509383D01*
Y509154D01*
Y508925D01*
Y508696D01*
Y508467D01*
Y508238D01*
Y508010D01*
Y507781D01*
Y507552D01*
Y507323D01*
Y507094D01*
Y506865D01*
Y506637D01*
Y506408D01*
Y506179D01*
Y505950D01*
Y505721D01*
Y505492D01*
Y505263D01*
Y505035D01*
Y504806D01*
Y504577D01*
Y504348D01*
Y504119D01*
Y503890D01*
Y503662D01*
Y503433D01*
Y503204D01*
Y502975D01*
Y502746D01*
Y502517D01*
Y502289D01*
Y502060D01*
Y501831D01*
Y501602D01*
Y501373D01*
Y501144D01*
Y500915D01*
Y500687D01*
Y500458D01*
Y500229D01*
Y500000D01*
Y499771D01*
Y499542D01*
Y499314D01*
Y499085D01*
Y498856D01*
Y498627D01*
Y498398D01*
Y498169D01*
Y497940D01*
Y497711D01*
Y497483D01*
Y497254D01*
Y497025D01*
Y496796D01*
Y496567D01*
Y496338D01*
Y496110D01*
Y495881D01*
Y495652D01*
Y495423D01*
Y495194D01*
Y494965D01*
Y494737D01*
Y494508D01*
Y494279D01*
Y494050D01*
Y493821D01*
Y493592D01*
Y493363D01*
Y493135D01*
Y492906D01*
Y492677D01*
Y492448D01*
Y492219D01*
Y491990D01*
Y491762D01*
Y491533D01*
Y491304D01*
Y491075D01*
Y490846D01*
Y490617D01*
Y490388D01*
Y490159D01*
Y489931D01*
Y489702D01*
Y489473D01*
Y489244D01*
Y489015D01*
Y488787D01*
Y488558D01*
Y488329D01*
Y488100D01*
Y487871D01*
Y487642D01*
Y487413D01*
Y487184D01*
Y486956D01*
Y486727D01*
Y486498D01*
Y486269D01*
Y486040D01*
Y485812D01*
Y485583D01*
Y485354D01*
Y485125D01*
Y484896D01*
Y484667D01*
Y484438D01*
Y484210D01*
Y483981D01*
Y483752D01*
Y483523D01*
Y483294D01*
Y483065D01*
Y482836D01*
Y482608D01*
Y482379D01*
Y482150D01*
Y481921D01*
Y481692D01*
X240201D01*
Y481921D01*
Y482150D01*
Y482379D01*
Y482608D01*
Y482836D01*
Y483065D01*
Y483294D01*
Y483523D01*
Y483752D01*
Y483981D01*
Y484210D01*
Y484438D01*
Y484667D01*
Y484896D01*
Y485125D01*
Y485354D01*
Y485583D01*
Y485812D01*
Y486040D01*
Y486269D01*
Y486498D01*
Y486727D01*
Y486956D01*
Y487184D01*
Y487413D01*
Y487642D01*
Y487871D01*
Y488100D01*
Y488329D01*
Y488558D01*
Y488787D01*
Y489015D01*
Y489244D01*
Y489473D01*
Y489702D01*
Y489931D01*
Y490159D01*
Y490388D01*
Y490617D01*
Y490846D01*
Y491075D01*
Y491304D01*
Y491533D01*
Y491762D01*
Y491990D01*
Y492219D01*
Y492448D01*
Y492677D01*
Y492906D01*
Y493135D01*
Y493363D01*
Y493592D01*
Y493821D01*
Y494050D01*
Y494279D01*
Y494508D01*
Y494737D01*
Y494965D01*
Y495194D01*
Y495423D01*
Y495652D01*
Y495881D01*
Y496110D01*
Y496338D01*
Y496567D01*
Y496796D01*
Y497025D01*
Y497254D01*
Y497483D01*
Y497711D01*
Y497940D01*
Y498169D01*
Y498398D01*
Y498627D01*
Y498856D01*
Y499085D01*
Y499314D01*
Y499542D01*
Y499771D01*
Y500000D01*
Y500229D01*
Y500458D01*
Y500687D01*
Y500915D01*
Y501144D01*
Y501373D01*
Y501602D01*
Y501831D01*
Y502060D01*
Y502289D01*
Y502517D01*
Y502746D01*
Y502975D01*
Y503204D01*
Y503433D01*
Y503662D01*
Y503890D01*
Y504119D01*
Y504348D01*
Y504577D01*
Y504806D01*
Y505035D01*
Y505263D01*
Y505492D01*
Y505721D01*
Y505950D01*
Y506179D01*
Y506408D01*
Y506637D01*
Y506865D01*
Y507094D01*
Y507323D01*
Y507552D01*
Y507781D01*
Y508010D01*
Y508238D01*
Y508467D01*
Y508696D01*
Y508925D01*
Y509154D01*
Y509383D01*
Y509612D01*
Y509840D01*
Y510069D01*
Y510298D01*
Y510527D01*
Y510756D01*
Y510985D01*
Y511213D01*
Y511442D01*
Y511671D01*
Y511900D01*
Y512129D01*
Y512358D01*
Y512587D01*
Y512816D01*
Y513044D01*
Y513273D01*
Y513502D01*
Y513731D01*
Y513960D01*
Y514189D01*
Y514417D01*
Y514646D01*
Y514875D01*
Y515104D01*
Y515333D01*
Y515562D01*
Y515790D01*
Y516019D01*
Y516248D01*
Y516477D01*
Y516706D01*
Y516935D01*
Y517164D01*
Y517392D01*
Y517621D01*
Y517850D01*
Y518079D01*
Y518308D01*
Y518537D01*
Y518765D01*
Y518994D01*
Y519223D01*
Y519452D01*
Y519681D01*
Y519910D01*
Y520139D01*
Y520367D01*
Y520596D01*
Y520825D01*
Y521054D01*
Y521283D01*
Y521512D01*
Y521740D01*
Y521969D01*
Y522198D01*
Y522427D01*
Y522656D01*
Y522885D01*
Y523114D01*
Y523342D01*
Y523571D01*
Y523800D01*
Y524029D01*
Y524258D01*
Y524487D01*
Y524715D01*
Y524944D01*
Y525173D01*
Y525402D01*
Y525631D01*
Y525860D01*
Y526089D01*
Y526317D01*
Y526546D01*
Y526775D01*
Y527004D01*
Y527233D01*
Y527462D01*
Y527691D01*
Y527919D01*
Y528148D01*
Y528377D01*
Y528606D01*
Y528835D01*
Y529064D01*
Y529292D01*
Y529521D01*
Y529750D01*
Y529979D01*
Y530208D01*
Y530437D01*
Y530666D01*
Y530894D01*
Y531123D01*
Y531352D01*
Y531581D01*
Y531810D01*
Y532039D01*
Y532267D01*
Y532496D01*
Y532725D01*
Y532954D01*
Y533183D01*
Y533412D01*
Y533641D01*
Y533869D01*
Y534098D01*
Y534327D01*
Y534556D01*
Y534785D01*
Y535014D01*
Y535243D01*
Y535471D01*
Y535700D01*
Y535929D01*
Y536158D01*
Y536387D01*
Y536616D01*
Y536844D01*
Y537073D01*
Y537302D01*
Y537531D01*
Y537760D01*
Y537989D01*
Y538218D01*
Y538446D01*
Y538675D01*
Y538904D01*
Y539133D01*
Y539362D01*
Y539591D01*
Y539819D01*
Y540048D01*
Y540277D01*
Y540506D01*
Y540735D01*
Y540964D01*
Y541193D01*
Y541421D01*
Y541650D01*
Y541879D01*
Y542108D01*
Y542337D01*
Y542566D01*
Y542794D01*
Y543023D01*
Y543252D01*
Y543481D01*
Y543710D01*
Y543939D01*
Y544168D01*
Y544396D01*
Y544625D01*
Y544854D01*
Y545083D01*
Y545312D01*
Y545541D01*
Y545770D01*
Y545998D01*
Y546227D01*
Y546456D01*
Y546685D01*
Y546914D01*
Y547143D01*
Y547371D01*
Y547600D01*
Y547829D01*
Y548058D01*
Y548287D01*
Y548516D01*
Y548745D01*
Y548973D01*
Y549202D01*
Y549431D01*
Y549660D01*
Y549889D01*
Y550118D01*
Y550346D01*
Y550575D01*
Y550804D01*
Y551033D01*
Y551262D01*
Y551491D01*
Y551720D01*
Y551948D01*
Y552177D01*
Y552406D01*
Y552635D01*
Y552864D01*
Y553093D01*
Y553321D01*
Y553550D01*
Y553779D01*
Y554008D01*
Y554237D01*
Y554466D01*
Y554695D01*
Y554923D01*
Y555152D01*
Y555381D01*
Y555610D01*
Y555839D01*
Y556068D01*
Y556297D01*
Y556525D01*
Y556754D01*
Y556983D01*
Y557212D01*
Y557441D01*
Y557670D01*
Y557898D01*
Y558127D01*
Y558356D01*
Y558585D01*
Y558814D01*
Y559043D01*
Y559272D01*
Y559500D01*
Y559729D01*
Y559958D01*
Y560187D01*
Y560416D01*
Y560645D01*
Y560873D01*
Y561102D01*
Y561331D01*
Y561560D01*
Y561789D01*
Y562018D01*
Y562247D01*
Y562475D01*
Y562704D01*
Y562933D01*
Y563162D01*
Y563391D01*
Y563620D01*
Y563848D01*
Y564077D01*
Y564306D01*
Y564535D01*
Y564764D01*
Y564993D01*
Y565221D01*
Y565450D01*
Y565679D01*
Y565908D01*
Y566137D01*
Y566366D01*
Y566595D01*
Y566824D01*
Y567052D01*
Y567281D01*
Y567510D01*
Y567739D01*
Y567968D01*
Y568197D01*
Y568425D01*
Y568654D01*
Y568883D01*
Y569112D01*
Y569341D01*
Y569570D01*
Y569799D01*
Y570027D01*
Y570256D01*
Y570485D01*
Y570714D01*
Y570943D01*
Y571172D01*
Y571400D01*
Y571629D01*
Y571858D01*
Y572087D01*
Y572316D01*
Y572545D01*
Y572774D01*
Y573002D01*
Y573231D01*
X331740D01*
Y573002D01*
D02*
G37*
G36*
X257138Y468851D02*
X257953D01*
Y468579D01*
X258224D01*
Y468308D01*
X258496D01*
Y468036D01*
X258768D01*
Y467765D01*
X259039D01*
Y467493D01*
Y467221D01*
X259311D01*
Y466950D01*
Y466678D01*
Y466407D01*
Y466135D01*
Y465863D01*
Y465592D01*
Y465320D01*
X259039D01*
Y465049D01*
Y464777D01*
X258768D01*
Y464506D01*
X258496D01*
Y464234D01*
X258224D01*
Y463962D01*
X257681D01*
Y463691D01*
X255508D01*
Y463962D01*
X254965D01*
Y464234D01*
X254694D01*
Y464506D01*
X254422D01*
Y464777D01*
X254151D01*
Y465049D01*
Y465320D01*
X253879D01*
Y465592D01*
Y465863D01*
Y466135D01*
Y466407D01*
Y466678D01*
Y466950D01*
Y467221D01*
Y467493D01*
Y467765D01*
Y468036D01*
Y468308D01*
Y468579D01*
Y468851D01*
Y469123D01*
X257138D01*
Y468851D01*
D02*
G37*
G36*
X279951D02*
Y468579D01*
Y468308D01*
Y468036D01*
Y467765D01*
Y467493D01*
Y467221D01*
Y466950D01*
Y466678D01*
Y466407D01*
Y466135D01*
Y465863D01*
Y465592D01*
Y465320D01*
Y465049D01*
Y464777D01*
Y464506D01*
Y464234D01*
Y463962D01*
Y463691D01*
Y463419D01*
Y463148D01*
Y462876D01*
Y462604D01*
Y462333D01*
Y462061D01*
Y461790D01*
Y461518D01*
Y461246D01*
Y460975D01*
Y460703D01*
Y460432D01*
Y460160D01*
Y459889D01*
Y459617D01*
Y459345D01*
Y459074D01*
Y458802D01*
Y458531D01*
Y458259D01*
Y457988D01*
Y457716D01*
Y457444D01*
Y457173D01*
Y456901D01*
Y456629D01*
Y456358D01*
Y456086D01*
Y455815D01*
Y455543D01*
Y455272D01*
Y455000D01*
Y454728D01*
Y454457D01*
Y454185D01*
Y453914D01*
Y453642D01*
Y453371D01*
Y453099D01*
Y452827D01*
Y452556D01*
Y452284D01*
Y452013D01*
X279680D01*
Y451741D01*
Y451469D01*
Y451198D01*
Y450926D01*
X279408D01*
Y450655D01*
Y450383D01*
Y450111D01*
X279137D01*
Y449840D01*
Y449568D01*
X278865D01*
Y449297D01*
Y449025D01*
X278593D01*
Y448754D01*
Y448482D01*
X278322D01*
Y448210D01*
X278050D01*
Y447939D01*
X277779D01*
Y447667D01*
X277507D01*
Y447396D01*
X277235D01*
Y447124D01*
X276964D01*
Y446852D01*
X276692D01*
Y446581D01*
X276421D01*
Y446309D01*
X275877D01*
Y446038D01*
X275606D01*
Y445766D01*
X275063D01*
Y445494D01*
X274248D01*
Y445223D01*
X273433D01*
Y444951D01*
X269631D01*
Y445223D01*
X268816D01*
Y445494D01*
X268001D01*
Y445766D01*
X267458D01*
Y446038D01*
X267187D01*
Y446309D01*
X266644D01*
Y446581D01*
X266372D01*
Y446852D01*
X266100D01*
Y447124D01*
X265829D01*
Y447396D01*
X265557D01*
Y447667D01*
X265286D01*
Y447939D01*
X265014D01*
Y448210D01*
X264742D01*
Y448482D01*
Y448754D01*
X264471D01*
Y449025D01*
X264199D01*
Y449297D01*
Y449568D01*
X263928D01*
Y449840D01*
Y450111D01*
X263656D01*
Y450383D01*
Y450655D01*
Y450926D01*
X263384D01*
Y451198D01*
Y451469D01*
Y451741D01*
Y452013D01*
Y452284D01*
X263113D01*
Y452556D01*
Y452827D01*
Y453099D01*
Y453371D01*
Y453642D01*
Y453914D01*
X263384D01*
Y454185D01*
Y454457D01*
Y454728D01*
Y455000D01*
Y455272D01*
Y455543D01*
X263656D01*
Y455815D01*
Y456086D01*
Y456358D01*
X263928D01*
Y456629D01*
Y456901D01*
X264199D01*
Y457173D01*
Y457444D01*
X264471D01*
Y457716D01*
X264742D01*
Y457988D01*
Y458259D01*
X265014D01*
Y458531D01*
X265286D01*
Y458802D01*
X265557D01*
Y459074D01*
X265829D01*
Y459345D01*
X266100D01*
Y459617D01*
X266372D01*
Y459889D01*
X266644D01*
Y460160D01*
X267187D01*
Y460432D01*
X267730D01*
Y460703D01*
X268273D01*
Y460975D01*
X268816D01*
Y461246D01*
X269903D01*
Y461518D01*
X273162D01*
Y461246D01*
X274520D01*
Y461518D01*
Y461790D01*
Y462061D01*
Y462333D01*
Y462604D01*
Y462876D01*
Y463148D01*
Y463419D01*
Y463691D01*
Y463962D01*
Y464234D01*
Y464506D01*
Y464777D01*
Y465049D01*
Y465320D01*
Y465592D01*
Y465863D01*
Y466135D01*
Y466407D01*
Y466678D01*
Y466950D01*
Y467221D01*
Y467493D01*
Y467765D01*
Y468036D01*
Y468308D01*
Y468579D01*
Y468851D01*
Y469123D01*
X279951D01*
Y468851D01*
D02*
G37*
G36*
X340515Y461246D02*
X341601D01*
Y460975D01*
X342145D01*
Y460703D01*
X342688D01*
Y460432D01*
X343231D01*
Y460160D01*
X343774D01*
Y459889D01*
X344046D01*
Y459617D01*
X344317D01*
Y459345D01*
X344589D01*
Y459074D01*
X344860D01*
Y458802D01*
X345132D01*
Y458531D01*
X345404D01*
Y458259D01*
X345675D01*
Y457988D01*
Y457716D01*
X345947D01*
Y457444D01*
X346218D01*
Y457173D01*
Y456901D01*
X346490D01*
Y456629D01*
Y456358D01*
X346762D01*
Y456086D01*
Y455815D01*
Y455543D01*
X347033D01*
Y455272D01*
Y455000D01*
Y454728D01*
Y454457D01*
Y454185D01*
Y453914D01*
Y453642D01*
Y453371D01*
X346762D01*
Y453099D01*
X346490D01*
Y452827D01*
X346218D01*
Y452556D01*
X345947D01*
Y452284D01*
X345675D01*
Y452013D01*
X345404D01*
Y451741D01*
X345132D01*
Y451469D01*
X344860D01*
Y451198D01*
X344589D01*
Y450926D01*
X344317D01*
Y450655D01*
X344046D01*
Y450383D01*
X347305D01*
Y450111D01*
Y449840D01*
Y449568D01*
Y449297D01*
Y449025D01*
Y448754D01*
Y448482D01*
Y448210D01*
Y447939D01*
Y447667D01*
Y447396D01*
Y447124D01*
Y446852D01*
Y446581D01*
Y446309D01*
Y446038D01*
Y445766D01*
Y445494D01*
Y445223D01*
Y444951D01*
X336984D01*
Y445223D01*
X336170D01*
Y445494D01*
X335355D01*
Y445766D01*
X334812D01*
Y446038D01*
X334540D01*
Y446309D01*
X333997D01*
Y446581D01*
X333725D01*
Y446852D01*
X333454D01*
Y447124D01*
X333182D01*
Y447396D01*
X332911D01*
Y447667D01*
X332639D01*
Y447939D01*
X332368D01*
Y448210D01*
X332096D01*
Y448482D01*
X331824D01*
Y448754D01*
Y449025D01*
X331553D01*
Y449297D01*
Y449568D01*
X331281D01*
Y449840D01*
Y450111D01*
X331009D01*
Y450383D01*
Y450655D01*
Y450926D01*
X330738D01*
Y451198D01*
Y451469D01*
Y451741D01*
Y452013D01*
X330466D01*
Y452284D01*
Y452556D01*
Y452827D01*
Y453099D01*
Y453371D01*
Y453642D01*
Y453914D01*
Y454185D01*
X330738D01*
Y454457D01*
Y454728D01*
Y455000D01*
Y455272D01*
Y455543D01*
X331009D01*
Y455815D01*
Y456086D01*
Y456358D01*
X331281D01*
Y456629D01*
Y456901D01*
X331553D01*
Y457173D01*
Y457444D01*
X331824D01*
Y457716D01*
X332096D01*
Y457988D01*
Y458259D01*
X332368D01*
Y458531D01*
X332639D01*
Y458802D01*
X332911D01*
Y459074D01*
X333182D01*
Y459345D01*
X333454D01*
Y459617D01*
X333725D01*
Y459889D01*
X333997D01*
Y460160D01*
X334540D01*
Y460432D01*
X335083D01*
Y460703D01*
X335626D01*
Y460975D01*
X336170D01*
Y461246D01*
X337256D01*
Y461518D01*
X340515D01*
Y461246D01*
D02*
G37*
G36*
X322862Y468851D02*
Y468579D01*
Y468308D01*
Y468036D01*
Y467765D01*
Y467493D01*
Y467221D01*
Y466950D01*
Y466678D01*
Y466407D01*
Y466135D01*
Y465863D01*
Y465592D01*
Y465320D01*
X328565D01*
Y465049D01*
Y464777D01*
Y464506D01*
Y464234D01*
Y463962D01*
Y463691D01*
Y463419D01*
Y463148D01*
Y462876D01*
Y462604D01*
Y462333D01*
Y462061D01*
Y461790D01*
Y461518D01*
Y461246D01*
Y460975D01*
Y460703D01*
Y460432D01*
Y460160D01*
Y459889D01*
X322862D01*
Y459617D01*
Y459345D01*
Y459074D01*
Y458802D01*
Y458531D01*
Y458259D01*
Y457988D01*
Y457716D01*
Y457444D01*
Y457173D01*
Y456901D01*
Y456629D01*
Y456358D01*
Y456086D01*
Y455815D01*
Y455543D01*
Y455272D01*
Y455000D01*
Y454728D01*
Y454457D01*
Y454185D01*
Y453914D01*
Y453642D01*
Y453371D01*
Y453099D01*
Y452827D01*
Y452556D01*
Y452284D01*
Y452013D01*
Y451741D01*
Y451469D01*
Y451198D01*
Y450926D01*
X323134D01*
Y450655D01*
X323405D01*
Y450383D01*
X328565D01*
Y450111D01*
Y449840D01*
Y449568D01*
Y449297D01*
Y449025D01*
Y448754D01*
Y448482D01*
Y448210D01*
Y447939D01*
Y447667D01*
Y447396D01*
Y447124D01*
Y446852D01*
Y446581D01*
Y446309D01*
Y446038D01*
Y445766D01*
Y445494D01*
Y445223D01*
Y444951D01*
X321504D01*
Y445223D01*
X320689D01*
Y445494D01*
X320146D01*
Y445766D01*
X319874D01*
Y446038D01*
X319331D01*
Y446309D01*
X319060D01*
Y446581D01*
X318788D01*
Y446852D01*
X318517D01*
Y447124D01*
Y447396D01*
X318245D01*
Y447667D01*
X317973D01*
Y447939D01*
Y448210D01*
Y448482D01*
X317702D01*
Y448754D01*
Y449025D01*
Y449297D01*
X317430D01*
Y449568D01*
Y449840D01*
Y450111D01*
Y450383D01*
Y450655D01*
Y450926D01*
Y451198D01*
Y451469D01*
Y451741D01*
Y452013D01*
Y452284D01*
Y452556D01*
Y452827D01*
Y453099D01*
Y453371D01*
Y453642D01*
Y453914D01*
Y454185D01*
Y454457D01*
Y454728D01*
Y455000D01*
Y455272D01*
Y455543D01*
Y455815D01*
Y456086D01*
Y456358D01*
Y456629D01*
Y456901D01*
Y457173D01*
Y457444D01*
Y457716D01*
Y457988D01*
Y458259D01*
Y458531D01*
Y458802D01*
Y459074D01*
Y459345D01*
Y459617D01*
Y459889D01*
Y460160D01*
Y460432D01*
Y460703D01*
Y460975D01*
Y461246D01*
Y461518D01*
Y461790D01*
Y462061D01*
Y462333D01*
Y462604D01*
Y462876D01*
Y463148D01*
Y463419D01*
Y463691D01*
Y463962D01*
Y464234D01*
Y464506D01*
Y464777D01*
Y465049D01*
Y465320D01*
Y465592D01*
Y465863D01*
Y466135D01*
Y466407D01*
Y466678D01*
Y466950D01*
Y467221D01*
Y467493D01*
Y467765D01*
Y468036D01*
Y468308D01*
Y468579D01*
Y468851D01*
Y469123D01*
X322862D01*
Y468851D01*
D02*
G37*
G36*
X306838Y461246D02*
X307925D01*
Y460975D01*
X308468D01*
Y460703D01*
X309011D01*
Y460432D01*
X309554D01*
Y460160D01*
X310097D01*
Y459889D01*
X310369D01*
Y459617D01*
X310641D01*
Y459345D01*
X310912D01*
Y459074D01*
X311184D01*
Y458802D01*
X311455D01*
Y458531D01*
X311727D01*
Y458259D01*
X311999D01*
Y457988D01*
Y457716D01*
X312270D01*
Y457444D01*
X312542D01*
Y457173D01*
Y456901D01*
X312813D01*
Y456629D01*
Y456358D01*
X313085D01*
Y456086D01*
Y455815D01*
Y455543D01*
X313356D01*
Y455272D01*
Y455000D01*
Y454728D01*
Y454457D01*
Y454185D01*
X313628D01*
Y453914D01*
Y453642D01*
Y453371D01*
Y453099D01*
Y452827D01*
Y452556D01*
Y452284D01*
Y452013D01*
Y451741D01*
Y451469D01*
Y451198D01*
Y450926D01*
Y450655D01*
Y450383D01*
Y450111D01*
Y449840D01*
Y449568D01*
Y449297D01*
Y449025D01*
Y448754D01*
Y448482D01*
Y448210D01*
Y447939D01*
Y447667D01*
Y447396D01*
Y447124D01*
Y446852D01*
Y446581D01*
Y446309D01*
Y446038D01*
Y445766D01*
Y445494D01*
Y445223D01*
Y444951D01*
X303308D01*
Y445223D01*
X302493D01*
Y445494D01*
X301678D01*
Y445766D01*
X301135D01*
Y446038D01*
X300863D01*
Y446309D01*
X300320D01*
Y446581D01*
X300049D01*
Y446852D01*
X299777D01*
Y447124D01*
X299506D01*
Y447396D01*
X299234D01*
Y447667D01*
X298962D01*
Y447939D01*
X298691D01*
Y448210D01*
X298419D01*
Y448482D01*
X298148D01*
Y448754D01*
Y449025D01*
X297876D01*
Y449297D01*
Y449568D01*
X297604D01*
Y449840D01*
Y450111D01*
X297333D01*
Y450383D01*
Y450655D01*
Y450926D01*
X297061D01*
Y451198D01*
Y451469D01*
Y451741D01*
Y452013D01*
Y452284D01*
X296790D01*
Y452556D01*
Y452827D01*
Y453099D01*
Y453371D01*
Y453642D01*
Y453914D01*
Y454185D01*
X297061D01*
Y454457D01*
Y454728D01*
Y455000D01*
Y455272D01*
Y455543D01*
X297333D01*
Y455815D01*
Y456086D01*
Y456358D01*
X297604D01*
Y456629D01*
Y456901D01*
X297876D01*
Y457173D01*
Y457444D01*
X298148D01*
Y457716D01*
X298419D01*
Y457988D01*
Y458259D01*
X298691D01*
Y458531D01*
X298962D01*
Y458802D01*
X299234D01*
Y459074D01*
X299506D01*
Y459345D01*
X299777D01*
Y459617D01*
X300049D01*
Y459889D01*
X300320D01*
Y460160D01*
X300863D01*
Y460432D01*
X301407D01*
Y460703D01*
X301950D01*
Y460975D01*
X302493D01*
Y461246D01*
X303579D01*
Y461518D01*
X306838D01*
Y461246D01*
D02*
G37*
G36*
X294889D02*
Y460975D01*
Y460703D01*
Y460432D01*
Y460160D01*
Y459889D01*
Y459617D01*
Y459345D01*
Y459074D01*
Y458802D01*
Y458531D01*
Y458259D01*
Y457988D01*
Y457716D01*
Y457444D01*
Y457173D01*
Y456901D01*
Y456629D01*
Y456358D01*
Y456086D01*
X291086D01*
Y455815D01*
X290543D01*
Y455543D01*
X290272D01*
Y455272D01*
X290000D01*
Y455000D01*
X289728D01*
Y454728D01*
X289457D01*
Y454457D01*
Y454185D01*
Y453914D01*
X289185D01*
Y453642D01*
Y453371D01*
Y453099D01*
Y452827D01*
Y452556D01*
Y452284D01*
Y452013D01*
Y451741D01*
Y451469D01*
Y451198D01*
Y450926D01*
Y450655D01*
Y450383D01*
Y450111D01*
Y449840D01*
Y449568D01*
Y449297D01*
Y449025D01*
Y448754D01*
Y448482D01*
Y448210D01*
Y447939D01*
Y447667D01*
Y447396D01*
Y447124D01*
Y446852D01*
Y446581D01*
Y446309D01*
Y446038D01*
Y445766D01*
Y445494D01*
Y445223D01*
Y444951D01*
X283754D01*
Y445223D01*
Y445494D01*
Y445766D01*
Y446038D01*
Y446309D01*
Y446581D01*
Y446852D01*
Y447124D01*
Y447396D01*
Y447667D01*
Y447939D01*
Y448210D01*
Y448482D01*
Y448754D01*
Y449025D01*
Y449297D01*
Y449568D01*
Y449840D01*
Y450111D01*
Y450383D01*
Y450655D01*
Y450926D01*
Y451198D01*
Y451469D01*
Y451741D01*
Y452013D01*
Y452284D01*
Y452556D01*
Y452827D01*
Y453099D01*
Y453371D01*
Y453642D01*
Y453914D01*
Y454185D01*
Y454457D01*
X284025D01*
Y454728D01*
Y455000D01*
Y455272D01*
Y455543D01*
X284297D01*
Y455815D01*
Y456086D01*
Y456358D01*
X284568D01*
Y456629D01*
Y456901D01*
X284840D01*
Y457173D01*
Y457444D01*
X285111D01*
Y457716D01*
Y457988D01*
X285383D01*
Y458259D01*
X285655D01*
Y458531D01*
X285926D01*
Y458802D01*
X286198D01*
Y459074D01*
X286469D01*
Y459345D01*
X286741D01*
Y459617D01*
X287013D01*
Y459889D01*
X287284D01*
Y460160D01*
X287827D01*
Y460432D01*
X288099D01*
Y460703D01*
X288914D01*
Y460975D01*
X289457D01*
Y461246D01*
X290543D01*
Y461518D01*
X294889D01*
Y461246D01*
D02*
G37*
G36*
X259311D02*
Y460975D01*
Y460703D01*
Y460432D01*
Y460160D01*
Y459889D01*
Y459617D01*
Y459345D01*
Y459074D01*
Y458802D01*
Y458531D01*
Y458259D01*
Y457988D01*
Y457716D01*
Y457444D01*
Y457173D01*
Y456901D01*
Y456629D01*
Y456358D01*
Y456086D01*
Y455815D01*
Y455543D01*
Y455272D01*
Y455000D01*
Y454728D01*
Y454457D01*
Y454185D01*
Y453914D01*
Y453642D01*
Y453371D01*
Y453099D01*
Y452827D01*
Y452556D01*
Y452284D01*
Y452013D01*
Y451741D01*
Y451469D01*
Y451198D01*
Y450926D01*
Y450655D01*
Y450383D01*
Y450111D01*
Y449840D01*
Y449568D01*
Y449297D01*
Y449025D01*
Y448754D01*
Y448482D01*
Y448210D01*
Y447939D01*
Y447667D01*
Y447396D01*
Y447124D01*
Y446852D01*
Y446581D01*
Y446309D01*
Y446038D01*
Y445766D01*
Y445494D01*
Y445223D01*
Y444951D01*
X253879D01*
Y445223D01*
Y445494D01*
Y445766D01*
Y446038D01*
Y446309D01*
Y446581D01*
Y446852D01*
Y447124D01*
Y447396D01*
Y447667D01*
Y447939D01*
Y448210D01*
Y448482D01*
Y448754D01*
Y449025D01*
Y449297D01*
Y449568D01*
Y449840D01*
Y450111D01*
Y450383D01*
Y450655D01*
Y450926D01*
Y451198D01*
Y451469D01*
Y451741D01*
Y452013D01*
Y452284D01*
Y452556D01*
Y452827D01*
Y453099D01*
Y453371D01*
Y453642D01*
Y453914D01*
Y454185D01*
Y454457D01*
Y454728D01*
Y455000D01*
Y455272D01*
Y455543D01*
Y455815D01*
Y456086D01*
Y456358D01*
Y456629D01*
Y456901D01*
Y457173D01*
Y457444D01*
Y457716D01*
Y457988D01*
Y458259D01*
Y458531D01*
Y458802D01*
Y459074D01*
Y459345D01*
Y459617D01*
Y459889D01*
Y460160D01*
Y460432D01*
Y460703D01*
Y460975D01*
Y461246D01*
Y461518D01*
X259311D01*
Y461246D01*
D02*
G37*
G36*
X238670Y468851D02*
Y468579D01*
Y468308D01*
Y468036D01*
Y467765D01*
Y467493D01*
Y467221D01*
Y466950D01*
Y466678D01*
Y466407D01*
Y466135D01*
Y465863D01*
Y465592D01*
Y465320D01*
Y465049D01*
Y464777D01*
Y464506D01*
Y464234D01*
Y463962D01*
Y463691D01*
Y463419D01*
Y463148D01*
Y462876D01*
Y462604D01*
Y462333D01*
Y462061D01*
Y461790D01*
Y461518D01*
Y461246D01*
X240028D01*
Y461518D01*
X243287D01*
Y461246D01*
X244373D01*
Y460975D01*
X244917D01*
Y460703D01*
X245460D01*
Y460432D01*
X246003D01*
Y460160D01*
X246546D01*
Y459889D01*
X246818D01*
Y459617D01*
X247089D01*
Y459345D01*
X247361D01*
Y459074D01*
X247633D01*
Y458802D01*
X247904D01*
Y458531D01*
X248176D01*
Y458259D01*
X248447D01*
Y457988D01*
Y457716D01*
X248719D01*
Y457444D01*
X248990D01*
Y457173D01*
Y456901D01*
X249262D01*
Y456629D01*
Y456358D01*
X249534D01*
Y456086D01*
Y455815D01*
Y455543D01*
X249805D01*
Y455272D01*
Y455000D01*
Y454728D01*
Y454457D01*
Y454185D01*
Y453914D01*
X250077D01*
Y453642D01*
Y453371D01*
Y453099D01*
Y452827D01*
Y452556D01*
Y452284D01*
Y452013D01*
Y451741D01*
Y451469D01*
Y451198D01*
Y450926D01*
Y450655D01*
Y450383D01*
Y450111D01*
Y449840D01*
Y449568D01*
Y449297D01*
Y449025D01*
Y448754D01*
Y448482D01*
Y448210D01*
Y447939D01*
Y447667D01*
Y447396D01*
Y447124D01*
Y446852D01*
Y446581D01*
Y446309D01*
Y446038D01*
Y445766D01*
Y445494D01*
Y445223D01*
Y444951D01*
X244373D01*
Y445223D01*
Y445494D01*
Y445766D01*
Y446038D01*
Y446309D01*
Y446581D01*
Y446852D01*
Y447124D01*
Y447396D01*
Y447667D01*
Y447939D01*
Y448210D01*
Y448482D01*
Y448754D01*
Y449025D01*
Y449297D01*
Y449568D01*
Y449840D01*
Y450111D01*
Y450383D01*
Y450655D01*
Y450926D01*
Y451198D01*
Y451469D01*
Y451741D01*
Y452013D01*
Y452284D01*
Y452556D01*
Y452827D01*
Y453099D01*
Y453371D01*
Y453642D01*
Y453914D01*
Y454185D01*
Y454457D01*
X244102D01*
Y454728D01*
Y455000D01*
X243830D01*
Y455272D01*
X243559D01*
Y455543D01*
X243287D01*
Y455815D01*
X242472D01*
Y456086D01*
X240571D01*
Y455815D01*
X240028D01*
Y455543D01*
X239757D01*
Y455272D01*
X239485D01*
Y455000D01*
X239213D01*
Y454728D01*
Y454457D01*
X238942D01*
Y454185D01*
Y453914D01*
X238670D01*
Y453642D01*
Y453371D01*
Y453099D01*
Y452827D01*
Y452556D01*
Y452284D01*
Y452013D01*
Y451741D01*
Y451469D01*
Y451198D01*
Y450926D01*
Y450655D01*
Y450383D01*
Y450111D01*
Y449840D01*
Y449568D01*
Y449297D01*
Y449025D01*
Y448754D01*
Y448482D01*
Y448210D01*
Y447939D01*
Y447667D01*
Y447396D01*
Y447124D01*
Y446852D01*
Y446581D01*
Y446309D01*
Y446038D01*
Y445766D01*
Y445494D01*
Y445223D01*
Y444951D01*
X233238D01*
Y445223D01*
Y445494D01*
Y445766D01*
Y446038D01*
Y446309D01*
Y446581D01*
Y446852D01*
Y447124D01*
Y447396D01*
Y447667D01*
Y447939D01*
Y448210D01*
Y448482D01*
Y448754D01*
Y449025D01*
Y449297D01*
Y449568D01*
Y449840D01*
Y450111D01*
Y450383D01*
Y450655D01*
Y450926D01*
Y451198D01*
Y451469D01*
Y451741D01*
Y452013D01*
Y452284D01*
Y452556D01*
Y452827D01*
Y453099D01*
Y453371D01*
Y453642D01*
Y453914D01*
Y454185D01*
Y454457D01*
Y454728D01*
Y455000D01*
Y455272D01*
Y455543D01*
Y455815D01*
Y456086D01*
Y456358D01*
Y456629D01*
Y456901D01*
Y457173D01*
Y457444D01*
Y457716D01*
Y457988D01*
Y458259D01*
Y458531D01*
Y458802D01*
Y459074D01*
Y459345D01*
Y459617D01*
Y459889D01*
Y460160D01*
Y460432D01*
Y460703D01*
Y460975D01*
Y461246D01*
Y461518D01*
Y461790D01*
Y462061D01*
Y462333D01*
Y462604D01*
Y462876D01*
Y463148D01*
Y463419D01*
Y463691D01*
Y463962D01*
Y464234D01*
Y464506D01*
Y464777D01*
Y465049D01*
Y465320D01*
Y465592D01*
Y465863D01*
Y466135D01*
Y466407D01*
Y466678D01*
Y466950D01*
Y467221D01*
Y467493D01*
Y467765D01*
Y468036D01*
Y468308D01*
Y468579D01*
Y468851D01*
Y469123D01*
X238670D01*
Y468851D01*
D02*
G37*
G36*
X133450Y401044D02*
X135132D01*
Y400483D01*
X137374D01*
Y399923D01*
X138494D01*
Y400483D01*
X139055D01*
Y399362D01*
X140176D01*
Y398802D01*
X141297D01*
Y398242D01*
X141857D01*
Y398802D01*
X142417D01*
Y397681D01*
X142978D01*
Y397121D01*
X144099D01*
Y396000D01*
X145220D01*
Y395439D01*
X145780D01*
Y394879D01*
X146901D01*
Y394318D01*
X147461D01*
Y393198D01*
X148022D01*
Y392637D01*
X148582D01*
Y391516D01*
X149703D01*
Y390395D01*
X150264D01*
Y389835D01*
X150824D01*
Y388714D01*
X151384D01*
Y388154D01*
X151945D01*
Y386472D01*
X152505D01*
Y385912D01*
X153066D01*
Y383670D01*
X153626D01*
Y382549D01*
X154187D01*
Y378626D01*
X154747D01*
Y371901D01*
X154187D01*
Y371340D01*
X154747D01*
Y370780D01*
X154187D01*
Y368538D01*
X153626D01*
Y366297D01*
X153066D01*
Y365176D01*
X152505D01*
Y364055D01*
X151945D01*
Y362374D01*
X150824D01*
Y360692D01*
X151384D01*
Y360132D01*
X149703D01*
Y358451D01*
X149143D01*
Y357890D01*
X148582D01*
Y356769D01*
X148022D01*
Y356209D01*
X147461D01*
Y355088D01*
X146901D01*
Y355648D01*
X146341D01*
Y355088D01*
X146901D01*
Y354527D01*
X146341D01*
Y353967D01*
X145780D01*
Y353407D01*
X145220D01*
Y352846D01*
X144659D01*
Y352286D01*
X144099D01*
Y351165D01*
X143538D01*
Y350604D01*
X142978D01*
Y350044D01*
X141857D01*
Y348923D01*
X140736D01*
Y348363D01*
X140176D01*
Y347802D01*
X139615D01*
Y347242D01*
X139055D01*
Y346681D01*
X138494D01*
Y346121D01*
X137934D01*
Y345560D01*
X137374D01*
Y345000D01*
X136813D01*
Y344440D01*
X137374D01*
Y343319D01*
X138494D01*
Y342198D01*
X139615D01*
Y341637D01*
X140176D01*
Y341077D01*
X140736D01*
Y341637D01*
X141297D01*
Y340517D01*
X141857D01*
Y338835D01*
X142417D01*
Y339396D01*
X142978D01*
Y337714D01*
X143538D01*
Y338275D01*
X144099D01*
Y336594D01*
X145220D01*
Y336033D01*
X145780D01*
Y335473D01*
X146341D01*
Y334912D01*
X146901D01*
Y334352D01*
X147461D01*
Y333231D01*
X148022D01*
Y332670D01*
X148582D01*
Y330989D01*
X149703D01*
Y329868D01*
X150264D01*
Y329308D01*
X151384D01*
Y328747D01*
X150824D01*
Y328187D01*
X151384D01*
Y327066D01*
X151945D01*
Y325945D01*
X153066D01*
Y325385D01*
X152505D01*
Y324264D01*
X153066D01*
Y322583D01*
X153626D01*
Y320901D01*
X154187D01*
Y318659D01*
X154747D01*
Y310813D01*
X154187D01*
Y306890D01*
X153626D01*
Y306330D01*
X153066D01*
Y305769D01*
X153626D01*
Y305209D01*
X153066D01*
Y303528D01*
X152505D01*
Y302407D01*
X151945D01*
Y301286D01*
X151384D01*
Y300725D01*
X150824D01*
Y299605D01*
X150264D01*
Y299044D01*
X149703D01*
Y297923D01*
X149143D01*
Y297363D01*
X148582D01*
Y296802D01*
X148022D01*
Y296242D01*
X147461D01*
Y295121D01*
X146341D01*
Y294561D01*
X145780D01*
Y294000D01*
X145220D01*
Y293440D01*
X144659D01*
Y292879D01*
X143538D01*
Y292319D01*
X142978D01*
Y291758D01*
X142417D01*
Y290638D01*
X141857D01*
Y291198D01*
X141297D01*
Y290638D01*
X140176D01*
Y290077D01*
X139055D01*
Y289517D01*
X137374D01*
Y288956D01*
X136813D01*
Y289517D01*
X136253D01*
Y288956D01*
X135692D01*
Y288396D01*
X133450D01*
Y287835D01*
X124483D01*
Y288396D01*
X123923D01*
Y287835D01*
X123363D01*
Y288396D01*
X121121D01*
Y288956D01*
X120000D01*
Y289517D01*
X117758D01*
Y290077D01*
X116637D01*
Y290638D01*
X115517D01*
Y291198D01*
X114396D01*
Y291758D01*
X113835D01*
Y292879D01*
X112154D01*
Y293440D01*
X111593D01*
Y294000D01*
X111033D01*
Y294561D01*
X110473D01*
Y295121D01*
X109912D01*
Y295682D01*
X109352D01*
Y296242D01*
X108791D01*
Y296802D01*
X108231D01*
Y297363D01*
X107670D01*
Y297923D01*
X107110D01*
Y299044D01*
X106550D01*
Y299605D01*
X105989D01*
Y300725D01*
X105429D01*
Y301286D01*
X104308D01*
Y301846D01*
X104868D01*
Y302967D01*
X104308D01*
Y304088D01*
X103747D01*
Y305769D01*
X103187D01*
Y307451D01*
X102626D01*
Y310253D01*
X102066D01*
Y316978D01*
X102626D01*
Y320901D01*
X103187D01*
Y323143D01*
X103747D01*
Y324264D01*
X104308D01*
Y325945D01*
X104868D01*
Y327066D01*
X105429D01*
Y328187D01*
X105989D01*
Y329308D01*
X106550D01*
Y329868D01*
X107110D01*
Y330989D01*
X107670D01*
Y331549D01*
X108231D01*
Y332670D01*
X108791D01*
Y333231D01*
X109352D01*
Y334352D01*
X109912D01*
Y334912D01*
X110473D01*
Y335473D01*
X111593D01*
Y337154D01*
X112154D01*
Y336594D01*
X112714D01*
Y337154D01*
X112154D01*
Y337714D01*
X112714D01*
Y338275D01*
X113275D01*
Y338835D01*
X113835D01*
Y339396D01*
X114396D01*
Y339956D01*
X114956D01*
Y340517D01*
X115517D01*
Y339956D01*
X116077D01*
Y341077D01*
X116637D01*
Y341637D01*
X117198D01*
Y342198D01*
X117758D01*
Y342758D01*
X118319D01*
Y343319D01*
X119439D01*
Y344440D01*
X120000D01*
Y345000D01*
X119439D01*
Y345560D01*
X118879D01*
Y346121D01*
X118319D01*
Y346681D01*
X117758D01*
Y347242D01*
X117198D01*
Y347802D01*
X116637D01*
Y348363D01*
X116077D01*
Y348923D01*
X114956D01*
Y350044D01*
X113835D01*
Y351165D01*
X113275D01*
Y351725D01*
X112714D01*
Y352286D01*
X112154D01*
Y352846D01*
X111593D01*
Y353407D01*
X111033D01*
Y353967D01*
X110473D01*
Y354527D01*
X109912D01*
Y355648D01*
X109352D01*
Y356209D01*
X108791D01*
Y356769D01*
X108231D01*
Y357890D01*
X107670D01*
Y358451D01*
X107110D01*
Y360132D01*
X105989D01*
Y362374D01*
X104308D01*
Y362934D01*
X104868D01*
Y364055D01*
X104308D01*
Y365176D01*
X103747D01*
Y366857D01*
X103187D01*
Y368538D01*
X102066D01*
Y369099D01*
X102626D01*
Y371340D01*
X102066D01*
Y371901D01*
X102626D01*
Y372461D01*
X102066D01*
Y378066D01*
X102626D01*
Y378626D01*
X101506D01*
Y379187D01*
X102626D01*
Y381989D01*
X103187D01*
Y383670D01*
X103747D01*
Y385351D01*
X104308D01*
Y386472D01*
X104868D01*
Y388154D01*
X105429D01*
Y388714D01*
X105989D01*
Y389835D01*
X106550D01*
Y390395D01*
X107110D01*
Y391516D01*
X107670D01*
Y392077D01*
X108231D01*
Y392637D01*
X108791D01*
Y393198D01*
X109352D01*
Y393758D01*
X110473D01*
Y394879D01*
X111033D01*
Y395439D01*
X111593D01*
Y396000D01*
X112714D01*
Y397681D01*
X113275D01*
Y397121D01*
X113835D01*
Y397681D01*
X114396D01*
Y397121D01*
X114956D01*
Y397681D01*
X114396D01*
Y398242D01*
X116077D01*
Y398802D01*
X116637D01*
Y399362D01*
X118319D01*
Y399923D01*
X119439D01*
Y400483D01*
X121121D01*
Y401044D01*
X123363D01*
Y401604D01*
X133450D01*
Y401044D01*
D02*
G37*
%LPC*%
G36*
X289861Y563848D02*
X282081D01*
Y563620D01*
X280479D01*
Y563391D01*
X279563D01*
Y563162D01*
X278190D01*
Y562933D01*
X277046D01*
Y562704D01*
X276359D01*
Y562475D01*
X275673D01*
Y562247D01*
X275444D01*
Y562018D01*
X275215D01*
Y562247D01*
X274757D01*
Y562018D01*
X274071D01*
Y561789D01*
X273613D01*
Y561560D01*
Y561331D01*
X273384D01*
Y561560D01*
X272927D01*
Y561331D01*
X272240D01*
Y561102D01*
X271782D01*
Y560873D01*
X271325D01*
Y560645D01*
Y560416D01*
X271096D01*
Y560645D01*
X270638D01*
Y560416D01*
X270180D01*
Y560187D01*
X269952D01*
Y559958D01*
X269494D01*
Y559729D01*
X268807D01*
Y559500D01*
X268579D01*
Y559272D01*
X268121D01*
Y559043D01*
X267663D01*
Y558814D01*
X267206D01*
Y558585D01*
X266977D01*
Y558356D01*
X266748D01*
Y558127D01*
X266290D01*
Y557898D01*
X265832D01*
Y557670D01*
X265604D01*
Y557441D01*
X265375D01*
Y557212D01*
X264917D01*
Y556983D01*
X264688D01*
Y556754D01*
X264230D01*
Y556525D01*
X264002D01*
Y556297D01*
X263773D01*
Y556068D01*
X263544D01*
Y555839D01*
Y555610D01*
Y555381D01*
X263315D01*
Y555610D01*
Y555839D01*
X263086D01*
Y555610D01*
X262857D01*
Y555381D01*
X262629D01*
Y555152D01*
X262400D01*
Y554923D01*
X261942D01*
Y554695D01*
X261713D01*
Y554466D01*
X261484D01*
Y554237D01*
X261255D01*
Y554008D01*
X261027D01*
Y553779D01*
X260798D01*
Y553550D01*
X260569D01*
Y553321D01*
X260340D01*
Y553093D01*
X260111D01*
Y552864D01*
X259882D01*
Y552635D01*
X259653D01*
Y552406D01*
X259425D01*
Y552177D01*
X259196D01*
Y551948D01*
X258967D01*
Y551720D01*
X258738D01*
Y551491D01*
X258509D01*
Y551262D01*
Y551033D01*
X258281D01*
Y550804D01*
X258052D01*
Y550575D01*
X257823D01*
Y550346D01*
X257594D01*
Y550118D01*
Y549889D01*
X257136D01*
Y549660D01*
Y549431D01*
X256907D01*
Y549202D01*
X256679D01*
Y548973D01*
Y548745D01*
X256450D01*
Y548516D01*
X256221D01*
Y548287D01*
X255992D01*
Y548058D01*
Y547829D01*
X255763D01*
Y547600D01*
X255534D01*
Y547371D01*
X255305D01*
Y547143D01*
Y546914D01*
Y546685D01*
X255077D01*
Y546456D01*
X254848D01*
Y546227D01*
X254619D01*
Y545998D01*
Y545770D01*
X254390D01*
Y545541D01*
Y545312D01*
X254161D01*
Y545083D01*
Y544854D01*
X253932D01*
Y544625D01*
X253703D01*
Y544396D01*
Y544168D01*
Y543939D01*
X253475D01*
Y543710D01*
Y543481D01*
X253246D01*
Y543252D01*
X253017D01*
Y543023D01*
Y542794D01*
X252788D01*
Y542566D01*
Y542337D01*
X253017D01*
Y542108D01*
X252559D01*
Y541879D01*
Y541650D01*
X252330D01*
Y541421D01*
Y541193D01*
X252102D01*
Y540964D01*
Y540735D01*
Y540506D01*
X251873D01*
Y540277D01*
Y540048D01*
X252330D01*
Y539819D01*
X251644D01*
Y539591D01*
Y539362D01*
X251415D01*
Y539133D01*
Y538904D01*
Y538675D01*
X251186D01*
Y538446D01*
Y538218D01*
X251415D01*
Y537989D01*
X251186D01*
Y537760D01*
Y537531D01*
X250957D01*
Y537302D01*
Y537073D01*
X250728D01*
Y536844D01*
Y536616D01*
Y536387D01*
X250500D01*
Y536158D01*
Y535929D01*
Y535700D01*
Y535471D01*
Y535243D01*
X250271D01*
Y535014D01*
Y534785D01*
Y534556D01*
Y534327D01*
Y534098D01*
Y533869D01*
X250042D01*
Y533641D01*
Y533412D01*
Y533183D01*
Y532954D01*
X249813D01*
Y532725D01*
Y532496D01*
Y532267D01*
Y532039D01*
Y531810D01*
Y531581D01*
Y531352D01*
X249584D01*
Y531123D01*
Y530894D01*
Y530666D01*
Y530437D01*
Y530208D01*
Y529979D01*
Y529750D01*
Y529521D01*
Y529292D01*
Y529064D01*
Y528835D01*
Y528606D01*
Y528377D01*
Y528148D01*
Y527919D01*
Y527691D01*
Y527462D01*
Y527233D01*
Y527004D01*
Y526775D01*
Y526546D01*
Y526317D01*
Y526089D01*
Y525860D01*
Y525631D01*
Y525402D01*
Y525173D01*
Y524944D01*
Y524715D01*
Y524487D01*
Y524258D01*
Y524029D01*
Y523800D01*
Y523571D01*
X249813D01*
Y523342D01*
Y523114D01*
Y522885D01*
Y522656D01*
Y522427D01*
Y522198D01*
Y521969D01*
X250042D01*
Y521740D01*
Y521512D01*
Y521283D01*
Y521054D01*
X250271D01*
Y520825D01*
Y520596D01*
Y520367D01*
Y520139D01*
Y519910D01*
Y519681D01*
X250500D01*
Y519452D01*
Y519223D01*
Y518994D01*
Y518765D01*
Y518537D01*
X250728D01*
Y518308D01*
Y518079D01*
Y517850D01*
X250957D01*
Y517621D01*
Y517392D01*
X251186D01*
Y517164D01*
Y516935D01*
X251415D01*
Y516706D01*
X251186D01*
Y516477D01*
Y516248D01*
X251415D01*
Y516019D01*
Y515790D01*
Y515562D01*
X251644D01*
Y515333D01*
Y515104D01*
X252102D01*
Y514875D01*
X251873D01*
Y514646D01*
Y514417D01*
X252102D01*
Y514189D01*
Y513960D01*
Y513731D01*
X252330D01*
Y513502D01*
Y513273D01*
X252559D01*
Y513044D01*
Y512816D01*
X253017D01*
Y512587D01*
X252788D01*
Y512358D01*
Y512129D01*
X253017D01*
Y511900D01*
Y511671D01*
X253246D01*
Y511442D01*
X253475D01*
Y511213D01*
Y510985D01*
X253703D01*
Y510756D01*
Y510527D01*
Y510298D01*
X253932D01*
Y510069D01*
X254161D01*
Y509840D01*
Y509612D01*
X254390D01*
Y509383D01*
Y509154D01*
X254619D01*
Y508925D01*
Y508696D01*
X254848D01*
Y508467D01*
X255077D01*
Y508238D01*
X255305D01*
Y508010D01*
Y507781D01*
Y507552D01*
X255534D01*
Y507323D01*
X255763D01*
Y507094D01*
X255992D01*
Y506865D01*
Y506637D01*
X256221D01*
Y506408D01*
X256450D01*
Y506179D01*
X256679D01*
Y505950D01*
Y505721D01*
X256907D01*
Y505492D01*
X257136D01*
Y505263D01*
Y505035D01*
X257365D01*
Y504806D01*
X257594D01*
Y504577D01*
X257823D01*
Y504348D01*
X258052D01*
Y504119D01*
X258281D01*
Y503890D01*
X258509D01*
Y503662D01*
Y503433D01*
X258738D01*
Y503204D01*
X258967D01*
Y502975D01*
X259196D01*
Y502746D01*
X259425D01*
Y502517D01*
X259653D01*
Y502289D01*
X259882D01*
Y502060D01*
X260111D01*
Y501831D01*
X260340D01*
Y501602D01*
X260569D01*
Y501373D01*
X260798D01*
Y501144D01*
X261027D01*
Y500915D01*
X261255D01*
Y500687D01*
X261484D01*
Y500458D01*
X261713D01*
Y500229D01*
X261942D01*
Y500000D01*
X262400D01*
Y499771D01*
X262629D01*
Y499542D01*
X262857D01*
Y499314D01*
X263086D01*
Y499085D01*
X263315D01*
Y498856D01*
X263544D01*
Y498627D01*
X264002D01*
Y498398D01*
X264230D01*
Y498169D01*
X264459D01*
Y497940D01*
X264917D01*
Y497711D01*
X265375D01*
Y497483D01*
X265604D01*
Y497254D01*
X265832D01*
Y497025D01*
X266290D01*
Y496796D01*
X266748D01*
Y496567D01*
X266977D01*
Y496338D01*
X267206D01*
Y496110D01*
X267663D01*
Y495881D01*
X268121D01*
Y495652D01*
X268579D01*
Y495423D01*
X268807D01*
Y495194D01*
X269494D01*
Y494965D01*
X269952D01*
Y494737D01*
X270180D01*
Y494508D01*
X270638D01*
Y494279D01*
X271096D01*
Y494508D01*
X271325D01*
Y494279D01*
Y494050D01*
X271782D01*
Y493821D01*
X272240D01*
Y493592D01*
X272927D01*
Y493363D01*
X273384D01*
Y493592D01*
X273613D01*
Y493363D01*
Y493135D01*
X274071D01*
Y492906D01*
X274757D01*
Y492677D01*
X275215D01*
Y492906D01*
X275444D01*
Y492677D01*
X275673D01*
Y492448D01*
X276359D01*
Y492219D01*
X277046D01*
Y491990D01*
X277961D01*
Y491762D01*
X279563D01*
Y491533D01*
X280479D01*
Y491304D01*
X282081D01*
Y491075D01*
X289861D01*
Y491304D01*
X291463D01*
Y491533D01*
X292379D01*
Y491762D01*
X293981D01*
Y491990D01*
X294896D01*
Y492219D01*
X295583D01*
Y492448D01*
X296269D01*
Y492677D01*
X296498D01*
Y492906D01*
X296727D01*
Y492677D01*
X297185D01*
Y492906D01*
X297871D01*
Y493135D01*
X298329D01*
Y493363D01*
Y493592D01*
Y493821D01*
X298558D01*
Y493592D01*
Y493363D01*
X299015D01*
Y493592D01*
X299702D01*
Y493821D01*
X300159D01*
Y494050D01*
X300617D01*
Y494279D01*
Y494508D01*
X300846D01*
Y494279D01*
X301304D01*
Y494508D01*
X301761D01*
Y494737D01*
X301990D01*
Y494965D01*
X302448D01*
Y495194D01*
X303134D01*
Y495423D01*
X303363D01*
Y495652D01*
X303821D01*
Y495881D01*
X304279D01*
Y496110D01*
X304736D01*
Y496338D01*
X304965D01*
Y496567D01*
X305194D01*
Y496796D01*
X305652D01*
Y497025D01*
X306110D01*
Y497254D01*
X306338D01*
Y497483D01*
X306567D01*
Y497711D01*
X307025D01*
Y497940D01*
X307254D01*
Y498169D01*
X307712D01*
Y498398D01*
X307940D01*
Y498627D01*
X308169D01*
Y498856D01*
X308398D01*
Y499085D01*
X308856D01*
Y499314D01*
X309085D01*
Y499542D01*
X309314D01*
Y499771D01*
X309542D01*
Y500000D01*
X310000D01*
Y500229D01*
X310229D01*
Y500458D01*
X310458D01*
Y500687D01*
X310686D01*
Y500915D01*
X310915D01*
Y501144D01*
X311144D01*
Y501373D01*
X311373D01*
Y501602D01*
X311602D01*
Y501831D01*
X311831D01*
Y502060D01*
X312288D01*
Y502289D01*
Y502517D01*
X312517D01*
Y502746D01*
X312746D01*
Y502975D01*
X312975D01*
Y503204D01*
X313204D01*
Y503433D01*
X313433D01*
Y503662D01*
Y503890D01*
X313661D01*
Y504119D01*
X313890D01*
Y504348D01*
X314119D01*
Y504577D01*
X314348D01*
Y504806D01*
Y505035D01*
X314806D01*
Y505263D01*
Y505492D01*
X315035D01*
Y505721D01*
X315264D01*
Y505950D01*
Y506179D01*
X315492D01*
Y506408D01*
X315721D01*
Y506637D01*
X315950D01*
Y506865D01*
Y507094D01*
X316179D01*
Y507323D01*
X316408D01*
Y507552D01*
X316637D01*
Y507781D01*
Y508010D01*
Y508238D01*
X316865D01*
Y508467D01*
X317094D01*
Y508696D01*
X316637D01*
Y508925D01*
X317323D01*
Y509154D01*
X317552D01*
Y509383D01*
Y509612D01*
X317781D01*
Y509840D01*
Y510069D01*
X318010D01*
Y510298D01*
X318239D01*
Y510527D01*
Y510756D01*
Y510985D01*
X318467D01*
Y511213D01*
Y511442D01*
X318696D01*
Y511671D01*
X318925D01*
Y511900D01*
Y512129D01*
Y512358D01*
X319154D01*
Y512587D01*
X318925D01*
Y512816D01*
X319383D01*
Y513044D01*
Y513273D01*
X319612D01*
Y513502D01*
Y513731D01*
X319840D01*
Y513960D01*
Y514189D01*
Y514417D01*
X320069D01*
Y514646D01*
Y514875D01*
Y515104D01*
X320298D01*
Y515333D01*
Y515562D01*
X320527D01*
Y515790D01*
Y516019D01*
Y516248D01*
X320756D01*
Y516477D01*
Y516706D01*
X320527D01*
Y516935D01*
X320756D01*
Y517164D01*
Y517392D01*
X320985D01*
Y517621D01*
Y517850D01*
X321213D01*
Y518079D01*
Y518308D01*
Y518537D01*
X321442D01*
Y518765D01*
Y518994D01*
Y519223D01*
Y519452D01*
Y519681D01*
X321671D01*
Y519910D01*
Y520139D01*
Y520367D01*
Y520596D01*
Y520825D01*
Y521054D01*
X321900D01*
Y521283D01*
Y521512D01*
Y521740D01*
Y521969D01*
X322129D01*
Y522198D01*
Y522427D01*
Y522656D01*
Y522885D01*
Y523114D01*
Y523342D01*
Y523571D01*
X322358D01*
Y523800D01*
Y524029D01*
Y524258D01*
Y524487D01*
Y524715D01*
Y524944D01*
Y525173D01*
Y525402D01*
Y525631D01*
Y525860D01*
Y526089D01*
Y526317D01*
Y526546D01*
Y526775D01*
Y527004D01*
Y527233D01*
Y527462D01*
Y527691D01*
Y527919D01*
Y528148D01*
Y528377D01*
Y528606D01*
Y528835D01*
Y529064D01*
Y529292D01*
Y529521D01*
Y529750D01*
Y529979D01*
Y530208D01*
Y530437D01*
Y530666D01*
Y530894D01*
Y531123D01*
Y531352D01*
X322129D01*
Y531581D01*
Y531810D01*
Y532039D01*
Y532267D01*
Y532496D01*
Y532725D01*
Y532954D01*
X321900D01*
Y533183D01*
Y533412D01*
Y533641D01*
Y533869D01*
X321671D01*
Y534098D01*
Y534327D01*
Y534556D01*
Y534785D01*
Y535014D01*
Y535243D01*
X321442D01*
Y535471D01*
Y535700D01*
Y535929D01*
Y536158D01*
Y536387D01*
X321213D01*
Y536616D01*
Y536844D01*
Y537073D01*
X320985D01*
Y537302D01*
Y537531D01*
X320756D01*
Y537760D01*
Y537989D01*
X320527D01*
Y538218D01*
X320756D01*
Y538446D01*
Y538675D01*
X320527D01*
Y538904D01*
Y539133D01*
Y539362D01*
X320298D01*
Y539591D01*
Y539819D01*
X320069D01*
Y540048D01*
Y540277D01*
Y540506D01*
X319840D01*
Y540735D01*
Y540964D01*
Y541193D01*
X319612D01*
Y541421D01*
Y541650D01*
X319383D01*
Y541879D01*
Y542108D01*
X318925D01*
Y542337D01*
X319154D01*
Y542566D01*
X318925D01*
Y542794D01*
Y543023D01*
Y543252D01*
X318696D01*
Y543481D01*
X318467D01*
Y543710D01*
Y543939D01*
X318239D01*
Y544168D01*
Y544396D01*
Y544625D01*
X318010D01*
Y544854D01*
X317781D01*
Y545083D01*
Y545312D01*
X317552D01*
Y545541D01*
Y545770D01*
X317323D01*
Y545998D01*
X316865D01*
Y546227D01*
X317094D01*
Y546456D01*
X316865D01*
Y546685D01*
X316408D01*
Y546914D01*
X316637D01*
Y547143D01*
X316408D01*
Y547371D01*
Y547600D01*
X316179D01*
Y547829D01*
X315950D01*
Y548058D01*
Y548287D01*
X315721D01*
Y548516D01*
X315492D01*
Y548745D01*
X315264D01*
Y548973D01*
Y549202D01*
X315035D01*
Y549431D01*
X314806D01*
Y549660D01*
X314577D01*
Y549889D01*
X314348D01*
Y550118D01*
X314119D01*
Y550346D01*
Y550575D01*
X313890D01*
Y550804D01*
X313661D01*
Y551033D01*
X313433D01*
Y551262D01*
Y551491D01*
X313204D01*
Y551720D01*
X312975D01*
Y551948D01*
X312746D01*
Y552177D01*
X312517D01*
Y552406D01*
X312288D01*
Y552635D01*
X312060D01*
Y552864D01*
X311831D01*
Y553093D01*
X311602D01*
Y553321D01*
X311373D01*
Y553550D01*
X311144D01*
Y553779D01*
X310915D01*
Y554008D01*
X310686D01*
Y554237D01*
X310458D01*
Y554466D01*
X310229D01*
Y554695D01*
X310000D01*
Y554466D01*
X309771D01*
Y554695D01*
Y554923D01*
X309542D01*
Y555152D01*
X309314D01*
Y555381D01*
X309085D01*
Y555610D01*
X308856D01*
Y555839D01*
X308627D01*
Y555610D01*
X308398D01*
Y555839D01*
Y556068D01*
X308169D01*
Y556297D01*
X307940D01*
Y556525D01*
X307712D01*
Y556754D01*
X307254D01*
Y556983D01*
X307025D01*
Y557212D01*
X306567D01*
Y557441D01*
X306338D01*
Y557670D01*
X306110D01*
Y557898D01*
X305652D01*
Y558127D01*
X305194D01*
Y558356D01*
X304965D01*
Y558585D01*
X304736D01*
Y558814D01*
X304279D01*
Y559043D01*
X303821D01*
Y559272D01*
X303363D01*
Y559500D01*
X303134D01*
Y559729D01*
X302448D01*
Y559958D01*
X301990D01*
Y560187D01*
X301761D01*
Y560416D01*
X301304D01*
Y560645D01*
X300846D01*
Y560416D01*
X300617D01*
Y560645D01*
Y560873D01*
X300159D01*
Y561102D01*
X299702D01*
Y561331D01*
X299244D01*
Y561102D01*
X299015D01*
Y561331D01*
Y561560D01*
X298329D01*
Y561789D01*
X297871D01*
Y562018D01*
X297185D01*
Y562247D01*
X296727D01*
Y562018D01*
X296498D01*
Y562247D01*
X296269D01*
Y562475D01*
X295583D01*
Y562704D01*
X294896D01*
Y562933D01*
X293752D01*
Y563162D01*
X292379D01*
Y563391D01*
X291463D01*
Y563620D01*
X289861D01*
Y563848D01*
D02*
G37*
%LPD*%
G36*
X281165Y555839D02*
X281394D01*
Y555610D01*
X282767D01*
Y555839D01*
X289175D01*
Y555610D01*
X290548D01*
Y555839D01*
X290777D01*
Y555610D01*
X291463D01*
Y555381D01*
X292379D01*
Y555152D01*
X293065D01*
Y554923D01*
X293752D01*
Y555152D01*
X293981D01*
Y554923D01*
Y554695D01*
X294896D01*
Y554466D01*
X295354D01*
Y554237D01*
X296040D01*
Y554008D01*
X296498D01*
Y554237D01*
X296727D01*
Y554008D01*
X296956D01*
Y553779D01*
X297413D01*
Y553550D01*
X297642D01*
Y553321D01*
X298100D01*
Y553550D01*
X298329D01*
Y553321D01*
Y553093D01*
X298786D01*
Y552864D01*
X299244D01*
Y552635D01*
X299702D01*
Y552406D01*
X299931D01*
Y552635D01*
X300159D01*
Y552406D01*
Y552177D01*
X300388D01*
Y552406D01*
X300617D01*
Y552177D01*
Y551948D01*
X300846D01*
Y551720D01*
X301304D01*
Y551491D01*
X301761D01*
Y551262D01*
X301990D01*
Y551033D01*
X302219D01*
Y550804D01*
X302677D01*
Y550575D01*
X302906D01*
Y550346D01*
X303134D01*
Y550118D01*
X303592D01*
Y549889D01*
X303821D01*
Y549660D01*
X304050D01*
Y549431D01*
X304279D01*
Y549202D01*
X304736D01*
Y548973D01*
Y548745D01*
X305194D01*
Y548516D01*
X305423D01*
Y548287D01*
X305652D01*
Y548058D01*
X305881D01*
Y547829D01*
X306110D01*
Y547600D01*
X306338D01*
Y547371D01*
X306567D01*
Y547143D01*
X306796D01*
Y546914D01*
X307025D01*
Y546685D01*
X307254D01*
Y546456D01*
Y546227D01*
X307712D01*
Y545998D01*
Y545770D01*
X307940D01*
Y545541D01*
X308169D01*
Y545312D01*
X308398D01*
Y545083D01*
X308627D01*
Y544854D01*
Y544625D01*
X308856D01*
Y544396D01*
X309085D01*
Y544168D01*
X309314D01*
Y543939D01*
Y543710D01*
X309542D01*
Y543481D01*
X309771D01*
Y543252D01*
X310000D01*
Y543023D01*
Y542794D01*
Y542566D01*
X310229D01*
Y542337D01*
X310458D01*
Y542108D01*
Y541879D01*
X310686D01*
Y541650D01*
X311144D01*
Y541421D01*
X310915D01*
Y541193D01*
Y540964D01*
X311144D01*
Y540735D01*
X311373D01*
Y540506D01*
Y540277D01*
X311602D01*
Y540048D01*
Y539819D01*
X312060D01*
Y539591D01*
X311831D01*
Y539362D01*
Y539133D01*
X312060D01*
Y538904D01*
X312288D01*
Y538675D01*
Y538446D01*
X312517D01*
Y538218D01*
X312746D01*
Y537989D01*
X312517D01*
Y537760D01*
Y537531D01*
X312746D01*
Y537302D01*
Y537073D01*
X312975D01*
Y536844D01*
Y536616D01*
Y536387D01*
X313433D01*
Y536158D01*
X313204D01*
Y535929D01*
Y535700D01*
Y535471D01*
X313661D01*
Y535243D01*
X313433D01*
Y535014D01*
Y534785D01*
Y534556D01*
X313661D01*
Y534327D01*
Y534098D01*
Y533869D01*
Y533641D01*
X313890D01*
Y533412D01*
Y533183D01*
Y532954D01*
Y532725D01*
X314119D01*
Y532496D01*
X314577D01*
Y532267D01*
X314348D01*
Y532039D01*
X314119D01*
Y531810D01*
Y531581D01*
Y531352D01*
Y531123D01*
Y530894D01*
Y530666D01*
X314348D01*
Y530437D01*
Y530208D01*
Y529979D01*
Y529750D01*
Y529521D01*
Y529292D01*
Y529064D01*
Y528835D01*
Y528606D01*
Y528377D01*
Y528148D01*
Y527919D01*
Y527691D01*
Y527462D01*
Y527233D01*
Y527004D01*
Y526775D01*
Y526546D01*
Y526317D01*
Y526089D01*
Y525860D01*
Y525631D01*
Y525402D01*
Y525173D01*
Y524944D01*
Y524715D01*
Y524487D01*
Y524258D01*
X314119D01*
Y524029D01*
Y523800D01*
Y523571D01*
Y523342D01*
Y523114D01*
Y522885D01*
X314348D01*
Y522656D01*
Y522427D01*
X314119D01*
Y522198D01*
X313890D01*
Y521969D01*
Y521740D01*
Y521512D01*
Y521283D01*
X313661D01*
Y521054D01*
Y520825D01*
Y520596D01*
Y520367D01*
X313433D01*
Y520139D01*
Y519910D01*
Y519681D01*
X313661D01*
Y519452D01*
X313204D01*
Y519223D01*
Y518994D01*
Y518765D01*
Y518537D01*
X312975D01*
Y518308D01*
Y518079D01*
Y517850D01*
X312746D01*
Y517621D01*
Y517392D01*
X312517D01*
Y517164D01*
Y516935D01*
X312746D01*
Y516706D01*
X312517D01*
Y516477D01*
X312288D01*
Y516248D01*
Y516019D01*
X312060D01*
Y515790D01*
Y515562D01*
X311831D01*
Y515333D01*
X312060D01*
Y515104D01*
X311602D01*
Y514875D01*
Y514646D01*
X311373D01*
Y514417D01*
Y514189D01*
X311144D01*
Y513960D01*
X310915D01*
Y513731D01*
Y513502D01*
X311144D01*
Y513273D01*
X310686D01*
Y513044D01*
X310458D01*
Y512816D01*
Y512587D01*
X310229D01*
Y512358D01*
X310000D01*
Y512129D01*
Y511900D01*
X310229D01*
Y511671D01*
X309771D01*
Y511442D01*
X309542D01*
Y511213D01*
X309314D01*
Y510985D01*
Y510756D01*
X309085D01*
Y510527D01*
X308856D01*
Y510298D01*
X308627D01*
Y510069D01*
Y509840D01*
X308398D01*
Y509612D01*
X308169D01*
Y509383D01*
X307940D01*
Y509154D01*
X307712D01*
Y508925D01*
Y508696D01*
X307254D01*
Y508467D01*
Y508238D01*
X307025D01*
Y508010D01*
X306796D01*
Y507781D01*
X306567D01*
Y507552D01*
X306338D01*
Y507323D01*
X306110D01*
Y507094D01*
X305881D01*
Y506865D01*
X305652D01*
Y506637D01*
X305423D01*
Y506408D01*
X305194D01*
Y506179D01*
X304736D01*
Y505950D01*
Y505721D01*
X304279D01*
Y505492D01*
X304050D01*
Y505263D01*
X303821D01*
Y505035D01*
X303592D01*
Y504806D01*
X303134D01*
Y504577D01*
X302906D01*
Y504348D01*
X302677D01*
Y504119D01*
X302219D01*
Y503890D01*
X301990D01*
Y503662D01*
X301761D01*
Y503433D01*
X301304D01*
Y503204D01*
X300846D01*
Y502975D01*
X300617D01*
Y502746D01*
Y502517D01*
X300388D01*
Y502746D01*
X300159D01*
Y502517D01*
Y502289D01*
X299931D01*
Y502517D01*
X299702D01*
Y502289D01*
X299244D01*
Y502060D01*
X298786D01*
Y501831D01*
X298329D01*
Y501602D01*
Y501373D01*
X298100D01*
Y501602D01*
X297871D01*
Y501373D01*
X297413D01*
Y501144D01*
X296956D01*
Y500915D01*
X296727D01*
Y500687D01*
X296498D01*
Y500915D01*
X296040D01*
Y500687D01*
X295583D01*
Y500458D01*
X294896D01*
Y500229D01*
X293981D01*
Y500000D01*
X293065D01*
Y499771D01*
X292379D01*
Y499542D01*
X291463D01*
Y499314D01*
X291006D01*
Y499085D01*
X290777D01*
Y499314D01*
X289404D01*
Y499085D01*
X282538D01*
Y499314D01*
X281165D01*
Y499085D01*
X280936D01*
Y499314D01*
X280479D01*
Y499542D01*
X279563D01*
Y499771D01*
X278877D01*
Y500000D01*
X277961D01*
Y500229D01*
X277046D01*
Y500458D01*
X276359D01*
Y500687D01*
X275902D01*
Y500915D01*
X275444D01*
Y500687D01*
X275215D01*
Y500915D01*
X274986D01*
Y501144D01*
X274529D01*
Y501373D01*
X274071D01*
Y501602D01*
X273613D01*
Y501831D01*
X273155D01*
Y502060D01*
X272698D01*
Y502289D01*
X272240D01*
Y502517D01*
X272011D01*
Y502289D01*
X271782D01*
Y502517D01*
Y502746D01*
X271325D01*
Y502975D01*
X271096D01*
Y503204D01*
X270638D01*
Y503433D01*
X270409D01*
Y503204D01*
X270180D01*
Y503433D01*
Y503662D01*
X269952D01*
Y503890D01*
X269723D01*
Y504119D01*
X269265D01*
Y504348D01*
X269036D01*
Y504577D01*
X268807D01*
Y504806D01*
X268350D01*
Y505035D01*
X268121D01*
Y505263D01*
X267892D01*
Y505492D01*
X267663D01*
Y505721D01*
X267206D01*
Y505950D01*
Y506179D01*
X266748D01*
Y506408D01*
X266519D01*
Y506637D01*
X266290D01*
Y506865D01*
X266061D01*
Y507094D01*
X265832D01*
Y507323D01*
X265604D01*
Y507552D01*
X265375D01*
Y507781D01*
X265146D01*
Y508010D01*
X264917D01*
Y508238D01*
X264688D01*
Y508467D01*
Y508696D01*
X264230D01*
Y508925D01*
Y509154D01*
X264002D01*
Y509383D01*
X263773D01*
Y509612D01*
X263544D01*
Y509840D01*
X263315D01*
Y510069D01*
Y510298D01*
X263086D01*
Y510527D01*
X262857D01*
Y510756D01*
X262629D01*
Y510985D01*
Y511213D01*
X262400D01*
Y511442D01*
X262171D01*
Y511671D01*
X261713D01*
Y511900D01*
X261942D01*
Y512129D01*
Y512358D01*
X261713D01*
Y512587D01*
X261484D01*
Y512816D01*
X261255D01*
Y513044D01*
Y513273D01*
X260798D01*
Y513502D01*
X261027D01*
Y513731D01*
Y513960D01*
X260798D01*
Y514189D01*
X260569D01*
Y514417D01*
Y514646D01*
X260340D01*
Y514875D01*
Y515104D01*
X260111D01*
Y515333D01*
Y515562D01*
X259882D01*
Y515790D01*
Y516019D01*
X259653D01*
Y516248D01*
Y516477D01*
X259425D01*
Y516706D01*
X259196D01*
Y516935D01*
X259425D01*
Y517164D01*
Y517392D01*
X259196D01*
Y517621D01*
Y517850D01*
X258967D01*
Y518079D01*
Y518308D01*
Y518537D01*
X258738D01*
Y518765D01*
Y518994D01*
Y519223D01*
Y519452D01*
X258509D01*
Y519681D01*
Y519910D01*
Y520139D01*
Y520367D01*
X258281D01*
Y520596D01*
Y520825D01*
Y521054D01*
X258052D01*
Y521283D01*
Y521512D01*
Y521740D01*
Y521969D01*
X257823D01*
Y522198D01*
Y522427D01*
X257594D01*
Y522656D01*
Y522885D01*
X257823D01*
Y523114D01*
Y523342D01*
Y523571D01*
Y523800D01*
Y524029D01*
X257594D01*
Y524258D01*
Y524487D01*
Y524715D01*
Y524944D01*
Y525173D01*
Y525402D01*
Y525631D01*
Y525860D01*
Y526089D01*
Y526317D01*
Y526546D01*
Y526775D01*
Y527004D01*
Y527233D01*
Y527462D01*
Y527691D01*
Y527919D01*
Y528148D01*
Y528377D01*
Y528606D01*
Y528835D01*
Y529064D01*
Y529292D01*
Y529521D01*
Y529750D01*
Y529979D01*
Y530208D01*
Y530437D01*
Y530666D01*
Y530894D01*
X257823D01*
Y531123D01*
Y531352D01*
Y531581D01*
Y531810D01*
Y532039D01*
X257594D01*
Y532267D01*
Y532496D01*
X257823D01*
Y532725D01*
Y532954D01*
X258052D01*
Y533183D01*
Y533412D01*
Y533641D01*
X258281D01*
Y533869D01*
Y534098D01*
Y534327D01*
Y534556D01*
X258509D01*
Y534785D01*
Y535014D01*
Y535243D01*
Y535471D01*
X258738D01*
Y535700D01*
Y535929D01*
Y536158D01*
Y536387D01*
X258967D01*
Y536616D01*
Y536844D01*
Y537073D01*
X259196D01*
Y537302D01*
Y537531D01*
X259425D01*
Y537760D01*
Y537989D01*
X259196D01*
Y538218D01*
X259425D01*
Y538446D01*
X259653D01*
Y538675D01*
Y538904D01*
X259882D01*
Y539133D01*
Y539362D01*
X260111D01*
Y539591D01*
X259882D01*
Y539819D01*
X260340D01*
Y540048D01*
Y540277D01*
X260569D01*
Y540506D01*
Y540735D01*
X260798D01*
Y540964D01*
X261027D01*
Y541193D01*
Y541421D01*
Y541650D01*
X261255D01*
Y541879D01*
Y542108D01*
X261484D01*
Y542337D01*
X261713D01*
Y542566D01*
X261942D01*
Y542794D01*
Y543023D01*
X261713D01*
Y543252D01*
X262171D01*
Y543481D01*
X262400D01*
Y543710D01*
X262629D01*
Y543939D01*
Y544168D01*
X262857D01*
Y544396D01*
X263086D01*
Y544625D01*
X263315D01*
Y544854D01*
Y545083D01*
X263544D01*
Y545312D01*
X263773D01*
Y545541D01*
X264002D01*
Y545770D01*
X264230D01*
Y545998D01*
Y546227D01*
X264688D01*
Y546456D01*
Y546685D01*
X264917D01*
Y546914D01*
X265146D01*
Y547143D01*
X265375D01*
Y547371D01*
X265604D01*
Y547600D01*
X265832D01*
Y547829D01*
X266061D01*
Y548058D01*
X266290D01*
Y548287D01*
X266519D01*
Y548516D01*
X266748D01*
Y548745D01*
X267206D01*
Y548973D01*
Y549202D01*
X267663D01*
Y549431D01*
X267892D01*
Y549660D01*
X268121D01*
Y549889D01*
X268350D01*
Y550118D01*
X268807D01*
Y550346D01*
X269036D01*
Y550575D01*
X269265D01*
Y550804D01*
X269723D01*
Y551033D01*
X269952D01*
Y551262D01*
X270180D01*
Y551491D01*
X270638D01*
Y551720D01*
X271096D01*
Y551948D01*
X271325D01*
Y552177D01*
Y552406D01*
X271554D01*
Y552177D01*
X271782D01*
Y552406D01*
Y552635D01*
X272011D01*
Y552406D01*
X272240D01*
Y552635D01*
X272698D01*
Y552864D01*
X273155D01*
Y553093D01*
X273613D01*
Y553321D01*
Y553550D01*
X273842D01*
Y553321D01*
X274300D01*
Y553550D01*
X274529D01*
Y553779D01*
X274986D01*
Y554008D01*
X275215D01*
Y554237D01*
X275444D01*
Y554008D01*
X275902D01*
Y554237D01*
X276359D01*
Y554466D01*
X277046D01*
Y554695D01*
X277961D01*
Y554923D01*
Y555152D01*
X278190D01*
Y554923D01*
X278877D01*
Y555152D01*
X279563D01*
Y555381D01*
X280479D01*
Y555610D01*
X280936D01*
Y555839D01*
Y556068D01*
X281165D01*
Y555839D01*
D02*
G37*
%LPC*%
G36*
X286200Y545770D02*
X285742D01*
Y545541D01*
X285513D01*
Y545312D01*
X285284D01*
Y545083D01*
X285056D01*
Y544854D01*
X284827D01*
Y544625D01*
X284369D01*
Y544396D01*
Y544168D01*
X284140D01*
Y543939D01*
X283911D01*
Y543710D01*
X283682D01*
Y543481D01*
X283454D01*
Y543252D01*
X283225D01*
Y543023D01*
X282996D01*
Y542794D01*
X282767D01*
Y542566D01*
X282538D01*
Y542337D01*
X282309D01*
Y542108D01*
X281852D01*
Y541879D01*
Y541650D01*
X281623D01*
Y541421D01*
X281394D01*
Y541193D01*
X281165D01*
Y540964D01*
X280936D01*
Y540735D01*
X280707D01*
Y540506D01*
X280250D01*
Y540277D01*
Y540048D01*
X280021D01*
Y539819D01*
X279792D01*
Y539591D01*
X279563D01*
Y539362D01*
X279334D01*
Y539133D01*
X279106D01*
Y538904D01*
X278648D01*
Y538675D01*
Y538446D01*
X278419D01*
Y538218D01*
X278190D01*
Y537989D01*
X277961D01*
Y537760D01*
X277733D01*
Y537531D01*
X277504D01*
Y537302D01*
X277275D01*
Y537073D01*
X277046D01*
Y536844D01*
X276817D01*
Y536616D01*
X276588D01*
Y536387D01*
X276131D01*
Y536158D01*
Y535929D01*
X275902D01*
Y535700D01*
X275673D01*
Y535471D01*
X275444D01*
Y535243D01*
X275215D01*
Y535014D01*
X274986D01*
Y534785D01*
X274757D01*
Y534556D01*
X274529D01*
Y534327D01*
X274300D01*
Y534098D01*
X274071D01*
Y533869D01*
Y533641D01*
X273842D01*
Y533412D01*
X273613D01*
Y533183D01*
X273384D01*
Y532954D01*
Y532725D01*
X273155D01*
Y532496D01*
Y532267D01*
X272927D01*
Y532039D01*
X272698D01*
Y531810D01*
X272469D01*
Y531581D01*
Y531352D01*
Y531123D01*
X272240D01*
Y530894D01*
Y530666D01*
X272011D01*
Y530437D01*
X271782D01*
Y530208D01*
Y529979D01*
X272240D01*
Y529750D01*
X271554D01*
Y529521D01*
Y529292D01*
X271782D01*
Y529064D01*
X271554D01*
Y528835D01*
X271325D01*
Y528606D01*
Y528377D01*
X271096D01*
Y528148D01*
Y527919D01*
Y527691D01*
X270867D01*
Y527462D01*
Y527233D01*
Y527004D01*
Y526775D01*
Y526546D01*
X271096D01*
Y526317D01*
X270867D01*
Y526089D01*
Y525860D01*
Y525631D01*
Y525402D01*
X270638D01*
Y525173D01*
Y524944D01*
Y524715D01*
Y524487D01*
Y524258D01*
Y524029D01*
Y523800D01*
Y523571D01*
Y523342D01*
X270867D01*
Y523114D01*
Y522885D01*
Y522656D01*
Y522427D01*
X271096D01*
Y522198D01*
X270867D01*
Y521969D01*
Y521740D01*
Y521512D01*
Y521283D01*
X271096D01*
Y521054D01*
Y520825D01*
Y520596D01*
X271554D01*
Y520367D01*
X271325D01*
Y520139D01*
Y519910D01*
Y519681D01*
X271554D01*
Y519452D01*
Y519223D01*
Y518994D01*
X271782D01*
Y518765D01*
Y518537D01*
X272011D01*
Y518308D01*
Y518079D01*
X272240D01*
Y517850D01*
Y517621D01*
X272698D01*
Y517392D01*
X272469D01*
Y517164D01*
X272698D01*
Y516935D01*
Y516706D01*
X272927D01*
Y516477D01*
X273155D01*
Y516248D01*
Y516019D01*
X273384D01*
Y515790D01*
Y515562D01*
X273613D01*
Y515333D01*
X273842D01*
Y515104D01*
X274071D01*
Y514875D01*
X274300D01*
Y514646D01*
Y514417D01*
X274529D01*
Y514189D01*
X274757D01*
Y513960D01*
X274986D01*
Y513731D01*
X275215D01*
Y513502D01*
X275444D01*
Y513273D01*
X275673D01*
Y513044D01*
X276131D01*
Y512816D01*
X276359D01*
Y512587D01*
X276588D01*
Y512358D01*
X276817D01*
Y512129D01*
X277275D01*
Y511900D01*
X277504D01*
Y511671D01*
X277733D01*
Y511442D01*
X278190D01*
Y511213D01*
X278648D01*
Y510985D01*
X278877D01*
Y510756D01*
X279563D01*
Y510527D01*
X280021D01*
Y510298D01*
X280479D01*
Y510069D01*
X280936D01*
Y509840D01*
X281852D01*
Y509612D01*
X282767D01*
Y509383D01*
X283682D01*
Y509154D01*
X288260D01*
Y509383D01*
X289175D01*
Y509612D01*
X289861D01*
Y509840D01*
X291006D01*
Y510069D01*
X291463D01*
Y510298D01*
X291921D01*
Y510527D01*
X292379D01*
Y510756D01*
X293065D01*
Y510985D01*
X293294D01*
Y511213D01*
X293752D01*
Y511442D01*
X294209D01*
Y511671D01*
X294438D01*
Y511900D01*
X294667D01*
Y512129D01*
X294896D01*
Y512358D01*
X295354D01*
Y512587D01*
X295583D01*
Y512816D01*
X295811D01*
Y513044D01*
X296040D01*
Y513273D01*
Y513502D01*
X296269D01*
Y513273D01*
X296498D01*
Y513502D01*
X296727D01*
Y513731D01*
X296956D01*
Y513960D01*
X297185D01*
Y514189D01*
X297413D01*
Y514417D01*
X297642D01*
Y514646D01*
Y514875D01*
X297871D01*
Y515104D01*
X298100D01*
Y515333D01*
X298329D01*
Y515562D01*
X298558D01*
Y515790D01*
Y516019D01*
X298786D01*
Y516248D01*
Y516477D01*
X299015D01*
Y516706D01*
X299244D01*
Y516935D01*
Y517164D01*
X299473D01*
Y517392D01*
X299244D01*
Y517621D01*
X299702D01*
Y517850D01*
Y518079D01*
X299931D01*
Y518308D01*
Y518537D01*
X300159D01*
Y518765D01*
Y518994D01*
X300388D01*
Y519223D01*
Y519452D01*
Y519681D01*
Y519910D01*
X300617D01*
Y520139D01*
Y520367D01*
Y520596D01*
X300846D01*
Y520825D01*
Y521054D01*
Y521283D01*
X301075D01*
Y521512D01*
Y521740D01*
Y521969D01*
Y522198D01*
Y522427D01*
X300846D01*
Y522656D01*
X301075D01*
Y522885D01*
Y523114D01*
Y523342D01*
Y523571D01*
X301304D01*
Y523800D01*
Y524029D01*
Y524258D01*
Y524487D01*
Y524715D01*
Y524944D01*
Y525173D01*
Y525402D01*
X301075D01*
Y525631D01*
Y525860D01*
Y526089D01*
Y526317D01*
Y526546D01*
Y526775D01*
Y527004D01*
Y527233D01*
Y527462D01*
Y527691D01*
X300846D01*
Y527919D01*
Y528148D01*
Y528377D01*
X300617D01*
Y528606D01*
Y528835D01*
X300388D01*
Y529064D01*
X300159D01*
Y529292D01*
X300388D01*
Y529521D01*
Y529750D01*
X299931D01*
Y529979D01*
X300159D01*
Y530208D01*
X299931D01*
Y530437D01*
Y530666D01*
X299702D01*
Y530894D01*
Y531123D01*
X299473D01*
Y531352D01*
Y531581D01*
Y531810D01*
X299244D01*
Y532039D01*
X299015D01*
Y532267D01*
X298786D01*
Y532496D01*
Y532725D01*
X298558D01*
Y532954D01*
Y533183D01*
X298329D01*
Y533412D01*
X298100D01*
Y533641D01*
X297871D01*
Y533869D01*
X297642D01*
Y534098D01*
Y534327D01*
X297413D01*
Y534556D01*
X297185D01*
Y534785D01*
X296956D01*
Y535014D01*
X296727D01*
Y535243D01*
X296498D01*
Y535471D01*
X296269D01*
Y535700D01*
X296040D01*
Y535929D01*
X295811D01*
Y536158D01*
Y536387D01*
X295354D01*
Y536616D01*
X295125D01*
Y536844D01*
X294896D01*
Y537073D01*
X294667D01*
Y537302D01*
X294438D01*
Y537531D01*
X294209D01*
Y537760D01*
X293981D01*
Y537989D01*
X293752D01*
Y538218D01*
X293523D01*
Y538446D01*
X293294D01*
Y538675D01*
Y538904D01*
X292836D01*
Y539133D01*
X292608D01*
Y539362D01*
X292379D01*
Y539591D01*
X292150D01*
Y539819D01*
X291921D01*
Y540048D01*
X291692D01*
Y540277D01*
Y540506D01*
X291234D01*
Y540735D01*
X291006D01*
Y540964D01*
X290777D01*
Y541193D01*
X290548D01*
Y541421D01*
X290319D01*
Y541650D01*
X290090D01*
Y541879D01*
Y542108D01*
X289633D01*
Y542337D01*
X289404D01*
Y542566D01*
X289175D01*
Y542794D01*
X288946D01*
Y543023D01*
X288717D01*
Y543252D01*
X288488D01*
Y543481D01*
X288260D01*
Y543710D01*
X288031D01*
Y543939D01*
X287802D01*
Y544168D01*
X287573D01*
Y544396D01*
X287344D01*
Y544625D01*
X287115D01*
Y544854D01*
X286886D01*
Y545083D01*
X286658D01*
Y545312D01*
X286429D01*
Y545541D01*
X286200D01*
Y545770D01*
D02*
G37*
%LPD*%
G36*
Y533641D02*
X286429D01*
Y533412D01*
X286658D01*
Y533183D01*
X286886D01*
Y532954D01*
X287115D01*
Y532725D01*
X287344D01*
Y532496D01*
X287573D01*
Y532267D01*
X287802D01*
Y532039D01*
X288031D01*
Y531810D01*
X288260D01*
Y531581D01*
X288488D01*
Y531352D01*
X288717D01*
Y531123D01*
X288946D01*
Y530894D01*
X289175D01*
Y530666D01*
X289404D01*
Y530437D01*
X289633D01*
Y530208D01*
X289861D01*
Y529979D01*
X290090D01*
Y529750D01*
X290319D01*
Y529521D01*
X290548D01*
Y529292D01*
Y529064D01*
X290777D01*
Y528835D01*
X291006D01*
Y528606D01*
X291234D01*
Y528377D01*
Y528148D01*
Y527919D01*
X291463D01*
Y527691D01*
Y527462D01*
X291692D01*
Y527233D01*
Y527004D01*
Y526775D01*
X291921D01*
Y526546D01*
Y526317D01*
Y526089D01*
Y525860D01*
Y525631D01*
Y525402D01*
Y525173D01*
Y524944D01*
Y524715D01*
Y524487D01*
Y524258D01*
Y524029D01*
Y523800D01*
X291692D01*
Y523571D01*
Y523342D01*
X291463D01*
Y523114D01*
Y522885D01*
X291234D01*
Y522656D01*
Y522427D01*
Y522198D01*
X291006D01*
Y521969D01*
Y521740D01*
X290777D01*
Y521512D01*
X290548D01*
Y521283D01*
X290319D01*
Y521054D01*
X290090D01*
Y520825D01*
X289861D01*
Y520596D01*
X289633D01*
Y520367D01*
X289175D01*
Y520139D01*
X288946D01*
Y519910D01*
X288488D01*
Y519681D01*
X288260D01*
Y519452D01*
X288031D01*
Y519681D01*
X287344D01*
Y519452D01*
X284598D01*
Y519681D01*
X283911D01*
Y519452D01*
X283682D01*
Y519681D01*
X283454D01*
Y519910D01*
X282996D01*
Y520139D01*
X282767D01*
Y520367D01*
X282309D01*
Y520596D01*
X282081D01*
Y520825D01*
X281852D01*
Y521054D01*
X281623D01*
Y521283D01*
X281394D01*
Y521512D01*
X281165D01*
Y521740D01*
X280936D01*
Y521969D01*
Y522198D01*
X280707D01*
Y522427D01*
Y522656D01*
X280479D01*
Y522885D01*
Y523114D01*
X280250D01*
Y523342D01*
Y523571D01*
Y523800D01*
X279792D01*
Y524029D01*
X280021D01*
Y524258D01*
Y524487D01*
Y524715D01*
Y524944D01*
Y525173D01*
Y525402D01*
Y525631D01*
Y525860D01*
Y526089D01*
Y526317D01*
Y526546D01*
Y526775D01*
X280250D01*
Y527004D01*
Y527233D01*
Y527462D01*
X280479D01*
Y527691D01*
Y527919D01*
X280707D01*
Y528148D01*
Y528377D01*
X280479D01*
Y528606D01*
X280936D01*
Y528835D01*
X281165D01*
Y529064D01*
X281394D01*
Y529292D01*
Y529521D01*
X281623D01*
Y529750D01*
X281852D01*
Y529979D01*
X282081D01*
Y530208D01*
X282309D01*
Y530437D01*
X282538D01*
Y530666D01*
X282767D01*
Y530894D01*
X282996D01*
Y531123D01*
X283225D01*
Y531352D01*
X283454D01*
Y531581D01*
X283682D01*
Y531810D01*
X283911D01*
Y532039D01*
X284140D01*
Y532267D01*
X284369D01*
Y532496D01*
X284598D01*
Y532725D01*
X284827D01*
Y532954D01*
X285056D01*
Y533183D01*
X285284D01*
Y533412D01*
X285513D01*
Y533641D01*
X285742D01*
Y533869D01*
X286200D01*
Y533641D01*
D02*
G37*
%LPC*%
G36*
X272347Y456086D02*
X270717D01*
Y455815D01*
X269903D01*
Y455543D01*
X269631D01*
Y455272D01*
X269359D01*
Y455000D01*
X269088D01*
Y454728D01*
Y454457D01*
X268816D01*
Y454185D01*
Y453914D01*
Y453642D01*
Y453371D01*
X268545D01*
Y453099D01*
X268816D01*
Y452827D01*
Y452556D01*
Y452284D01*
Y452013D01*
X269088D01*
Y451741D01*
Y451469D01*
X269359D01*
Y451198D01*
X269631D01*
Y450926D01*
X269903D01*
Y450655D01*
X270446D01*
Y450383D01*
X272619D01*
Y450655D01*
X273162D01*
Y450926D01*
X273433D01*
Y451198D01*
X273705D01*
Y451469D01*
X273976D01*
Y451741D01*
X274248D01*
Y452013D01*
Y452284D01*
Y452556D01*
X274520D01*
Y452827D01*
Y453099D01*
Y453371D01*
Y453642D01*
X274248D01*
Y453914D01*
Y454185D01*
Y454457D01*
X273976D01*
Y454728D01*
Y455000D01*
X273705D01*
Y455272D01*
X273433D01*
Y455543D01*
X273162D01*
Y455815D01*
X272347D01*
Y456086D01*
D02*
G37*
G36*
X339700D02*
X338071D01*
Y455815D01*
X337256D01*
Y455543D01*
X336984D01*
Y455272D01*
X336713D01*
Y455000D01*
X336441D01*
Y454728D01*
Y454457D01*
X336170D01*
Y454185D01*
Y453914D01*
Y453642D01*
X335898D01*
Y453371D01*
Y453099D01*
Y452827D01*
Y452556D01*
X336170D01*
Y452284D01*
Y452013D01*
Y451741D01*
X336441D01*
Y451469D01*
X336713D01*
Y451198D01*
X337256D01*
Y451469D01*
X337528D01*
Y451741D01*
X337799D01*
Y452013D01*
X338071D01*
Y452284D01*
X338342D01*
Y452556D01*
X338614D01*
Y452827D01*
X338886D01*
Y453099D01*
X339157D01*
Y453371D01*
X339429D01*
Y453642D01*
X339700D01*
Y453914D01*
X339972D01*
Y454185D01*
X340243D01*
Y454457D01*
X340515D01*
Y454728D01*
X340787D01*
Y455000D01*
Y455272D01*
Y455543D01*
X340515D01*
Y455815D01*
X339700D01*
Y456086D01*
D02*
G37*
G36*
X306024D02*
X304394D01*
Y455815D01*
X303579D01*
Y455543D01*
X303308D01*
Y455272D01*
X303036D01*
Y455000D01*
X302765D01*
Y454728D01*
Y454457D01*
X302493D01*
Y454185D01*
Y453914D01*
Y453642D01*
X302221D01*
Y453371D01*
Y453099D01*
Y452827D01*
X302493D01*
Y452556D01*
Y452284D01*
Y452013D01*
X302765D01*
Y451741D01*
Y451469D01*
X303036D01*
Y451198D01*
X303308D01*
Y450926D01*
X303579D01*
Y450655D01*
X304123D01*
Y450383D01*
X308196D01*
Y450655D01*
Y450926D01*
Y451198D01*
Y451469D01*
Y451741D01*
Y452013D01*
Y452284D01*
Y452556D01*
Y452827D01*
Y453099D01*
Y453371D01*
Y453642D01*
X307925D01*
Y453914D01*
Y454185D01*
Y454457D01*
X307653D01*
Y454728D01*
Y455000D01*
X307381D01*
Y455272D01*
X307110D01*
Y455543D01*
X306838D01*
Y455815D01*
X306024D01*
Y456086D01*
D02*
G37*
G36*
X146901Y394318D02*
X146341D01*
Y393758D01*
X146901D01*
Y394318D01*
D02*
G37*
G36*
X132890Y392637D02*
X132330D01*
Y392077D01*
X131769D01*
Y392637D01*
X123923D01*
Y392077D01*
X122802D01*
Y391516D01*
X121121D01*
Y390956D01*
X120560D01*
Y390395D01*
X119439D01*
Y389835D01*
X118879D01*
Y389274D01*
X117758D01*
Y388714D01*
X117198D01*
Y388154D01*
X116637D01*
Y387593D01*
X116077D01*
Y387033D01*
X114956D01*
Y385912D01*
X113835D01*
Y384231D01*
X113275D01*
Y383110D01*
X112714D01*
Y381989D01*
X112154D01*
Y380868D01*
X111593D01*
Y378066D01*
X111033D01*
Y372461D01*
X111593D01*
Y370220D01*
X112154D01*
Y368538D01*
X112714D01*
Y367417D01*
X113275D01*
Y366297D01*
X113835D01*
Y364615D01*
X114396D01*
Y364055D01*
X114956D01*
Y362374D01*
X116077D01*
Y361813D01*
X116637D01*
Y361253D01*
X117198D01*
Y360132D01*
X117758D01*
Y359571D01*
X118319D01*
Y359011D01*
X118879D01*
Y358451D01*
X119439D01*
Y357890D01*
X120000D01*
Y357330D01*
X120560D01*
Y356769D01*
X121121D01*
Y356209D01*
X121681D01*
Y355648D01*
X122242D01*
Y355088D01*
X122802D01*
Y354527D01*
X123363D01*
Y353967D01*
X123923D01*
Y353407D01*
X124483D01*
Y352846D01*
X125044D01*
Y352286D01*
X126165D01*
Y351725D01*
X126725D01*
Y351165D01*
X127286D01*
Y350044D01*
X127846D01*
Y350604D01*
X128406D01*
Y350044D01*
X129527D01*
Y351165D01*
X130648D01*
Y352286D01*
X131209D01*
Y353407D01*
X131769D01*
Y352846D01*
X132330D01*
Y353407D01*
X132890D01*
Y353967D01*
X133450D01*
Y354527D01*
X134011D01*
Y355088D01*
X134571D01*
Y355648D01*
X135132D01*
Y356209D01*
X136253D01*
Y357330D01*
X137374D01*
Y358451D01*
X137934D01*
Y357890D01*
X138494D01*
Y358451D01*
X137934D01*
Y359011D01*
X138494D01*
Y359571D01*
X139055D01*
Y360132D01*
X139615D01*
Y361253D01*
X140736D01*
Y362374D01*
X141857D01*
Y364055D01*
X142417D01*
Y365176D01*
X142978D01*
Y365736D01*
X142417D01*
Y366297D01*
X143538D01*
Y367417D01*
X144099D01*
Y368538D01*
X144659D01*
Y369659D01*
X145220D01*
Y372461D01*
X145780D01*
Y378626D01*
X145220D01*
Y380308D01*
X144659D01*
Y381989D01*
X143538D01*
Y382549D01*
X144099D01*
Y383110D01*
X142978D01*
Y383670D01*
X143538D01*
Y384231D01*
X142978D01*
Y385912D01*
X141857D01*
Y387033D01*
X140736D01*
Y388154D01*
X139615D01*
Y388714D01*
X139055D01*
Y389274D01*
X138494D01*
Y389835D01*
X137934D01*
Y390395D01*
X136813D01*
Y389835D01*
X136253D01*
Y390956D01*
X135692D01*
Y391516D01*
X134011D01*
Y392077D01*
X132890D01*
Y392637D01*
D02*
G37*
G36*
X129527Y338835D02*
X128406D01*
Y338275D01*
X127846D01*
Y338835D01*
X127286D01*
Y338275D01*
X126725D01*
Y337714D01*
X126165D01*
Y337154D01*
X125044D01*
Y336594D01*
X124483D01*
Y336033D01*
X123923D01*
Y335473D01*
X123363D01*
Y334912D01*
X122802D01*
Y334352D01*
X121681D01*
Y333231D01*
X120560D01*
Y332110D01*
X119439D01*
Y330989D01*
X118319D01*
Y329868D01*
X117758D01*
Y329308D01*
X117198D01*
Y328747D01*
X116637D01*
Y328187D01*
X116077D01*
Y327066D01*
X115517D01*
Y326506D01*
X114956D01*
Y325385D01*
X113835D01*
Y323143D01*
X112714D01*
Y322583D01*
X113275D01*
Y322022D01*
X112714D01*
Y320901D01*
X112154D01*
Y319780D01*
X111593D01*
Y316978D01*
X111033D01*
Y311374D01*
X111593D01*
Y309132D01*
X112154D01*
Y307451D01*
X112714D01*
Y305209D01*
X113835D01*
Y304088D01*
X114396D01*
Y303528D01*
X114956D01*
Y302967D01*
X115517D01*
Y302407D01*
X116077D01*
Y301846D01*
X116637D01*
Y301286D01*
X117198D01*
Y300725D01*
X117758D01*
Y300165D01*
X118879D01*
Y299605D01*
X119439D01*
Y299044D01*
X120000D01*
Y298484D01*
X121121D01*
Y299044D01*
X121681D01*
Y297923D01*
X122242D01*
Y297363D01*
X125044D01*
Y296802D01*
X131769D01*
Y297363D01*
X135132D01*
Y298484D01*
X136253D01*
Y299044D01*
X137374D01*
Y299605D01*
X138494D01*
Y300165D01*
X139055D01*
Y300725D01*
X139615D01*
Y301286D01*
X140176D01*
Y301846D01*
X140736D01*
Y302407D01*
X141297D01*
Y302967D01*
X141857D01*
Y303528D01*
X142417D01*
Y304648D01*
X142978D01*
Y305209D01*
X144099D01*
Y306890D01*
X143538D01*
Y307451D01*
X144659D01*
Y308572D01*
X145220D01*
Y310813D01*
X145780D01*
Y316978D01*
X145220D01*
Y319220D01*
X144659D01*
Y320901D01*
X144099D01*
Y322583D01*
X143538D01*
Y323143D01*
X142417D01*
Y323703D01*
X142978D01*
Y324264D01*
X142417D01*
Y325385D01*
X141857D01*
Y326506D01*
X141297D01*
Y327066D01*
X140736D01*
Y328747D01*
X139615D01*
Y329308D01*
X139055D01*
Y329868D01*
X138494D01*
Y330989D01*
X137374D01*
Y332110D01*
X136253D01*
Y333231D01*
X135132D01*
Y334352D01*
X134011D01*
Y335473D01*
X132890D01*
Y336594D01*
X131769D01*
Y337714D01*
X130088D01*
Y338275D01*
X129527D01*
Y338835D01*
D02*
G37*
%LPD*%
G36*
Y375824D02*
X130088D01*
Y375264D01*
X134571D01*
Y371901D01*
X130088D01*
Y371340D01*
X129527D01*
Y366297D01*
X125604D01*
Y371340D01*
X125044D01*
Y371901D01*
X120560D01*
Y375264D01*
X125044D01*
Y375824D01*
X125604D01*
Y380868D01*
X129527D01*
Y375824D01*
D02*
G37*
G36*
Y308572D02*
X125604D01*
Y323143D01*
X129527D01*
Y308572D01*
D02*
G37*
D10*
X399500Y379250D02*
G03*
X399500Y379250I-1250J0D01*
G01*
X401250Y449000D02*
G03*
X401250Y449000I-1250J0D01*
G01*
X421250Y120250D02*
G03*
X421250Y120250I-1250J0D01*
G01*
X337000Y158000D02*
G03*
X337000Y158000I-1250J0D01*
G01*
X268250Y633250D02*
G03*
X268250Y633250I-1250J0D01*
G01*
D11*
X366250Y361250D02*
Y363750D01*
X373750Y361250D02*
Y363750D01*
X351250Y183750D02*
X353750D01*
X351250Y176250D02*
X353750D01*
X391250Y303750D02*
X393750D01*
X391250Y296250D02*
X393750D01*
X391250Y263750D02*
X393750D01*
X391250Y256250D02*
X393750D01*
X446250Y136250D02*
Y138750D01*
X453750Y136250D02*
Y138750D01*
X301250Y183750D02*
X303750D01*
X301250Y176250D02*
X303750D01*
X301250Y103750D02*
X303750D01*
X301250Y96250D02*
X303750D01*
X452225Y547540D02*
X467460D01*
Y557697D01*
X452225Y570393D02*
Y565314D01*
X454764Y562775D01*
X464921D01*
X467460Y565314D01*
Y570393D01*
X464921Y572932D01*
X454764D01*
X452225Y570393D01*
X467460Y578010D02*
X457303D01*
X452225Y583088D01*
X457303Y588167D01*
X467460D01*
X459842D01*
Y578010D01*
X452225Y593245D02*
X467460D01*
Y600863D01*
X464921Y603402D01*
X454764D01*
X452225Y600863D01*
Y593245D01*
X137460Y60157D02*
X129842Y52540D01*
X122225Y60157D01*
X129842Y67775D02*
Y77932D01*
X122225Y98245D02*
Y108402D01*
Y103323D01*
X137460D01*
X122225Y123637D02*
Y113480D01*
X137460D01*
Y123637D01*
X129842Y113480D02*
Y118559D01*
X122225Y138872D02*
Y128715D01*
X137460D01*
Y138872D01*
X129842Y128715D02*
Y133794D01*
X137460Y143950D02*
X122225D01*
X137460Y154107D01*
X122225D01*
X124764Y169342D02*
X122225Y166803D01*
Y161725D01*
X124764Y159185D01*
X127303D01*
X129842Y161725D01*
Y166803D01*
X132382Y169342D01*
X134921D01*
X137460Y166803D01*
Y161725D01*
X134921Y159185D01*
X122225Y174421D02*
X124764D01*
X129842Y179499D01*
X124764Y184577D01*
X122225D01*
X129842Y179499D02*
X137460D01*
X124764Y204891D02*
X122225Y207430D01*
Y212508D01*
X124764Y215047D01*
X127303D01*
X129842Y212508D01*
Y209969D01*
Y212508D01*
X132382Y215047D01*
X134921D01*
X137460Y212508D01*
Y207430D01*
X134921Y204891D01*
X137460Y220126D02*
X134921D01*
Y222665D01*
X137460D01*
Y220126D01*
X122225Y242978D02*
X124764Y237900D01*
X129842Y232822D01*
X134921D01*
X137460Y235361D01*
Y240439D01*
X134921Y242978D01*
X132382D01*
X129842Y240439D01*
Y232822D01*
X348335Y54998D02*
X346669Y56665D01*
X343337D01*
X341671Y54998D01*
Y48334D01*
X343337Y46668D01*
X346669D01*
X348335Y48334D01*
X351668Y56665D02*
Y46668D01*
Y51666D01*
X353334Y53332D01*
X356666D01*
X358332Y51666D01*
Y46668D01*
X364997Y43335D02*
X366663D01*
X368329Y45002D01*
Y53332D01*
X363331D01*
X361665Y51666D01*
Y48334D01*
X363331Y46668D01*
X368329D01*
X324764Y642697D02*
X322225Y640157D01*
Y635079D01*
X324764Y632540D01*
X334921D01*
X337460Y635079D01*
Y640157D01*
X334921Y642697D01*
X329842D01*
Y637618D01*
X337460Y647775D02*
X322225D01*
X337460Y657932D01*
X322225D01*
Y663010D02*
X337460D01*
Y670628D01*
X334921Y673167D01*
X324764D01*
X322225Y670628D01*
Y663010D01*
X232225Y612540D02*
X242382D01*
X247460Y617618D01*
X242382Y622697D01*
X232225D01*
Y627775D02*
X247460D01*
Y635393D01*
X244921Y637932D01*
X242382D01*
X239842Y635393D01*
Y627775D01*
Y635393D01*
X237303Y637932D01*
X234764D01*
X232225Y635393D01*
Y627775D01*
X237303Y645549D02*
Y650628D01*
X239842Y653167D01*
X247460D01*
Y645549D01*
X244921Y643010D01*
X242382Y645549D01*
Y653167D01*
X234764Y660784D02*
X237303D01*
Y658245D01*
Y663324D01*
Y660784D01*
X244921D01*
X247460Y663324D01*
X234764Y673480D02*
X237303D01*
Y670941D01*
Y676020D01*
Y673480D01*
X244921D01*
X247460Y676020D01*
X412540Y635236D02*
X415079Y637775D01*
X420158D01*
X422697Y635236D01*
Y632697D01*
X420158Y630158D01*
X417618D01*
X420158D01*
X422697Y627618D01*
Y625079D01*
X420158Y622540D01*
X415079D01*
X412540Y625079D01*
X427775Y637775D02*
Y627618D01*
X432853Y622540D01*
X437932Y627618D01*
Y637775D01*
X407697Y660236D02*
X405158Y662775D01*
X400079D01*
X397540Y660236D01*
Y650079D01*
X400079Y647540D01*
X405158D01*
X407697Y650079D01*
Y655157D01*
X402618D01*
X412775Y647540D02*
Y662775D01*
X422932Y647540D01*
Y662775D01*
X428010D02*
Y647540D01*
X435628D01*
X438167Y650079D01*
Y660236D01*
X435628Y662775D01*
X428010D01*
X357617Y347304D02*
X342383D01*
Y354922D01*
X344922Y357461D01*
X350000D01*
X352539Y354922D01*
Y347304D01*
Y352383D02*
X357617Y357461D01*
Y372696D02*
Y362539D01*
X347461Y372696D01*
X344922D01*
X342383Y370157D01*
Y365078D01*
X344922Y362539D01*
X432382Y347304D02*
X445078D01*
X447617Y349843D01*
Y354922D01*
X445078Y357461D01*
X432382D01*
X447617Y372696D02*
Y362539D01*
X437461Y372696D01*
X434922D01*
X432382Y370157D01*
Y365078D01*
X434922Y362539D01*
X432383Y419843D02*
X445078D01*
X447617Y422383D01*
Y427461D01*
X445078Y430000D01*
X432383D01*
X447617Y435078D02*
Y440157D01*
Y437618D01*
X432383D01*
X434922Y435078D01*
X369843Y172383D02*
Y187617D01*
X377461D01*
X380000Y185078D01*
Y180000D01*
X377461Y177461D01*
X369843D01*
X374922D02*
X380000Y172383D01*
X385078D02*
X390157D01*
X387618D01*
Y187617D01*
X385078Y185078D01*
X417304Y292382D02*
Y307617D01*
X424922D01*
X427461Y305078D01*
Y300000D01*
X424922Y297461D01*
X417304D01*
X422383D02*
X427461Y292382D01*
X442696Y307617D02*
X432539D01*
Y300000D01*
X437617Y302539D01*
X440157D01*
X442696Y300000D01*
Y294922D01*
X440157Y292382D01*
X435078D01*
X432539Y294922D01*
X417304Y252383D02*
Y267617D01*
X424922D01*
X427461Y265078D01*
Y260000D01*
X424922Y257461D01*
X417304D01*
X422383D02*
X427461Y252383D01*
X440157D02*
Y267617D01*
X432539Y260000D01*
X442696D01*
X424173Y54998D02*
Y48334D01*
X427506Y45002D01*
X430838Y48334D01*
Y54998D01*
X434170D02*
Y45002D01*
X439169D01*
X440835Y46668D01*
Y48334D01*
Y50000D01*
X439169Y51666D01*
X434170D01*
X445833D02*
X449165D01*
X450831Y50000D01*
Y45002D01*
X445833D01*
X444167Y46668D01*
X445833Y48334D01*
X450831D01*
X455830Y53332D02*
Y51666D01*
X454164D01*
X457496D01*
X455830D01*
Y46668D01*
X457496Y45002D01*
X464160Y53332D02*
Y51666D01*
X462494D01*
X465827D01*
X464160D01*
Y46668D01*
X465827Y45002D01*
X248335Y53332D02*
X246669Y54998D01*
X243337D01*
X241671Y53332D01*
Y46668D01*
X243337Y45002D01*
X246669D01*
X248335Y46668D01*
Y50000D01*
X245003D01*
X251668Y45002D02*
Y54998D01*
X258332Y45002D01*
Y54998D01*
X261665D02*
Y45002D01*
X266663D01*
X268329Y46668D01*
Y53332D01*
X266663Y54998D01*
X261665D01*
X477617Y122304D02*
X462383D01*
Y129922D01*
X464922Y132461D01*
X470000D01*
X472539Y129922D01*
Y122304D01*
Y127382D02*
X477617Y132461D01*
X464922Y137539D02*
X462383Y140078D01*
Y145157D01*
X464922Y147696D01*
X467461D01*
X470000Y145157D01*
Y142618D01*
Y145157D01*
X472539Y147696D01*
X475078D01*
X477617Y145157D01*
Y140078D01*
X475078Y137539D01*
X397304Y107618D02*
Y94922D01*
X399843Y92382D01*
X404922D01*
X407461Y94922D01*
Y107618D01*
X420157Y92382D02*
Y107618D01*
X412539Y100000D01*
X422696D01*
X337304Y107618D02*
Y94922D01*
X339843Y92382D01*
X344922D01*
X347461Y94922D01*
Y107618D01*
X352539Y105078D02*
X355078Y107618D01*
X360157D01*
X362696Y105078D01*
Y102539D01*
X360157Y100000D01*
X357617D01*
X360157D01*
X362696Y97461D01*
Y94922D01*
X360157Y92382D01*
X355078D01*
X352539Y94922D01*
X267461Y185078D02*
X264922Y187617D01*
X259843D01*
X257304Y185078D01*
Y174922D01*
X259843Y172383D01*
X264922D01*
X267461Y174922D01*
X282696Y172383D02*
X272539D01*
X282696Y182539D01*
Y185078D01*
X280157Y187617D01*
X275078D01*
X272539Y185078D01*
X270000Y105078D02*
X267461Y107618D01*
X262383D01*
X259843Y105078D01*
Y94922D01*
X262383Y92382D01*
X267461D01*
X270000Y94922D01*
X275078Y92382D02*
X280157D01*
X277618D01*
Y107618D01*
X275078Y105078D01*
X347304Y307617D02*
Y292382D01*
X354922D01*
X357461Y294922D01*
Y305078D01*
X354922Y307617D01*
X347304D01*
X372696Y292382D02*
X362539D01*
X372696Y302539D01*
Y305078D01*
X370157Y307617D01*
X365078D01*
X362539Y305078D01*
X349843Y267617D02*
Y252383D01*
X357461D01*
X360000Y254922D01*
Y265078D01*
X357461Y267617D01*
X349843D01*
X365078Y252383D02*
X370157D01*
X367618D01*
Y267617D01*
X365078Y265078D01*
X256425Y695971D02*
Y711206D01*
X264043D01*
X266582Y708667D01*
Y703588D01*
X264043Y701049D01*
X256425D01*
X271660Y695971D02*
X276738D01*
X274199D01*
Y711206D01*
X271660Y708667D01*
X448951Y676609D02*
Y691844D01*
X456568D01*
X459108Y689305D01*
Y684227D01*
X456568Y681687D01*
X448951D01*
X474343Y676609D02*
X464186D01*
X474343Y686766D01*
Y689305D01*
X471804Y691844D01*
X466725D01*
X464186Y689305D01*
X191262Y655574D02*
Y670809D01*
X198880D01*
X201419Y668270D01*
Y663192D01*
X198880Y660652D01*
X191262D01*
X214115Y655574D02*
Y670809D01*
X206497Y663192D01*
X216654D01*
X38862Y655574D02*
Y670809D01*
X46480D01*
X49019Y668270D01*
Y663192D01*
X46480Y660652D01*
X38862D01*
X54097Y668270D02*
X56636Y670809D01*
X61715D01*
X64254Y668270D01*
Y665731D01*
X61715Y663192D01*
X59175D01*
X61715D01*
X64254Y660652D01*
Y658113D01*
X61715Y655574D01*
X56636D01*
X54097Y658113D01*
D12*
X417000Y345000D02*
Y352750D01*
X407000Y345000D02*
X417000D01*
Y367250D02*
Y375000D01*
X407000D02*
X417000D01*
X407000Y445000D02*
X417000D01*
Y438000D02*
Y445000D01*
X407000Y415000D02*
X417000D01*
Y422000D01*
X401250Y146750D02*
Y154500D01*
X411250D01*
X401250Y124500D02*
Y132250D01*
Y124500D02*
X411250D01*
X345000Y155500D02*
X355000D01*
X345000Y124500D02*
X355000D01*
X345000D02*
Y155500D01*
X355000Y124500D02*
Y155500D01*
X317500Y311500D02*
X334500D01*
X334500Y288500D02*
X339500Y292500D01*
X334500Y311500D02*
X339500Y307500D01*
X317500Y288500D02*
X334500D01*
X339500Y292500D02*
Y307500D01*
X278500Y288500D02*
Y311500D01*
X297500D01*
X278500Y288500D02*
X297500D01*
X317500Y271500D02*
X334500D01*
X334500Y248500D02*
X339500Y252500D01*
X334500Y271500D02*
X339500Y267500D01*
X317500Y248500D02*
X334500D01*
X339500Y252500D02*
Y267500D01*
X278500Y248500D02*
Y271500D01*
X297500D01*
X278500Y248500D02*
X297500D01*
X275000Y687250D02*
X295000D01*
X260000Y640250D02*
X310000D01*
Y657250D01*
X260000Y640250D02*
Y657250D01*
X447300Y668100D02*
X472700D01*
Y617300D02*
Y668100D01*
X447300Y617300D02*
X472700D01*
X447300D02*
Y668100D01*
X189700Y56350D02*
Y646900D01*
Y37300D02*
Y56350D01*
Y37300D02*
X215100D01*
Y646900D01*
X189700D02*
X215100D01*
X37300Y56350D02*
Y646900D01*
Y37300D02*
Y56350D01*
Y37300D02*
X62700D01*
Y646900D01*
X37300D02*
X62700D01*
D13*
X246500Y435831D02*
Y428833D01*
Y435831D02*
X249499D01*
X250499Y435498D01*
X250832Y435165D01*
X251166Y434498D01*
Y433832D01*
X250832Y433165D01*
X250499Y432832D01*
X249499Y432499D01*
X246500D02*
X249499D01*
X250499Y432165D01*
X250832Y431832D01*
X251166Y431166D01*
Y430166D01*
X250832Y429499D01*
X250499Y429166D01*
X249499Y428833D01*
X246500D01*
X256731Y433498D02*
Y428833D01*
Y432499D02*
X256065Y433165D01*
X255398Y433498D01*
X254398D01*
X253732Y433165D01*
X253065Y432499D01*
X252732Y431499D01*
Y430832D01*
X253065Y429833D01*
X253732Y429166D01*
X254398Y428833D01*
X255398D01*
X256065Y429166D01*
X256731Y429833D01*
X259597Y435831D02*
Y430166D01*
X259930Y429166D01*
X260597Y428833D01*
X261264D01*
X258597Y433498D02*
X260930D01*
X263263Y435831D02*
Y430166D01*
X263596Y429166D01*
X264263Y428833D01*
X264929D01*
X262263Y433498D02*
X264596D01*
X265929Y431499D02*
X269928D01*
Y432165D01*
X269595Y432832D01*
X269262Y433165D01*
X268595Y433498D01*
X267596D01*
X266929Y433165D01*
X266262Y432499D01*
X265929Y431499D01*
Y430832D01*
X266262Y429833D01*
X266929Y429166D01*
X267596Y428833D01*
X268595D01*
X269262Y429166D01*
X269928Y429833D01*
X271428Y433498D02*
Y428833D01*
Y431499D02*
X271761Y432499D01*
X272428Y433165D01*
X273094Y433498D01*
X274094D01*
X275061D02*
X277060Y428833D01*
X279060Y433498D02*
X277060Y428833D01*
X276394Y427500D01*
X275727Y426833D01*
X275061Y426500D01*
X274727D01*
X288058Y435831D02*
Y428833D01*
X285725Y435831D02*
X290391D01*
X291224Y431499D02*
X295223D01*
Y432165D01*
X294890Y432832D01*
X294556Y433165D01*
X293890Y433498D01*
X292890D01*
X292223Y433165D01*
X291557Y432499D01*
X291224Y431499D01*
Y430832D01*
X291557Y429833D01*
X292223Y429166D01*
X292890Y428833D01*
X293890D01*
X294556Y429166D01*
X295223Y429833D01*
X300389Y432499D02*
X300055Y433165D01*
X299055Y433498D01*
X298056D01*
X297056Y433165D01*
X296723Y432499D01*
X297056Y431832D01*
X297722Y431499D01*
X299389Y431166D01*
X300055Y430832D01*
X300389Y430166D01*
Y429833D01*
X300055Y429166D01*
X299055Y428833D01*
X298056D01*
X297056Y429166D01*
X296723Y429833D01*
X302855Y435831D02*
Y430166D01*
X303188Y429166D01*
X303854Y428833D01*
X304521D01*
X301855Y433498D02*
X304188D01*
X305521Y431499D02*
X309520D01*
Y432165D01*
X309187Y432832D01*
X308853Y433165D01*
X308187Y433498D01*
X307187D01*
X306521Y433165D01*
X305854Y432499D01*
X305521Y431499D01*
Y430832D01*
X305854Y429833D01*
X306521Y429166D01*
X307187Y428833D01*
X308187D01*
X308853Y429166D01*
X309520Y429833D01*
X311019Y433498D02*
Y428833D01*
Y431499D02*
X311353Y432499D01*
X312019Y433165D01*
X312686Y433498D01*
X313686D01*
X319818D02*
X321817Y428833D01*
X323817Y433498D02*
X321817Y428833D01*
X324950Y434498D02*
X325616Y434832D01*
X326616Y435831D01*
Y428833D01*
X330415Y429499D02*
X330082Y429166D01*
X330415Y428833D01*
X330749Y429166D01*
X330415Y429499D01*
X334281Y435831D02*
X333282Y435498D01*
X332615Y434498D01*
X332282Y432832D01*
Y431832D01*
X332615Y430166D01*
X333282Y429166D01*
X334281Y428833D01*
X334948D01*
X335948Y429166D01*
X336614Y430166D01*
X336947Y431832D01*
Y432832D01*
X336614Y434498D01*
X335948Y435498D01*
X334948Y435831D01*
X334281D01*
M02*
