G04*
G04 #@! TF.GenerationSoftware,Altium Limited,Altium Designer,20.0.12 (288)*
G04*
G04 Layer_Color=16711935*
%FSLAX44Y44*%
%MOMM*%
G71*
G01*
G75*
%ADD31R,1.7032X1.7032*%
%ADD32C,1.7032*%
%ADD33C,0.8032*%
D31*
X460000Y630000D02*
D03*
X202400Y50000D02*
D03*
X50000D02*
D03*
D32*
X460000Y655400D02*
D03*
X202400Y634200D02*
D03*
Y608800D02*
D03*
Y583400D02*
D03*
Y558000D02*
D03*
Y532600D02*
D03*
Y507200D02*
D03*
Y481800D02*
D03*
Y456400D02*
D03*
Y431000D02*
D03*
Y405600D02*
D03*
Y380200D02*
D03*
Y354800D02*
D03*
Y329400D02*
D03*
Y304000D02*
D03*
Y278600D02*
D03*
Y253200D02*
D03*
Y227800D02*
D03*
Y202400D02*
D03*
Y177000D02*
D03*
Y151600D02*
D03*
Y126200D02*
D03*
Y100800D02*
D03*
Y75400D02*
D03*
X50000Y634200D02*
D03*
Y608800D02*
D03*
Y583400D02*
D03*
Y558000D02*
D03*
Y532600D02*
D03*
Y507200D02*
D03*
Y481800D02*
D03*
Y456400D02*
D03*
Y431000D02*
D03*
Y405600D02*
D03*
Y380200D02*
D03*
Y354800D02*
D03*
Y329400D02*
D03*
Y304000D02*
D03*
Y278600D02*
D03*
Y253200D02*
D03*
Y227800D02*
D03*
Y202400D02*
D03*
Y177000D02*
D03*
Y151600D02*
D03*
Y126200D02*
D03*
Y100800D02*
D03*
Y75400D02*
D03*
D33*
X375000Y30000D02*
D03*
X345000Y370000D02*
D03*
X295000Y165000D02*
D03*
X330000Y175000D02*
D03*
X335000Y650000D02*
D03*
X280000Y30157D02*
D03*
X345000Y200000D02*
D03*
X310000Y355000D02*
D03*
Y205000D02*
D03*
X315000Y140000D02*
D03*
X415000Y280000D02*
D03*
X400000Y465000D02*
D03*
X375000Y420000D02*
D03*
X270000Y95000D02*
D03*
M02*
