G04*
G04 #@! TF.GenerationSoftware,Altium Limited,Altium Designer,20.0.12 (288)*
G04*
G04 Layer_Color=32768*
%FSLAX44Y44*%
%MOMM*%
G71*
G01*
G75*
%ADD12C,0.2000*%
%ADD39C,0.1000*%
%ADD40C,0.0500*%
D12*
X255000Y687250D02*
X315000D01*
Y640250D02*
Y687250D01*
X255000Y640250D02*
X315000D01*
X255000D02*
Y687250D01*
D39*
X410000Y355000D02*
Y365000D01*
X405000Y360000D02*
X415000D01*
X405000Y430000D02*
X415000D01*
X410000Y425000D02*
Y435000D01*
X408250Y134500D02*
Y144500D01*
X403250Y139500D02*
X413250D01*
X345000Y140000D02*
X355000D01*
X350000Y135000D02*
Y145000D01*
D40*
X391250Y342500D02*
X428750D01*
X391250Y377500D02*
X428750D01*
Y342500D02*
Y377500D01*
X391250Y342500D02*
Y377500D01*
Y412500D02*
Y447500D01*
X428750Y412500D02*
Y447500D01*
X391250D02*
X428750D01*
X391250Y412500D02*
X428750D01*
X389500Y157000D02*
X427000D01*
X389500Y122000D02*
X427000D01*
X389500D02*
Y157000D01*
X427000Y122000D02*
Y157000D01*
X328000Y122000D02*
Y158000D01*
X372000Y122000D02*
Y158000D01*
X328000D02*
X372000D01*
X328000Y122000D02*
X372000D01*
M02*
