G04*
G04 #@! TF.GenerationSoftware,Altium Limited,Altium Designer,20.0.12 (288)*
G04*
G04 Layer_Physical_Order=2*
G04 Layer_Color=16711680*
%FSLAX44Y44*%
%MOMM*%
G71*
G01*
G75*
%ADD35C,0.5000*%
%ADD36R,1.5000X1.5000*%
%ADD37C,1.5000*%
%ADD38C,0.6000*%
G36*
X470000Y660917D02*
X468857Y660504D01*
X468730Y660515D01*
X467161Y662561D01*
X465063Y664170D01*
X462621Y665182D01*
X461270Y665359D01*
Y655400D01*
Y645441D01*
X462621Y645618D01*
X465063Y646630D01*
X467161Y648239D01*
X468730Y650285D01*
X468857Y650296D01*
X470000Y649883D01*
Y640500D01*
X449500D01*
Y635608D01*
X385000D01*
X382854Y635181D01*
X381035Y633965D01*
X371035Y623965D01*
X369819Y622146D01*
X369392Y620000D01*
Y422407D01*
X369348Y422341D01*
X368882Y420000D01*
X369348Y417659D01*
X370674Y415674D01*
X372659Y414348D01*
X375000Y413882D01*
X377341Y414348D01*
X379326Y415674D01*
X380652Y417659D01*
X381118Y420000D01*
X380652Y422341D01*
X380608Y422407D01*
Y617677D01*
X387323Y624392D01*
X449500D01*
Y619500D01*
X470000D01*
Y20000D01*
X20000D01*
Y680000D01*
X470000D01*
Y660917D01*
D02*
G37*
%LPC*%
G36*
X458730Y665359D02*
X457379Y665182D01*
X454937Y664170D01*
X452839Y662561D01*
X451230Y660463D01*
X450218Y658021D01*
X450041Y656670D01*
X458730D01*
Y665359D01*
D02*
G37*
G36*
X336270Y655396D02*
Y651270D01*
X340396D01*
X340219Y652162D01*
X338994Y653994D01*
X337162Y655219D01*
X336270Y655396D01*
D02*
G37*
G36*
X333730D02*
X332838Y655219D01*
X331006Y653994D01*
X329781Y652162D01*
X329604Y651270D01*
X333730D01*
Y655396D01*
D02*
G37*
G36*
X458730Y654130D02*
X450041D01*
X450218Y652779D01*
X451230Y650337D01*
X452839Y648239D01*
X454937Y646630D01*
X457379Y645618D01*
X458730Y645441D01*
Y654130D01*
D02*
G37*
G36*
X340396Y648730D02*
X336270D01*
Y644604D01*
X337162Y644781D01*
X338994Y646006D01*
X340219Y647838D01*
X340396Y648730D01*
D02*
G37*
G36*
X333730D02*
X329604D01*
X329781Y647838D01*
X331006Y646006D01*
X332838Y644781D01*
X333730Y644604D01*
Y648730D01*
D02*
G37*
G36*
X202400Y644791D02*
X199659Y644430D01*
X197105Y643372D01*
X194911Y641689D01*
X193228Y639495D01*
X192170Y636941D01*
X191809Y634200D01*
X192170Y631459D01*
X193228Y628905D01*
X194911Y626711D01*
X197105Y625028D01*
X199659Y623970D01*
X202400Y623609D01*
X205141Y623970D01*
X207695Y625028D01*
X209889Y626711D01*
X211572Y628905D01*
X212630Y631459D01*
X212991Y634200D01*
X212630Y636941D01*
X211572Y639495D01*
X209889Y641689D01*
X207695Y643372D01*
X205141Y644430D01*
X202400Y644791D01*
D02*
G37*
G36*
X50000D02*
X47259Y644430D01*
X44705Y643372D01*
X42511Y641689D01*
X40828Y639495D01*
X39770Y636941D01*
X39409Y634200D01*
X39770Y631459D01*
X40828Y628905D01*
X42511Y626711D01*
X44705Y625028D01*
X47259Y623970D01*
X50000Y623609D01*
X52741Y623970D01*
X55295Y625028D01*
X57489Y626711D01*
X59172Y628905D01*
X60230Y631459D01*
X60591Y634200D01*
X60230Y636941D01*
X59172Y639495D01*
X57489Y641689D01*
X55295Y643372D01*
X52741Y644430D01*
X50000Y644791D01*
D02*
G37*
G36*
X202400Y619391D02*
X199659Y619030D01*
X197105Y617972D01*
X194911Y616289D01*
X193228Y614095D01*
X192170Y611541D01*
X191809Y608800D01*
X192170Y606059D01*
X193228Y603505D01*
X194911Y601311D01*
X197105Y599628D01*
X199659Y598570D01*
X202400Y598209D01*
X205141Y598570D01*
X207695Y599628D01*
X209889Y601311D01*
X211572Y603505D01*
X212630Y606059D01*
X212991Y608800D01*
X212630Y611541D01*
X211572Y614095D01*
X209889Y616289D01*
X207695Y617972D01*
X205141Y619030D01*
X202400Y619391D01*
D02*
G37*
G36*
X50000D02*
X47259Y619030D01*
X44705Y617972D01*
X42511Y616289D01*
X40828Y614095D01*
X39770Y611541D01*
X39409Y608800D01*
X39770Y606059D01*
X40828Y603505D01*
X42511Y601311D01*
X44705Y599628D01*
X47259Y598570D01*
X50000Y598209D01*
X52741Y598570D01*
X55295Y599628D01*
X57489Y601311D01*
X59172Y603505D01*
X60230Y606059D01*
X60591Y608800D01*
X60230Y611541D01*
X59172Y614095D01*
X57489Y616289D01*
X55295Y617972D01*
X52741Y619030D01*
X50000Y619391D01*
D02*
G37*
G36*
X202400Y593991D02*
X199659Y593630D01*
X197105Y592572D01*
X194911Y590889D01*
X193228Y588695D01*
X192170Y586141D01*
X191809Y583400D01*
X192170Y580659D01*
X193228Y578105D01*
X194911Y575911D01*
X197105Y574228D01*
X199659Y573170D01*
X202400Y572809D01*
X205141Y573170D01*
X207695Y574228D01*
X209889Y575911D01*
X211572Y578105D01*
X212630Y580659D01*
X212991Y583400D01*
X212630Y586141D01*
X211572Y588695D01*
X209889Y590889D01*
X207695Y592572D01*
X205141Y593630D01*
X202400Y593991D01*
D02*
G37*
G36*
X50000D02*
X47259Y593630D01*
X44705Y592572D01*
X42511Y590889D01*
X40828Y588695D01*
X39770Y586141D01*
X39409Y583400D01*
X39770Y580659D01*
X40828Y578105D01*
X42511Y575911D01*
X44705Y574228D01*
X47259Y573170D01*
X50000Y572809D01*
X52741Y573170D01*
X55295Y574228D01*
X57489Y575911D01*
X59172Y578105D01*
X60230Y580659D01*
X60591Y583400D01*
X60230Y586141D01*
X59172Y588695D01*
X57489Y590889D01*
X55295Y592572D01*
X52741Y593630D01*
X50000Y593991D01*
D02*
G37*
G36*
X202400Y568591D02*
X199659Y568230D01*
X197105Y567172D01*
X194911Y565489D01*
X193228Y563295D01*
X192170Y560741D01*
X191809Y558000D01*
X192170Y555259D01*
X193228Y552705D01*
X194911Y550511D01*
X197105Y548828D01*
X199659Y547770D01*
X202400Y547409D01*
X205141Y547770D01*
X207695Y548828D01*
X209889Y550511D01*
X211572Y552705D01*
X212630Y555259D01*
X212991Y558000D01*
X212630Y560741D01*
X211572Y563295D01*
X209889Y565489D01*
X207695Y567172D01*
X205141Y568230D01*
X202400Y568591D01*
D02*
G37*
G36*
X50000D02*
X47259Y568230D01*
X44705Y567172D01*
X42511Y565489D01*
X40828Y563295D01*
X39770Y560741D01*
X39409Y558000D01*
X39770Y555259D01*
X40828Y552705D01*
X42511Y550511D01*
X44705Y548828D01*
X47259Y547770D01*
X50000Y547409D01*
X52741Y547770D01*
X55295Y548828D01*
X57489Y550511D01*
X59172Y552705D01*
X60230Y555259D01*
X60591Y558000D01*
X60230Y560741D01*
X59172Y563295D01*
X57489Y565489D01*
X55295Y567172D01*
X52741Y568230D01*
X50000Y568591D01*
D02*
G37*
G36*
X202400Y543191D02*
X199659Y542830D01*
X197105Y541772D01*
X194911Y540089D01*
X193228Y537895D01*
X192170Y535341D01*
X191809Y532600D01*
X192170Y529859D01*
X193228Y527305D01*
X194911Y525111D01*
X197105Y523428D01*
X199659Y522370D01*
X202400Y522009D01*
X205141Y522370D01*
X207695Y523428D01*
X209889Y525111D01*
X211572Y527305D01*
X212630Y529859D01*
X212991Y532600D01*
X212630Y535341D01*
X211572Y537895D01*
X209889Y540089D01*
X207695Y541772D01*
X205141Y542830D01*
X202400Y543191D01*
D02*
G37*
G36*
X50000D02*
X47259Y542830D01*
X44705Y541772D01*
X42511Y540089D01*
X40828Y537895D01*
X39770Y535341D01*
X39409Y532600D01*
X39770Y529859D01*
X40828Y527305D01*
X42511Y525111D01*
X44705Y523428D01*
X47259Y522370D01*
X50000Y522009D01*
X52741Y522370D01*
X55295Y523428D01*
X57489Y525111D01*
X59172Y527305D01*
X60230Y529859D01*
X60591Y532600D01*
X60230Y535341D01*
X59172Y537895D01*
X57489Y540089D01*
X55295Y541772D01*
X52741Y542830D01*
X50000Y543191D01*
D02*
G37*
G36*
X202400Y517791D02*
X199659Y517430D01*
X197105Y516372D01*
X194911Y514689D01*
X193228Y512495D01*
X192170Y509941D01*
X191809Y507200D01*
X192170Y504459D01*
X193228Y501905D01*
X194911Y499711D01*
X197105Y498028D01*
X199659Y496970D01*
X202400Y496609D01*
X205141Y496970D01*
X207695Y498028D01*
X209889Y499711D01*
X211572Y501905D01*
X212630Y504459D01*
X212991Y507200D01*
X212630Y509941D01*
X211572Y512495D01*
X209889Y514689D01*
X207695Y516372D01*
X205141Y517430D01*
X202400Y517791D01*
D02*
G37*
G36*
X50000D02*
X47259Y517430D01*
X44705Y516372D01*
X42511Y514689D01*
X40828Y512495D01*
X39770Y509941D01*
X39409Y507200D01*
X39770Y504459D01*
X40828Y501905D01*
X42511Y499711D01*
X44705Y498028D01*
X47259Y496970D01*
X50000Y496609D01*
X52741Y496970D01*
X55295Y498028D01*
X57489Y499711D01*
X59172Y501905D01*
X60230Y504459D01*
X60591Y507200D01*
X60230Y509941D01*
X59172Y512495D01*
X57489Y514689D01*
X55295Y516372D01*
X52741Y517430D01*
X50000Y517791D01*
D02*
G37*
G36*
X202400Y492391D02*
X199659Y492030D01*
X197105Y490972D01*
X194911Y489289D01*
X193228Y487095D01*
X192170Y484541D01*
X191809Y481800D01*
X192170Y479059D01*
X193228Y476505D01*
X194911Y474311D01*
X197105Y472628D01*
X199659Y471570D01*
X202400Y471209D01*
X205141Y471570D01*
X207695Y472628D01*
X209889Y474311D01*
X211572Y476505D01*
X212630Y479059D01*
X212991Y481800D01*
X212630Y484541D01*
X211572Y487095D01*
X209889Y489289D01*
X207695Y490972D01*
X205141Y492030D01*
X202400Y492391D01*
D02*
G37*
G36*
X50000D02*
X47259Y492030D01*
X44705Y490972D01*
X42511Y489289D01*
X40828Y487095D01*
X39770Y484541D01*
X39409Y481800D01*
X39770Y479059D01*
X40828Y476505D01*
X42511Y474311D01*
X44705Y472628D01*
X47259Y471570D01*
X50000Y471209D01*
X52741Y471570D01*
X55295Y472628D01*
X57489Y474311D01*
X59172Y476505D01*
X60230Y479059D01*
X60591Y481800D01*
X60230Y484541D01*
X59172Y487095D01*
X57489Y489289D01*
X55295Y490972D01*
X52741Y492030D01*
X50000Y492391D01*
D02*
G37*
G36*
X401270Y470396D02*
Y466270D01*
X405396D01*
X405219Y467162D01*
X403994Y468994D01*
X402162Y470219D01*
X401270Y470396D01*
D02*
G37*
G36*
X398730D02*
X397838Y470219D01*
X396006Y468994D01*
X394781Y467162D01*
X394604Y466270D01*
X398730D01*
Y470396D01*
D02*
G37*
G36*
X405396Y463730D02*
X401270D01*
Y459604D01*
X402162Y459781D01*
X403994Y461006D01*
X405219Y462838D01*
X405396Y463730D01*
D02*
G37*
G36*
X398730D02*
X394604D01*
X394781Y462838D01*
X396006Y461006D01*
X397838Y459781D01*
X398730Y459604D01*
Y463730D01*
D02*
G37*
G36*
X202400Y466991D02*
X199659Y466630D01*
X197105Y465572D01*
X194911Y463889D01*
X193228Y461695D01*
X192170Y459141D01*
X191809Y456400D01*
X192170Y453659D01*
X193228Y451105D01*
X194911Y448911D01*
X197105Y447228D01*
X199659Y446170D01*
X202400Y445809D01*
X205141Y446170D01*
X207695Y447228D01*
X209889Y448911D01*
X211572Y451105D01*
X212630Y453659D01*
X212991Y456400D01*
X212630Y459141D01*
X211572Y461695D01*
X209889Y463889D01*
X207695Y465572D01*
X205141Y466630D01*
X202400Y466991D01*
D02*
G37*
G36*
X50000D02*
X47259Y466630D01*
X44705Y465572D01*
X42511Y463889D01*
X40828Y461695D01*
X39770Y459141D01*
X39409Y456400D01*
X39770Y453659D01*
X40828Y451105D01*
X42511Y448911D01*
X44705Y447228D01*
X47259Y446170D01*
X50000Y445809D01*
X52741Y446170D01*
X55295Y447228D01*
X57489Y448911D01*
X59172Y451105D01*
X60230Y453659D01*
X60591Y456400D01*
X60230Y459141D01*
X59172Y461695D01*
X57489Y463889D01*
X55295Y465572D01*
X52741Y466630D01*
X50000Y466991D01*
D02*
G37*
G36*
X202400Y441591D02*
X199659Y441230D01*
X197105Y440172D01*
X194911Y438489D01*
X193228Y436295D01*
X192170Y433741D01*
X191809Y431000D01*
X192170Y428259D01*
X193228Y425705D01*
X194911Y423511D01*
X197105Y421828D01*
X199659Y420770D01*
X202400Y420409D01*
X205141Y420770D01*
X207695Y421828D01*
X209889Y423511D01*
X211572Y425705D01*
X212630Y428259D01*
X212991Y431000D01*
X212630Y433741D01*
X211572Y436295D01*
X209889Y438489D01*
X207695Y440172D01*
X205141Y441230D01*
X202400Y441591D01*
D02*
G37*
G36*
X50000D02*
X47259Y441230D01*
X44705Y440172D01*
X42511Y438489D01*
X40828Y436295D01*
X39770Y433741D01*
X39409Y431000D01*
X39770Y428259D01*
X40828Y425705D01*
X42511Y423511D01*
X44705Y421828D01*
X47259Y420770D01*
X50000Y420409D01*
X52741Y420770D01*
X55295Y421828D01*
X57489Y423511D01*
X59172Y425705D01*
X60230Y428259D01*
X60591Y431000D01*
X60230Y433741D01*
X59172Y436295D01*
X57489Y438489D01*
X55295Y440172D01*
X52741Y441230D01*
X50000Y441591D01*
D02*
G37*
G36*
X202400Y416191D02*
X199659Y415830D01*
X197105Y414772D01*
X194911Y413089D01*
X193228Y410895D01*
X192170Y408341D01*
X191809Y405600D01*
X192170Y402859D01*
X193228Y400305D01*
X194911Y398111D01*
X197105Y396428D01*
X199659Y395370D01*
X202400Y395009D01*
X205141Y395370D01*
X207695Y396428D01*
X209889Y398111D01*
X211572Y400305D01*
X212630Y402859D01*
X212991Y405600D01*
X212630Y408341D01*
X211572Y410895D01*
X209889Y413089D01*
X207695Y414772D01*
X205141Y415830D01*
X202400Y416191D01*
D02*
G37*
G36*
X50000D02*
X47259Y415830D01*
X44705Y414772D01*
X42511Y413089D01*
X40828Y410895D01*
X39770Y408341D01*
X39409Y405600D01*
X39770Y402859D01*
X40828Y400305D01*
X42511Y398111D01*
X44705Y396428D01*
X47259Y395370D01*
X50000Y395009D01*
X52741Y395370D01*
X55295Y396428D01*
X57489Y398111D01*
X59172Y400305D01*
X60230Y402859D01*
X60591Y405600D01*
X60230Y408341D01*
X59172Y410895D01*
X57489Y413089D01*
X55295Y414772D01*
X52741Y415830D01*
X50000Y416191D01*
D02*
G37*
G36*
X202400Y390791D02*
X199659Y390430D01*
X197105Y389372D01*
X194911Y387689D01*
X193228Y385495D01*
X192170Y382941D01*
X191809Y380200D01*
X192170Y377459D01*
X193228Y374905D01*
X194911Y372711D01*
X197105Y371028D01*
X199659Y369970D01*
X202400Y369609D01*
X205141Y369970D01*
X207695Y371028D01*
X209889Y372711D01*
X211572Y374905D01*
X212630Y377459D01*
X212991Y380200D01*
X212630Y382941D01*
X211572Y385495D01*
X209889Y387689D01*
X207695Y389372D01*
X205141Y390430D01*
X202400Y390791D01*
D02*
G37*
G36*
X50000D02*
X47259Y390430D01*
X44705Y389372D01*
X42511Y387689D01*
X40828Y385495D01*
X39770Y382941D01*
X39409Y380200D01*
X39770Y377459D01*
X40828Y374905D01*
X42511Y372711D01*
X44705Y371028D01*
X47259Y369970D01*
X50000Y369609D01*
X52741Y369970D01*
X55295Y371028D01*
X57489Y372711D01*
X59172Y374905D01*
X60230Y377459D01*
X60591Y380200D01*
X60230Y382941D01*
X59172Y385495D01*
X57489Y387689D01*
X55295Y389372D01*
X52741Y390430D01*
X50000Y390791D01*
D02*
G37*
G36*
X345000Y376118D02*
X342659Y375652D01*
X342593Y375608D01*
X295000D01*
X292854Y375181D01*
X291035Y373965D01*
X271035Y353965D01*
X269819Y352146D01*
X269392Y350000D01*
Y302323D01*
X252677Y285608D01*
X210258D01*
X209889Y286089D01*
X207695Y287772D01*
X205141Y288830D01*
X202400Y289191D01*
X199659Y288830D01*
X197105Y287772D01*
X194911Y286089D01*
X193228Y283895D01*
X192170Y281341D01*
X191809Y278600D01*
X192170Y275859D01*
X193228Y273305D01*
X194911Y271111D01*
X197105Y269428D01*
X199659Y268370D01*
X202400Y268009D01*
X205141Y268370D01*
X207695Y269428D01*
X209889Y271111D01*
X211572Y273305D01*
X212022Y274392D01*
X255000D01*
X257146Y274819D01*
X258965Y276035D01*
X278965Y296035D01*
X280181Y297854D01*
X280608Y300000D01*
Y347677D01*
X297323Y364392D01*
X342593D01*
X342659Y364348D01*
X345000Y363882D01*
X347341Y364348D01*
X349326Y365674D01*
X350652Y367659D01*
X351118Y370000D01*
X350652Y372341D01*
X349326Y374326D01*
X347341Y375652D01*
X345000Y376118D01*
D02*
G37*
G36*
X202400Y365391D02*
X199659Y365030D01*
X197105Y363972D01*
X194911Y362289D01*
X193228Y360095D01*
X192170Y357541D01*
X191809Y354800D01*
X192170Y352059D01*
X193228Y349505D01*
X194911Y347311D01*
X197105Y345628D01*
X199659Y344570D01*
X202400Y344209D01*
X205141Y344570D01*
X207695Y345628D01*
X209889Y347311D01*
X211572Y349505D01*
X212630Y352059D01*
X212991Y354800D01*
X212630Y357541D01*
X211572Y360095D01*
X209889Y362289D01*
X207695Y363972D01*
X205141Y365030D01*
X202400Y365391D01*
D02*
G37*
G36*
X50000D02*
X47259Y365030D01*
X44705Y363972D01*
X42511Y362289D01*
X40828Y360095D01*
X39770Y357541D01*
X39409Y354800D01*
X39770Y352059D01*
X40828Y349505D01*
X42511Y347311D01*
X44705Y345628D01*
X47259Y344570D01*
X50000Y344209D01*
X52741Y344570D01*
X55295Y345628D01*
X57489Y347311D01*
X59172Y349505D01*
X60230Y352059D01*
X60591Y354800D01*
X60230Y357541D01*
X59172Y360095D01*
X57489Y362289D01*
X55295Y363972D01*
X52741Y365030D01*
X50000Y365391D01*
D02*
G37*
G36*
X202400Y339991D02*
X199659Y339630D01*
X197105Y338572D01*
X194911Y336889D01*
X193228Y334695D01*
X192170Y332141D01*
X191809Y329400D01*
X192170Y326659D01*
X193228Y324105D01*
X194911Y321911D01*
X197105Y320228D01*
X199659Y319170D01*
X202400Y318809D01*
X205141Y319170D01*
X207695Y320228D01*
X209889Y321911D01*
X211572Y324105D01*
X212630Y326659D01*
X212991Y329400D01*
X212630Y332141D01*
X211572Y334695D01*
X209889Y336889D01*
X207695Y338572D01*
X205141Y339630D01*
X202400Y339991D01*
D02*
G37*
G36*
X50000D02*
X47259Y339630D01*
X44705Y338572D01*
X42511Y336889D01*
X40828Y334695D01*
X39770Y332141D01*
X39409Y329400D01*
X39770Y326659D01*
X40828Y324105D01*
X42511Y321911D01*
X44705Y320228D01*
X47259Y319170D01*
X50000Y318809D01*
X52741Y319170D01*
X55295Y320228D01*
X57489Y321911D01*
X59172Y324105D01*
X60230Y326659D01*
X60591Y329400D01*
X60230Y332141D01*
X59172Y334695D01*
X57489Y336889D01*
X55295Y338572D01*
X52741Y339630D01*
X50000Y339991D01*
D02*
G37*
G36*
X202400Y314591D02*
X199659Y314230D01*
X197105Y313172D01*
X194911Y311489D01*
X193228Y309295D01*
X192170Y306741D01*
X191809Y304000D01*
X192170Y301259D01*
X193228Y298705D01*
X194911Y296511D01*
X197105Y294828D01*
X199659Y293770D01*
X202400Y293409D01*
X205141Y293770D01*
X207695Y294828D01*
X209889Y296511D01*
X211572Y298705D01*
X212630Y301259D01*
X212991Y304000D01*
X212630Y306741D01*
X211572Y309295D01*
X209889Y311489D01*
X207695Y313172D01*
X205141Y314230D01*
X202400Y314591D01*
D02*
G37*
G36*
X50000D02*
X47259Y314230D01*
X44705Y313172D01*
X42511Y311489D01*
X40828Y309295D01*
X39770Y306741D01*
X39409Y304000D01*
X39770Y301259D01*
X40828Y298705D01*
X42511Y296511D01*
X44705Y294828D01*
X47259Y293770D01*
X50000Y293409D01*
X52741Y293770D01*
X55295Y294828D01*
X57489Y296511D01*
X59172Y298705D01*
X60230Y301259D01*
X60591Y304000D01*
X60230Y306741D01*
X59172Y309295D01*
X57489Y311489D01*
X55295Y313172D01*
X52741Y314230D01*
X50000Y314591D01*
D02*
G37*
G36*
X416270Y285396D02*
Y281270D01*
X420396D01*
X420219Y282162D01*
X418994Y283994D01*
X417162Y285219D01*
X416270Y285396D01*
D02*
G37*
G36*
X413730D02*
X412838Y285219D01*
X411006Y283994D01*
X409781Y282162D01*
X409604Y281270D01*
X413730D01*
Y285396D01*
D02*
G37*
G36*
X420396Y278730D02*
X416270D01*
Y274604D01*
X417162Y274781D01*
X418994Y276006D01*
X420219Y277838D01*
X420396Y278730D01*
D02*
G37*
G36*
X413730D02*
X409604D01*
X409781Y277838D01*
X411006Y276006D01*
X412838Y274781D01*
X413730Y274604D01*
Y278730D01*
D02*
G37*
G36*
X50000Y289191D02*
X47259Y288830D01*
X44705Y287772D01*
X42511Y286089D01*
X40828Y283895D01*
X39770Y281341D01*
X39409Y278600D01*
X39770Y275859D01*
X40828Y273305D01*
X42511Y271111D01*
X44705Y269428D01*
X47259Y268370D01*
X50000Y268009D01*
X52741Y268370D01*
X55295Y269428D01*
X57489Y271111D01*
X59172Y273305D01*
X60230Y275859D01*
X60591Y278600D01*
X60230Y281341D01*
X59172Y283895D01*
X57489Y286089D01*
X55295Y287772D01*
X52741Y288830D01*
X50000Y289191D01*
D02*
G37*
G36*
X202400Y263791D02*
X199659Y263430D01*
X197105Y262372D01*
X194911Y260689D01*
X193228Y258495D01*
X192170Y255941D01*
X191809Y253200D01*
X192170Y250459D01*
X193228Y247905D01*
X194911Y245711D01*
X197105Y244028D01*
X199659Y242970D01*
X202400Y242609D01*
X205141Y242970D01*
X207695Y244028D01*
X209889Y245711D01*
X211572Y247905D01*
X212630Y250459D01*
X212991Y253200D01*
X212630Y255941D01*
X211572Y258495D01*
X209889Y260689D01*
X207695Y262372D01*
X205141Y263430D01*
X202400Y263791D01*
D02*
G37*
G36*
X50000D02*
X47259Y263430D01*
X44705Y262372D01*
X42511Y260689D01*
X40828Y258495D01*
X39770Y255941D01*
X39409Y253200D01*
X39770Y250459D01*
X40828Y247905D01*
X42511Y245711D01*
X44705Y244028D01*
X47259Y242970D01*
X50000Y242609D01*
X52741Y242970D01*
X55295Y244028D01*
X57489Y245711D01*
X59172Y247905D01*
X60230Y250459D01*
X60591Y253200D01*
X60230Y255941D01*
X59172Y258495D01*
X57489Y260689D01*
X55295Y262372D01*
X52741Y263430D01*
X50000Y263791D01*
D02*
G37*
G36*
Y238391D02*
X47259Y238030D01*
X44705Y236972D01*
X42511Y235289D01*
X40828Y233095D01*
X39770Y230541D01*
X39409Y227800D01*
X39770Y225059D01*
X40828Y222505D01*
X42511Y220311D01*
X44705Y218628D01*
X47259Y217570D01*
X50000Y217209D01*
X52741Y217570D01*
X55295Y218628D01*
X57489Y220311D01*
X59172Y222505D01*
X60230Y225059D01*
X60591Y227800D01*
X60230Y230541D01*
X59172Y233095D01*
X57489Y235289D01*
X55295Y236972D01*
X52741Y238030D01*
X50000Y238391D01*
D02*
G37*
G36*
X346270Y205396D02*
Y201270D01*
X350396D01*
X350219Y202162D01*
X348994Y203994D01*
X347162Y205219D01*
X346270Y205396D01*
D02*
G37*
G36*
X343730D02*
X342838Y205219D01*
X341006Y203994D01*
X339781Y202162D01*
X339604Y201270D01*
X343730D01*
Y205396D01*
D02*
G37*
G36*
X310000Y361118D02*
X307659Y360652D01*
X305674Y359326D01*
X304348Y357341D01*
X303883Y355000D01*
X304348Y352659D01*
X304392Y352593D01*
Y207407D01*
X304348Y207341D01*
X303883Y205000D01*
X304348Y202659D01*
X305674Y200674D01*
X307659Y199348D01*
X310000Y198883D01*
X312341Y199348D01*
X314326Y200674D01*
X315652Y202659D01*
X316117Y205000D01*
X315652Y207341D01*
X315608Y207407D01*
Y352593D01*
X315652Y352659D01*
X316117Y355000D01*
X315652Y357341D01*
X314326Y359326D01*
X312341Y360652D01*
X310000Y361118D01*
D02*
G37*
G36*
X350396Y198730D02*
X346270D01*
Y194604D01*
X347162Y194781D01*
X348994Y196006D01*
X350219Y197838D01*
X350396Y198730D01*
D02*
G37*
G36*
X343730D02*
X339604D01*
X339781Y197838D01*
X341006Y196006D01*
X342838Y194781D01*
X343730Y194604D01*
Y198730D01*
D02*
G37*
G36*
X202400Y212991D02*
X199659Y212630D01*
X197105Y211572D01*
X194911Y209889D01*
X193228Y207695D01*
X192170Y205141D01*
X191809Y202400D01*
X192170Y199659D01*
X193228Y197105D01*
X194911Y194911D01*
X197105Y193228D01*
X199659Y192170D01*
X202400Y191809D01*
X205141Y192170D01*
X207695Y193228D01*
X209889Y194911D01*
X211572Y197105D01*
X212630Y199659D01*
X212991Y202400D01*
X212630Y205141D01*
X211572Y207695D01*
X209889Y209889D01*
X207695Y211572D01*
X205141Y212630D01*
X202400Y212991D01*
D02*
G37*
G36*
X50000D02*
X47259Y212630D01*
X44705Y211572D01*
X42511Y209889D01*
X40828Y207695D01*
X39770Y205141D01*
X39409Y202400D01*
X39770Y199659D01*
X40828Y197105D01*
X42511Y194911D01*
X44705Y193228D01*
X47259Y192170D01*
X50000Y191809D01*
X52741Y192170D01*
X55295Y193228D01*
X57489Y194911D01*
X59172Y197105D01*
X60230Y199659D01*
X60591Y202400D01*
X60230Y205141D01*
X59172Y207695D01*
X57489Y209889D01*
X55295Y211572D01*
X52741Y212630D01*
X50000Y212991D01*
D02*
G37*
G36*
X202400Y187591D02*
X199659Y187230D01*
X197105Y186172D01*
X194911Y184489D01*
X193228Y182295D01*
X192170Y179741D01*
X191809Y177000D01*
X192170Y174259D01*
X193228Y171705D01*
X194911Y169511D01*
X197105Y167828D01*
X199659Y166770D01*
X202400Y166409D01*
X205141Y166770D01*
X207695Y167828D01*
X209889Y169511D01*
X211572Y171705D01*
X212630Y174259D01*
X212991Y177000D01*
X212630Y179741D01*
X211572Y182295D01*
X209889Y184489D01*
X207695Y186172D01*
X205141Y187230D01*
X202400Y187591D01*
D02*
G37*
G36*
X50000D02*
X47259Y187230D01*
X44705Y186172D01*
X42511Y184489D01*
X40828Y182295D01*
X39770Y179741D01*
X39409Y177000D01*
X39770Y174259D01*
X40828Y171705D01*
X42511Y169511D01*
X44705Y167828D01*
X47259Y166770D01*
X50000Y166409D01*
X52741Y166770D01*
X55295Y167828D01*
X57489Y169511D01*
X59172Y171705D01*
X60230Y174259D01*
X60591Y177000D01*
X60230Y179741D01*
X59172Y182295D01*
X57489Y184489D01*
X55295Y186172D01*
X52741Y187230D01*
X50000Y187591D01*
D02*
G37*
G36*
X296270Y170396D02*
Y166270D01*
X300396D01*
X300219Y167162D01*
X298994Y168994D01*
X297162Y170219D01*
X296270Y170396D01*
D02*
G37*
G36*
X293730D02*
X292838Y170219D01*
X291006Y168994D01*
X289781Y167162D01*
X289604Y166270D01*
X293730D01*
Y170396D01*
D02*
G37*
G36*
X300396Y163730D02*
X296270D01*
Y159604D01*
X297162Y159781D01*
X298994Y161006D01*
X300219Y162838D01*
X300396Y163730D01*
D02*
G37*
G36*
X293730D02*
X289604D01*
X289781Y162838D01*
X291006Y161006D01*
X292838Y159781D01*
X293730Y159604D01*
Y163730D01*
D02*
G37*
G36*
X316270Y145396D02*
Y141270D01*
X320396D01*
X320219Y142162D01*
X318994Y143994D01*
X317162Y145219D01*
X316270Y145396D01*
D02*
G37*
G36*
X313730D02*
X312838Y145219D01*
X311006Y143994D01*
X309781Y142162D01*
X309604Y141270D01*
X313730D01*
Y145396D01*
D02*
G37*
G36*
X202400Y162191D02*
X199659Y161830D01*
X197105Y160772D01*
X194911Y159089D01*
X193228Y156895D01*
X192170Y154341D01*
X191809Y151600D01*
X192170Y148859D01*
X193228Y146305D01*
X194911Y144111D01*
X197105Y142428D01*
X199659Y141370D01*
X202400Y141009D01*
X205141Y141370D01*
X207695Y142428D01*
X209889Y144111D01*
X211572Y146305D01*
X212630Y148859D01*
X212991Y151600D01*
X212630Y154341D01*
X211572Y156895D01*
X209889Y159089D01*
X207695Y160772D01*
X205141Y161830D01*
X202400Y162191D01*
D02*
G37*
G36*
X50000D02*
X47259Y161830D01*
X44705Y160772D01*
X42511Y159089D01*
X40828Y156895D01*
X39770Y154341D01*
X39409Y151600D01*
X39770Y148859D01*
X40828Y146305D01*
X42511Y144111D01*
X44705Y142428D01*
X47259Y141370D01*
X50000Y141009D01*
X52741Y141370D01*
X55295Y142428D01*
X57489Y144111D01*
X59172Y146305D01*
X60230Y148859D01*
X60591Y151600D01*
X60230Y154341D01*
X59172Y156895D01*
X57489Y159089D01*
X55295Y160772D01*
X52741Y161830D01*
X50000Y162191D01*
D02*
G37*
G36*
X320396Y138730D02*
X316270D01*
Y134604D01*
X317162Y134781D01*
X318994Y136006D01*
X320219Y137838D01*
X320396Y138730D01*
D02*
G37*
G36*
X313730D02*
X309604D01*
X309781Y137838D01*
X311006Y136006D01*
X312838Y134781D01*
X313730Y134604D01*
Y138730D01*
D02*
G37*
G36*
X50000Y136791D02*
X47259Y136430D01*
X44705Y135372D01*
X42511Y133689D01*
X40828Y131495D01*
X39770Y128941D01*
X39409Y126200D01*
X39770Y123459D01*
X40828Y120905D01*
X42511Y118711D01*
X44705Y117028D01*
X47259Y115970D01*
X50000Y115609D01*
X52741Y115970D01*
X55295Y117028D01*
X57489Y118711D01*
X59172Y120905D01*
X60230Y123459D01*
X60591Y126200D01*
X60230Y128941D01*
X59172Y131495D01*
X57489Y133689D01*
X55295Y135372D01*
X52741Y136430D01*
X50000Y136791D01*
D02*
G37*
G36*
X202400Y111391D02*
X199659Y111030D01*
X197105Y109972D01*
X194911Y108289D01*
X193228Y106095D01*
X192170Y103541D01*
X191809Y100800D01*
X192170Y98059D01*
X193228Y95505D01*
X194911Y93311D01*
X197105Y91628D01*
X199659Y90570D01*
X202400Y90209D01*
X205141Y90570D01*
X207695Y91628D01*
X209889Y93311D01*
X211572Y95505D01*
X212630Y98059D01*
X212991Y100800D01*
X212630Y103541D01*
X211572Y106095D01*
X209889Y108289D01*
X207695Y109972D01*
X205141Y111030D01*
X202400Y111391D01*
D02*
G37*
G36*
X50000D02*
X47259Y111030D01*
X44705Y109972D01*
X42511Y108289D01*
X40828Y106095D01*
X39770Y103541D01*
X39409Y100800D01*
X39770Y98059D01*
X40828Y95505D01*
X42511Y93311D01*
X44705Y91628D01*
X47259Y90570D01*
X50000Y90209D01*
X52741Y90570D01*
X55295Y91628D01*
X57489Y93311D01*
X59172Y95505D01*
X60230Y98059D01*
X60591Y100800D01*
X60230Y103541D01*
X59172Y106095D01*
X57489Y108289D01*
X55295Y109972D01*
X52741Y111030D01*
X50000Y111391D01*
D02*
G37*
G36*
X202400Y238391D02*
X199659Y238030D01*
X197105Y236972D01*
X194911Y235289D01*
X193228Y233095D01*
X192170Y230541D01*
X191809Y227800D01*
X192170Y225059D01*
X193228Y222505D01*
X194911Y220311D01*
X197105Y218628D01*
X199659Y217570D01*
X202400Y217209D01*
X205141Y217570D01*
X207695Y218628D01*
X209889Y220311D01*
X211102Y221892D01*
X235177D01*
X264392Y192677D01*
Y97407D01*
X264348Y97341D01*
X263883Y95000D01*
X264348Y92659D01*
X265674Y90674D01*
X267659Y89348D01*
X270000Y88882D01*
X272341Y89348D01*
X274326Y90674D01*
X275652Y92659D01*
X276117Y95000D01*
X275652Y97341D01*
X275608Y97407D01*
Y195000D01*
X275181Y197146D01*
X273965Y198965D01*
X241465Y231465D01*
X239646Y232681D01*
X237500Y233108D01*
X211562D01*
X209889Y235289D01*
X207695Y236972D01*
X205141Y238030D01*
X202400Y238391D01*
D02*
G37*
G36*
Y85991D02*
X199659Y85630D01*
X197105Y84572D01*
X194911Y82889D01*
X193228Y80695D01*
X192170Y78141D01*
X191809Y75400D01*
X192170Y72659D01*
X193228Y70105D01*
X194911Y67911D01*
X197105Y66228D01*
X199659Y65170D01*
X202400Y64809D01*
X205141Y65170D01*
X207695Y66228D01*
X209889Y67911D01*
X211572Y70105D01*
X212630Y72659D01*
X212991Y75400D01*
X212630Y78141D01*
X211572Y80695D01*
X209889Y82889D01*
X207695Y84572D01*
X205141Y85630D01*
X202400Y85991D01*
D02*
G37*
G36*
X50000D02*
X47259Y85630D01*
X44705Y84572D01*
X42511Y82889D01*
X40828Y80695D01*
X39770Y78141D01*
X39409Y75400D01*
X39770Y72659D01*
X40828Y70105D01*
X42511Y67911D01*
X44705Y66228D01*
X47259Y65170D01*
X50000Y64809D01*
X52741Y65170D01*
X55295Y66228D01*
X57489Y67911D01*
X59172Y70105D01*
X60230Y72659D01*
X60591Y75400D01*
X60230Y78141D01*
X59172Y80695D01*
X57489Y82889D01*
X55295Y84572D01*
X52741Y85630D01*
X50000Y85991D01*
D02*
G37*
G36*
X60040Y60040D02*
X51270D01*
Y51270D01*
X60040D01*
Y60040D01*
D02*
G37*
G36*
X48730D02*
X39960D01*
Y51270D01*
X48730D01*
Y60040D01*
D02*
G37*
G36*
X60040Y48730D02*
X51270D01*
Y39960D01*
X60040D01*
Y48730D01*
D02*
G37*
G36*
X48730D02*
X39960D01*
Y39960D01*
X48730D01*
Y48730D01*
D02*
G37*
G36*
X212900Y60500D02*
X191900D01*
Y39500D01*
X212900D01*
Y60500D01*
D02*
G37*
G36*
X281270Y35553D02*
Y31428D01*
X285396D01*
X285219Y32319D01*
X283994Y34152D01*
X282162Y35376D01*
X281270Y35553D01*
D02*
G37*
G36*
X278730D02*
X277838Y35376D01*
X276006Y34152D01*
X274781Y32319D01*
X274604Y31428D01*
X278730D01*
Y35553D01*
D02*
G37*
G36*
X285396Y28888D02*
X281270D01*
Y24762D01*
X282162Y24939D01*
X283994Y26163D01*
X285219Y27996D01*
X285396Y28888D01*
D02*
G37*
G36*
X278730D02*
X274604D01*
X274781Y27996D01*
X276006Y26163D01*
X277838Y24939D01*
X278730Y24762D01*
Y28888D01*
D02*
G37*
G36*
X330000Y181117D02*
X327659Y180652D01*
X325674Y179326D01*
X324348Y177341D01*
X324333Y177263D01*
X291035Y143965D01*
X289819Y142146D01*
X289392Y140000D01*
Y97323D01*
X272677Y80608D01*
X247323D01*
X230608Y97323D01*
Y115000D01*
X230181Y117146D01*
X228965Y118965D01*
X219679Y128252D01*
X217859Y129467D01*
X215713Y129894D01*
X212235D01*
X211572Y131495D01*
X209889Y133689D01*
X207695Y135372D01*
X205141Y136430D01*
X202400Y136791D01*
X199659Y136430D01*
X197105Y135372D01*
X194911Y133689D01*
X193228Y131495D01*
X192170Y128941D01*
X191809Y126200D01*
X192170Y123459D01*
X193228Y120905D01*
X194911Y118711D01*
X197105Y117028D01*
X199659Y115970D01*
X202400Y115609D01*
X205141Y115970D01*
X207695Y117028D01*
X209846Y118679D01*
X213391D01*
X219392Y112677D01*
Y95000D01*
X219819Y92854D01*
X221035Y91035D01*
X241035Y71035D01*
X242854Y69819D01*
X245000Y69392D01*
X275000D01*
X277146Y69819D01*
X278965Y71035D01*
X298965Y91035D01*
X300181Y92854D01*
X300608Y95000D01*
Y137677D01*
X323219Y160288D01*
X324392Y159802D01*
Y75000D01*
X324819Y72854D01*
X326035Y71035D01*
X369333Y27737D01*
X369348Y27659D01*
X370674Y25674D01*
X372659Y24348D01*
X375000Y23883D01*
X377341Y24348D01*
X379326Y25674D01*
X380652Y27659D01*
X381118Y30000D01*
X380652Y32341D01*
X379326Y34326D01*
X377341Y35652D01*
X377263Y35667D01*
X335608Y77323D01*
Y172593D01*
X335652Y172659D01*
X336118Y175000D01*
X335652Y177341D01*
X334326Y179326D01*
X332341Y180652D01*
X330000Y181117D01*
D02*
G37*
%LPD*%
D35*
Y75000D02*
X375000Y30000D01*
X330000Y75000D02*
Y175000D01*
X202400Y278600D02*
X203800Y280000D01*
X255000D01*
X275000Y300000D02*
Y350000D01*
X255000Y280000D02*
X275000Y300000D01*
X295000Y370000D02*
X345000D01*
X275000Y350000D02*
X295000Y370000D01*
X202400Y126200D02*
X204313Y124287D01*
X215713D01*
X225000Y115000D01*
Y95000D02*
Y115000D01*
X245000Y75000D02*
X275000D01*
X225000Y95000D02*
X245000Y75000D01*
X295000Y95000D02*
Y140000D01*
X275000Y75000D02*
X295000Y95000D01*
Y140000D02*
X330000Y175000D01*
X202700Y227500D02*
X237500D01*
X270000Y95000D02*
Y195000D01*
X237500Y227500D02*
X270000Y195000D01*
X310000Y205000D02*
Y355000D01*
X385000Y630000D02*
X460000D01*
X375000Y420000D02*
Y620000D01*
X385000Y630000D01*
X202400Y227800D02*
X202700Y227500D01*
D36*
X460000Y630000D02*
D03*
X202400Y50000D02*
D03*
X50000D02*
D03*
D37*
X460000Y655400D02*
D03*
X202400Y634200D02*
D03*
Y608800D02*
D03*
Y583400D02*
D03*
Y558000D02*
D03*
Y532600D02*
D03*
Y507200D02*
D03*
Y481800D02*
D03*
Y456400D02*
D03*
Y431000D02*
D03*
Y405600D02*
D03*
Y380200D02*
D03*
Y354800D02*
D03*
Y329400D02*
D03*
Y304000D02*
D03*
Y278600D02*
D03*
Y253200D02*
D03*
Y227800D02*
D03*
Y202400D02*
D03*
Y177000D02*
D03*
Y151600D02*
D03*
Y126200D02*
D03*
Y100800D02*
D03*
Y75400D02*
D03*
X50000Y634200D02*
D03*
Y608800D02*
D03*
Y583400D02*
D03*
Y558000D02*
D03*
Y532600D02*
D03*
Y507200D02*
D03*
Y481800D02*
D03*
Y456400D02*
D03*
Y431000D02*
D03*
Y405600D02*
D03*
Y380200D02*
D03*
Y354800D02*
D03*
Y329400D02*
D03*
Y304000D02*
D03*
Y278600D02*
D03*
Y253200D02*
D03*
Y227800D02*
D03*
Y202400D02*
D03*
Y177000D02*
D03*
Y151600D02*
D03*
Y126200D02*
D03*
Y100800D02*
D03*
Y75400D02*
D03*
D38*
X375000Y30000D02*
D03*
X345000Y370000D02*
D03*
X295000Y165000D02*
D03*
X330000Y175000D02*
D03*
X335000Y650000D02*
D03*
X280000Y30157D02*
D03*
X345000Y200000D02*
D03*
X310000Y355000D02*
D03*
Y205000D02*
D03*
X315000Y140000D02*
D03*
X415000Y280000D02*
D03*
X400000Y465000D02*
D03*
X375000Y420000D02*
D03*
X270000Y95000D02*
D03*
M02*
