G04*
G04 #@! TF.GenerationSoftware,Altium Limited,Altium Designer,20.0.12 (288)*
G04*
G04 Layer_Color=8388736*
%FSLAX44Y44*%
%MOMM*%
G71*
G01*
G75*
%ADD22C,1.4032*%
%ADD23R,1.1032X0.9032*%
%ADD24R,1.1532X0.8532*%
%ADD25R,1.1532X1.0032*%
%ADD26R,0.9032X1.1032*%
%ADD27R,1.3032X0.8032*%
%ADD28R,1.7032X1.7032*%
%ADD29R,1.4032X2.0032*%
%ADD30R,0.8032X1.7532*%
%ADD31R,1.7032X1.7032*%
%ADD32C,1.7032*%
%ADD33C,0.8032*%
D22*
X355000Y30000D02*
D03*
X445000D02*
D03*
X255000Y30157D02*
D03*
D23*
X370000Y370000D02*
D03*
Y355000D02*
D03*
X450000Y145000D02*
D03*
Y130000D02*
D03*
D24*
X421750Y360000D02*
D03*
X398250Y349500D02*
D03*
Y370500D02*
D03*
X396500Y139500D02*
D03*
X420000Y150000D02*
D03*
Y129000D02*
D03*
D25*
X400000Y439500D02*
D03*
Y420500D02*
D03*
X420000Y430000D02*
D03*
D26*
X360000Y180000D02*
D03*
X345000D02*
D03*
X400000Y300000D02*
D03*
X385000D02*
D03*
X400000Y260000D02*
D03*
X385000D02*
D03*
X310000Y180000D02*
D03*
X295000D02*
D03*
X310000Y100000D02*
D03*
X295000D02*
D03*
D27*
X336000Y149500D02*
D03*
Y140000D02*
D03*
Y130500D02*
D03*
X364000D02*
D03*
Y149500D02*
D03*
D28*
X290000Y300000D02*
D03*
X325000D02*
D03*
X290000Y260000D02*
D03*
X325000D02*
D03*
D29*
X264000Y675250D02*
D03*
X306000D02*
D03*
D30*
X290000Y650000D02*
D03*
X280000D02*
D03*
D31*
X460000Y630000D02*
D03*
X202400Y50000D02*
D03*
X50000D02*
D03*
D32*
X460000Y655400D02*
D03*
X202400Y634200D02*
D03*
Y608800D02*
D03*
Y583400D02*
D03*
Y558000D02*
D03*
Y532600D02*
D03*
Y507200D02*
D03*
Y481800D02*
D03*
Y456400D02*
D03*
Y431000D02*
D03*
Y405600D02*
D03*
Y380200D02*
D03*
Y354800D02*
D03*
Y329400D02*
D03*
Y304000D02*
D03*
Y278600D02*
D03*
Y253200D02*
D03*
Y227800D02*
D03*
Y202400D02*
D03*
Y177000D02*
D03*
Y151600D02*
D03*
Y126200D02*
D03*
Y100800D02*
D03*
Y75400D02*
D03*
X50000Y634200D02*
D03*
Y608800D02*
D03*
Y583400D02*
D03*
Y558000D02*
D03*
Y532600D02*
D03*
Y507200D02*
D03*
Y481800D02*
D03*
Y456400D02*
D03*
Y431000D02*
D03*
Y405600D02*
D03*
Y380200D02*
D03*
Y354800D02*
D03*
Y329400D02*
D03*
Y304000D02*
D03*
Y278600D02*
D03*
Y253200D02*
D03*
Y227800D02*
D03*
Y202400D02*
D03*
Y177000D02*
D03*
Y151600D02*
D03*
Y126200D02*
D03*
Y100800D02*
D03*
Y75400D02*
D03*
D33*
X375000Y30000D02*
D03*
X345000Y370000D02*
D03*
X295000Y165000D02*
D03*
X330000Y175000D02*
D03*
X335000Y650000D02*
D03*
X280000Y30157D02*
D03*
X345000Y200000D02*
D03*
X310000Y355000D02*
D03*
Y205000D02*
D03*
X315000Y140000D02*
D03*
X415000Y280000D02*
D03*
X400000Y465000D02*
D03*
X375000Y420000D02*
D03*
X270000Y95000D02*
D03*
M02*
