G04*
G04 #@! TF.GenerationSoftware,Altium Limited,Altium Designer,20.0.12 (288)*
G04*
G04 Layer_Physical_Order=1*
G04 Layer_Color=255*
%FSLAX44Y44*%
%MOMM*%
G71*
G01*
G75*
%ADD14R,0.9000X0.7000*%
%ADD15R,0.9500X0.6500*%
%ADD16R,0.9500X0.8000*%
%ADD17R,0.7000X0.9000*%
%ADD18R,1.1000X0.6000*%
%ADD19R,1.5000X1.5000*%
%ADD20R,1.2000X1.8000*%
%ADD21R,0.6000X1.5500*%
%ADD34C,1.2000*%
%ADD35C,0.5000*%
%ADD36R,1.5000X1.5000*%
%ADD37C,1.5000*%
%ADD38C,0.6000*%
G36*
X469392Y38752D02*
X466248Y35608D01*
X452041D01*
X451419Y36419D01*
X449539Y37861D01*
X447350Y38768D01*
X445000Y39078D01*
X442650Y38768D01*
X440461Y37861D01*
X438581Y36419D01*
X437492Y35000D01*
X378317D01*
X377341Y35652D01*
X375000Y36117D01*
X372659Y35652D01*
X372593Y35608D01*
X362041D01*
X361419Y36419D01*
X359539Y37861D01*
X357350Y38768D01*
X355000Y39078D01*
X352650Y38768D01*
X350461Y37861D01*
X348581Y36419D01*
X347492Y35000D01*
X283552D01*
X282341Y35809D01*
X280000Y36275D01*
X277659Y35809D01*
X277357Y35608D01*
X262162D01*
X261419Y36576D01*
X259539Y38019D01*
X257349Y38926D01*
X255000Y39235D01*
X252651Y38926D01*
X250461Y38019D01*
X248581Y36576D01*
X247372Y35000D01*
X180000D01*
X180000Y65000D01*
X200952D01*
X202400Y64809D01*
X203848Y65000D01*
X415000D01*
Y117570D01*
X420181Y122750D01*
X427750D01*
Y123892D01*
X442500D01*
Y123500D01*
X457500D01*
Y136500D01*
X442500D01*
Y135108D01*
X427750D01*
Y135250D01*
X415000D01*
Y144210D01*
X418730D01*
Y150000D01*
Y155790D01*
X415000D01*
Y160000D01*
X469392D01*
Y38752D01*
D02*
G37*
G36*
X410000Y130000D02*
X370608Y90608D01*
X300000D01*
Y92500D01*
X301500D01*
Y107500D01*
X300608D01*
Y120000D01*
X350000D01*
Y140000D01*
X375000D01*
Y160000D01*
X410000D01*
Y130000D01*
D02*
G37*
%LPC*%
G36*
X427290Y155790D02*
X421270D01*
Y151270D01*
X427290D01*
Y155790D01*
D02*
G37*
G36*
X457040Y151040D02*
X451270D01*
Y146270D01*
X457040D01*
Y151040D01*
D02*
G37*
G36*
X448730D02*
X442960D01*
Y146270D01*
X448730D01*
Y151040D01*
D02*
G37*
G36*
X427290Y148730D02*
X421270D01*
Y144210D01*
X427290D01*
Y148730D01*
D02*
G37*
G36*
X457040Y143730D02*
X451270D01*
Y138960D01*
X457040D01*
Y143730D01*
D02*
G37*
G36*
X448730D02*
X442960D01*
Y138960D01*
X448730D01*
Y143730D01*
D02*
G37*
G36*
X212440Y60040D02*
X203670D01*
Y51270D01*
X212440D01*
Y60040D01*
D02*
G37*
G36*
X201130D02*
X192360D01*
Y51270D01*
X201130D01*
Y60040D01*
D02*
G37*
G36*
X212440Y48730D02*
X203670D01*
Y39960D01*
X212440D01*
Y48730D01*
D02*
G37*
G36*
X201130D02*
X192360D01*
Y39960D01*
X201130D01*
Y48730D01*
D02*
G37*
G36*
X403790Y145290D02*
X397770D01*
Y140770D01*
X403790D01*
Y145290D01*
D02*
G37*
G36*
X395230D02*
X389210D01*
Y140770D01*
X395230D01*
Y145290D01*
D02*
G37*
G36*
X403790Y138230D02*
X397770D01*
Y133710D01*
X403790D01*
Y138230D01*
D02*
G37*
G36*
X395230D02*
X389210D01*
Y133710D01*
X395230D01*
Y138230D01*
D02*
G37*
G36*
X372040Y136040D02*
X365270D01*
Y131770D01*
X372040D01*
Y136040D01*
D02*
G37*
G36*
X362730D02*
X355960D01*
Y131770D01*
X362730D01*
Y136040D01*
D02*
G37*
G36*
X372040Y129230D02*
X365270D01*
Y124960D01*
X372040D01*
Y129230D01*
D02*
G37*
G36*
X362730D02*
X355960D01*
Y124960D01*
X362730D01*
Y129230D01*
D02*
G37*
G36*
X316040Y107040D02*
X311270D01*
Y101270D01*
X316040D01*
Y107040D01*
D02*
G37*
G36*
X308730D02*
X303960D01*
Y101270D01*
X308730D01*
Y107040D01*
D02*
G37*
G36*
X316040Y98730D02*
X311270D01*
Y92960D01*
X316040D01*
Y98730D01*
D02*
G37*
G36*
X308730D02*
X303960D01*
Y92960D01*
X308730D01*
Y98730D01*
D02*
G37*
%LPD*%
D14*
X370000Y370000D02*
D03*
Y355000D02*
D03*
X450000Y145000D02*
D03*
Y130000D02*
D03*
D15*
X421750Y360000D02*
D03*
X398250Y349500D02*
D03*
Y370500D02*
D03*
X396500Y139500D02*
D03*
X420000Y150000D02*
D03*
Y129000D02*
D03*
D16*
X400000Y439500D02*
D03*
Y420500D02*
D03*
X420000Y430000D02*
D03*
D17*
X360000Y180000D02*
D03*
X345000D02*
D03*
X400000Y300000D02*
D03*
X385000D02*
D03*
X400000Y260000D02*
D03*
X385000D02*
D03*
X310000Y180000D02*
D03*
X295000D02*
D03*
X310000Y100000D02*
D03*
X295000D02*
D03*
D18*
X336000Y149500D02*
D03*
Y140000D02*
D03*
Y130500D02*
D03*
X364000D02*
D03*
Y149500D02*
D03*
D19*
X290000Y300000D02*
D03*
X325000D02*
D03*
X290000Y260000D02*
D03*
X325000D02*
D03*
D20*
X264000Y675250D02*
D03*
X306000D02*
D03*
D21*
X290000Y650000D02*
D03*
X280000D02*
D03*
D34*
X355000Y30000D02*
D03*
X445000D02*
D03*
X255000Y30157D02*
D03*
D35*
X310000Y355000D02*
X371000D01*
X445000Y30000D02*
X468571D01*
X475000Y36429D01*
X255000Y30000D02*
X280000D01*
X355000D02*
X375000D01*
X275000Y85000D02*
X374500D01*
X270000Y90000D02*
Y95000D01*
X202400Y50000D02*
X450000D01*
X270000Y90000D02*
X275000Y85000D01*
X374500D02*
X418500Y129000D01*
X450000Y50000D02*
X465000Y65000D01*
Y131000D01*
X345000Y370000D02*
X370000D01*
X345000Y370000D02*
X345000Y370000D01*
X295000Y100000D02*
Y180000D01*
X333500Y149500D02*
X336000D01*
X333000Y150000D02*
X333500Y149500D01*
X333000Y150000D02*
Y152500D01*
X330000Y155500D02*
X333000Y152500D01*
X330000Y155500D02*
Y175000D01*
X290000Y650000D02*
X335000D01*
X450000Y145000D02*
X451000D01*
X475000Y36429D02*
Y185000D01*
X455000Y205000D02*
X475000Y185000D01*
X310000Y100000D02*
X350000D01*
X364000Y114000D01*
Y130500D01*
X365000Y205000D02*
X455000D01*
X335000Y215000D02*
X355000D01*
X365000Y205000D01*
X310000D02*
X325000D01*
X335000Y215000D01*
X345000Y180000D02*
Y200000D01*
X303000Y153000D02*
X310000Y160000D01*
X303000Y137000D02*
X309500Y130500D01*
X303000Y137000D02*
Y153000D01*
X310000Y160000D02*
Y180000D01*
Y205000D01*
X260400Y235000D02*
X405000D01*
X202400Y177000D02*
X260400Y235000D01*
X405000D02*
X435000Y265000D01*
X420000Y485000D02*
X435000Y470000D01*
Y265000D02*
Y470000D01*
X280000Y385000D02*
Y650000D01*
Y385000D02*
X310000Y355000D01*
X309500Y130500D02*
X336000D01*
X315000Y140000D02*
X336000D01*
X400000Y280000D02*
Y300000D01*
Y260000D02*
Y280000D01*
X415000D01*
X390000Y485000D02*
X420000D01*
X375000Y470000D02*
X390000Y485000D01*
X375000Y420000D02*
Y470000D01*
X400000Y439500D02*
X400000Y439500D01*
X400000Y439500D02*
Y465000D01*
X399691Y420191D02*
X400000Y420500D01*
X375191Y420191D02*
X399691D01*
X375000Y420000D02*
X375191Y420191D01*
X420000Y430000D02*
X420250D01*
X421750Y428500D01*
Y360000D02*
Y428500D01*
X370000Y370000D02*
X370250Y370250D01*
X398000D02*
X398250Y370500D01*
X370250Y370250D02*
X398000D01*
X376500Y349500D02*
X398250D01*
X371000Y355000D02*
X376500Y349500D01*
X325000Y300000D02*
X385000D01*
X325000Y260000D02*
X385000D01*
X246400D02*
X290000D01*
X202400Y304000D02*
X246400Y260000D01*
X260600Y329400D02*
X290000Y300000D01*
X202400Y329400D02*
X260600D01*
X449500Y129500D02*
X450000Y130000D01*
X420500Y129500D02*
X449500D01*
X420000Y129000D02*
X420500Y129500D01*
X418500Y129000D02*
X420000D01*
X395750Y138750D02*
X396500Y139500D01*
X360000Y166500D02*
Y180000D01*
Y166500D02*
X364000Y162500D01*
Y149500D02*
Y162500D01*
D36*
X460000Y630000D02*
D03*
X202400Y50000D02*
D03*
X50000D02*
D03*
D37*
X460000Y655400D02*
D03*
X202400Y634200D02*
D03*
Y608800D02*
D03*
Y583400D02*
D03*
Y558000D02*
D03*
Y532600D02*
D03*
Y507200D02*
D03*
Y481800D02*
D03*
Y456400D02*
D03*
Y431000D02*
D03*
Y405600D02*
D03*
Y380200D02*
D03*
Y354800D02*
D03*
Y329400D02*
D03*
Y304000D02*
D03*
Y278600D02*
D03*
Y253200D02*
D03*
Y227800D02*
D03*
Y202400D02*
D03*
Y177000D02*
D03*
Y151600D02*
D03*
Y126200D02*
D03*
Y100800D02*
D03*
Y75400D02*
D03*
X50000Y634200D02*
D03*
Y608800D02*
D03*
Y583400D02*
D03*
Y558000D02*
D03*
Y532600D02*
D03*
Y507200D02*
D03*
Y481800D02*
D03*
Y456400D02*
D03*
Y431000D02*
D03*
Y405600D02*
D03*
Y380200D02*
D03*
Y354800D02*
D03*
Y329400D02*
D03*
Y304000D02*
D03*
Y278600D02*
D03*
Y253200D02*
D03*
Y227800D02*
D03*
Y202400D02*
D03*
Y177000D02*
D03*
Y151600D02*
D03*
Y126200D02*
D03*
Y100800D02*
D03*
Y75400D02*
D03*
D38*
X375000Y30000D02*
D03*
X345000Y370000D02*
D03*
X295000Y165000D02*
D03*
X330000Y175000D02*
D03*
X335000Y650000D02*
D03*
X280000Y30157D02*
D03*
X345000Y200000D02*
D03*
X310000Y355000D02*
D03*
Y205000D02*
D03*
X315000Y140000D02*
D03*
X415000Y280000D02*
D03*
X400000Y465000D02*
D03*
X375000Y420000D02*
D03*
X270000Y95000D02*
D03*
M02*
