G04*
G04 #@! TF.GenerationSoftware,Altium Limited,Altium Designer,20.0.14 (345)*
G04*
G04 Layer_Physical_Order=2*
G04 Layer_Color=16711680*
%FSLAX44Y44*%
%MOMM*%
G71*
G01*
G75*
%ADD37C,0.5000*%
%ADD38C,1.5000*%
%ADD39R,1.5000X1.5000*%
%ADD40C,0.6000*%
G36*
X470000Y660917D02*
X468857Y660504D01*
X468730Y660515D01*
X467161Y662561D01*
X465063Y664170D01*
X462621Y665182D01*
X461270Y665359D01*
Y655400D01*
Y645441D01*
X462621Y645618D01*
X465063Y646630D01*
X467161Y648239D01*
X468730Y650285D01*
X468857Y650296D01*
X470000Y649883D01*
Y640500D01*
X449500D01*
Y619500D01*
X470000D01*
Y367917D01*
X468857Y367504D01*
X468730Y367515D01*
X467161Y369561D01*
X465063Y371170D01*
X462621Y372182D01*
X461270Y372359D01*
Y362400D01*
Y352441D01*
X462621Y352618D01*
X465063Y353630D01*
X467161Y355239D01*
X468730Y357285D01*
X468857Y357296D01*
X470000Y356883D01*
Y343302D01*
X468730Y342871D01*
X467489Y344489D01*
X465295Y346172D01*
X462741Y347230D01*
X460000Y347591D01*
X457259Y347230D01*
X454705Y346172D01*
X452511Y344489D01*
X451068Y342608D01*
X409000D01*
X406854Y342181D01*
X405035Y340965D01*
X393677Y329608D01*
X329407D01*
X329341Y329652D01*
X327000Y330118D01*
X324659Y329652D01*
X322674Y328326D01*
X321348Y326341D01*
X320882Y324000D01*
X321348Y321659D01*
X322674Y319674D01*
X324659Y318348D01*
X327000Y317882D01*
X329341Y318348D01*
X329407Y318392D01*
X396000D01*
X398146Y318819D01*
X399965Y320035D01*
X411323Y331392D01*
X451068D01*
X452511Y329511D01*
X454705Y327828D01*
X457259Y326770D01*
X460000Y326409D01*
X462741Y326770D01*
X465295Y327828D01*
X467489Y329511D01*
X468730Y331129D01*
X470000Y330698D01*
Y322100D01*
X449500D01*
Y309031D01*
X415077Y274608D01*
X280608D01*
Y411677D01*
X308323Y439392D01*
X357593D01*
X357659Y439348D01*
X360000Y438882D01*
X362341Y439348D01*
X364326Y440674D01*
X365652Y442659D01*
X366118Y445000D01*
X365652Y447341D01*
X364326Y449326D01*
X362341Y450652D01*
X360000Y451118D01*
X357659Y450652D01*
X357593Y450608D01*
X306000D01*
X303854Y450181D01*
X302035Y448965D01*
X271035Y417965D01*
X269819Y416146D01*
X269392Y414000D01*
Y271407D01*
X269348Y271341D01*
X268883Y269000D01*
X269348Y266659D01*
X270674Y264674D01*
X272659Y263348D01*
X275000Y262882D01*
X277341Y263348D01*
X277407Y263392D01*
X417400D01*
X419546Y263819D01*
X421365Y265035D01*
X457431Y301100D01*
X470000D01*
Y20000D01*
X20000D01*
Y680000D01*
X470000D01*
Y660917D01*
D02*
G37*
%LPC*%
G36*
X458730Y665359D02*
X457379Y665182D01*
X454937Y664170D01*
X452839Y662561D01*
X451230Y660463D01*
X450218Y658021D01*
X450041Y656670D01*
X458730D01*
Y665359D01*
D02*
G37*
G36*
X336270Y655396D02*
Y651270D01*
X340396D01*
X340219Y652162D01*
X338994Y653994D01*
X337162Y655219D01*
X336270Y655396D01*
D02*
G37*
G36*
X333730D02*
X332838Y655219D01*
X331006Y653994D01*
X329781Y652162D01*
X329604Y651270D01*
X333730D01*
Y655396D01*
D02*
G37*
G36*
X458730Y654130D02*
X450041D01*
X450218Y652779D01*
X451230Y650337D01*
X452839Y648239D01*
X454937Y646630D01*
X457379Y645618D01*
X458730Y645441D01*
Y654130D01*
D02*
G37*
G36*
X340396Y648730D02*
X336270D01*
Y644604D01*
X337162Y644781D01*
X338994Y646006D01*
X340219Y647838D01*
X340396Y648730D01*
D02*
G37*
G36*
X333730D02*
X329604D01*
X329781Y647838D01*
X331006Y646006D01*
X332838Y644781D01*
X333730Y644604D01*
Y648730D01*
D02*
G37*
G36*
X202400Y644791D02*
X199659Y644430D01*
X197105Y643372D01*
X194911Y641689D01*
X193228Y639495D01*
X192170Y636941D01*
X191809Y634200D01*
X192170Y631459D01*
X193228Y628905D01*
X194911Y626711D01*
X197105Y625028D01*
X199659Y623970D01*
X202400Y623609D01*
X205141Y623970D01*
X207695Y625028D01*
X209889Y626711D01*
X211572Y628905D01*
X212630Y631459D01*
X212991Y634200D01*
X212630Y636941D01*
X211572Y639495D01*
X209889Y641689D01*
X207695Y643372D01*
X205141Y644430D01*
X202400Y644791D01*
D02*
G37*
G36*
X50000D02*
X47259Y644430D01*
X44705Y643372D01*
X42511Y641689D01*
X40828Y639495D01*
X39770Y636941D01*
X39409Y634200D01*
X39770Y631459D01*
X40828Y628905D01*
X42511Y626711D01*
X44705Y625028D01*
X47259Y623970D01*
X50000Y623609D01*
X52741Y623970D01*
X55295Y625028D01*
X57489Y626711D01*
X59172Y628905D01*
X60230Y631459D01*
X60591Y634200D01*
X60230Y636941D01*
X59172Y639495D01*
X57489Y641689D01*
X55295Y643372D01*
X52741Y644430D01*
X50000Y644791D01*
D02*
G37*
G36*
X441270Y602396D02*
Y598270D01*
X445396D01*
X445219Y599162D01*
X443994Y600994D01*
X442162Y602219D01*
X441270Y602396D01*
D02*
G37*
G36*
X438730D02*
X437838Y602219D01*
X436006Y600994D01*
X434781Y599162D01*
X434604Y598270D01*
X438730D01*
Y602396D01*
D02*
G37*
G36*
X202400Y619391D02*
X199659Y619030D01*
X197105Y617972D01*
X194911Y616289D01*
X193228Y614095D01*
X192170Y611541D01*
X191809Y608800D01*
X192170Y606059D01*
X193228Y603505D01*
X194911Y601311D01*
X197105Y599628D01*
X199659Y598570D01*
X202400Y598209D01*
X205141Y598570D01*
X207695Y599628D01*
X209889Y601311D01*
X211572Y603505D01*
X212630Y606059D01*
X212991Y608800D01*
X212630Y611541D01*
X211572Y614095D01*
X209889Y616289D01*
X207695Y617972D01*
X205141Y619030D01*
X202400Y619391D01*
D02*
G37*
G36*
X50000D02*
X47259Y619030D01*
X44705Y617972D01*
X42511Y616289D01*
X40828Y614095D01*
X39770Y611541D01*
X39409Y608800D01*
X39770Y606059D01*
X40828Y603505D01*
X42511Y601311D01*
X44705Y599628D01*
X47259Y598570D01*
X50000Y598209D01*
X52741Y598570D01*
X55295Y599628D01*
X57489Y601311D01*
X59172Y603505D01*
X60230Y606059D01*
X60591Y608800D01*
X60230Y611541D01*
X59172Y614095D01*
X57489Y616289D01*
X55295Y617972D01*
X52741Y619030D01*
X50000Y619391D01*
D02*
G37*
G36*
X445396Y595730D02*
X441270D01*
Y591604D01*
X442162Y591782D01*
X443994Y593006D01*
X445219Y594838D01*
X445396Y595730D01*
D02*
G37*
G36*
X438730D02*
X434604D01*
X434781Y594838D01*
X436006Y593006D01*
X437838Y591782D01*
X438730Y591604D01*
Y595730D01*
D02*
G37*
G36*
X250000Y629118D02*
X247659Y628652D01*
X245674Y627326D01*
X244348Y625341D01*
X243883Y623000D01*
X244348Y620659D01*
X244392Y620593D01*
Y609000D01*
X244819Y606854D01*
X246035Y605035D01*
X259035Y592035D01*
X260854Y590819D01*
X263000Y590392D01*
X346677D01*
X354333Y582737D01*
X354348Y582659D01*
X355674Y580674D01*
X357659Y579348D01*
X360000Y578882D01*
X362341Y579348D01*
X364326Y580674D01*
X365652Y582659D01*
X366118Y585000D01*
X365652Y587341D01*
X364326Y589326D01*
X362341Y590652D01*
X362263Y590667D01*
X352965Y599965D01*
X351146Y601181D01*
X349000Y601608D01*
X265323D01*
X255608Y611323D01*
Y620593D01*
X255652Y620659D01*
X256117Y623000D01*
X255652Y625341D01*
X254326Y627326D01*
X252341Y628652D01*
X250000Y629118D01*
D02*
G37*
G36*
X202400Y593991D02*
X199659Y593630D01*
X197105Y592572D01*
X194911Y590889D01*
X193228Y588695D01*
X192170Y586141D01*
X191809Y583400D01*
X192170Y580659D01*
X193228Y578105D01*
X194911Y575911D01*
X197105Y574228D01*
X199659Y573170D01*
X202400Y572809D01*
X205141Y573170D01*
X207695Y574228D01*
X209889Y575911D01*
X211572Y578105D01*
X212630Y580659D01*
X212991Y583400D01*
X212630Y586141D01*
X211572Y588695D01*
X209889Y590889D01*
X207695Y592572D01*
X205141Y593630D01*
X202400Y593991D01*
D02*
G37*
G36*
X50000D02*
X47259Y593630D01*
X44705Y592572D01*
X42511Y590889D01*
X40828Y588695D01*
X39770Y586141D01*
X39409Y583400D01*
X39770Y580659D01*
X40828Y578105D01*
X42511Y575911D01*
X44705Y574228D01*
X47259Y573170D01*
X50000Y572809D01*
X52741Y573170D01*
X55295Y574228D01*
X57489Y575911D01*
X59172Y578105D01*
X60230Y580659D01*
X60591Y583400D01*
X60230Y586141D01*
X59172Y588695D01*
X57489Y590889D01*
X55295Y592572D01*
X52741Y593630D01*
X50000Y593991D01*
D02*
G37*
G36*
X202400Y568591D02*
X199659Y568230D01*
X197105Y567172D01*
X194911Y565489D01*
X193228Y563295D01*
X192170Y560741D01*
X191809Y558000D01*
X192170Y555259D01*
X193228Y552705D01*
X194911Y550511D01*
X197105Y548828D01*
X199659Y547770D01*
X202400Y547409D01*
X205141Y547770D01*
X207695Y548828D01*
X209889Y550511D01*
X211572Y552705D01*
X212630Y555259D01*
X212991Y558000D01*
X212630Y560741D01*
X211572Y563295D01*
X209889Y565489D01*
X207695Y567172D01*
X205141Y568230D01*
X202400Y568591D01*
D02*
G37*
G36*
X50000D02*
X47259Y568230D01*
X44705Y567172D01*
X42511Y565489D01*
X40828Y563295D01*
X39770Y560741D01*
X39409Y558000D01*
X39770Y555259D01*
X40828Y552705D01*
X42511Y550511D01*
X44705Y548828D01*
X47259Y547770D01*
X50000Y547409D01*
X52741Y547770D01*
X55295Y548828D01*
X57489Y550511D01*
X59172Y552705D01*
X60230Y555259D01*
X60591Y558000D01*
X60230Y560741D01*
X59172Y563295D01*
X57489Y565489D01*
X55295Y567172D01*
X52741Y568230D01*
X50000Y568591D01*
D02*
G37*
G36*
X447000Y541118D02*
X444659Y540652D01*
X444593Y540608D01*
X413407D01*
X413341Y540652D01*
X411000Y541118D01*
X408659Y540652D01*
X406674Y539326D01*
X405348Y537341D01*
X404883Y535000D01*
X405348Y532659D01*
X406674Y530674D01*
X408659Y529348D01*
X411000Y528882D01*
X413341Y529348D01*
X413407Y529392D01*
X444593D01*
X444659Y529348D01*
X447000Y528882D01*
X449341Y529348D01*
X451326Y530674D01*
X452652Y532659D01*
X453117Y535000D01*
X452652Y537341D01*
X451326Y539326D01*
X449341Y540652D01*
X447000Y541118D01*
D02*
G37*
G36*
X393270Y536396D02*
Y532270D01*
X397396D01*
X397219Y533162D01*
X395994Y534994D01*
X394162Y536219D01*
X393270Y536396D01*
D02*
G37*
G36*
X390730D02*
X389838Y536219D01*
X388006Y534994D01*
X386781Y533162D01*
X386604Y532270D01*
X390730D01*
Y536396D01*
D02*
G37*
G36*
X397396Y529730D02*
X393270D01*
Y525604D01*
X394162Y525781D01*
X395994Y527006D01*
X397219Y528838D01*
X397396Y529730D01*
D02*
G37*
G36*
X390730D02*
X386604D01*
X386781Y528838D01*
X388006Y527006D01*
X389838Y525781D01*
X390730Y525604D01*
Y529730D01*
D02*
G37*
G36*
X202400Y543191D02*
X199659Y542830D01*
X197105Y541772D01*
X194911Y540089D01*
X193228Y537895D01*
X192170Y535341D01*
X191809Y532600D01*
X192170Y529859D01*
X193228Y527305D01*
X194911Y525111D01*
X197105Y523428D01*
X199659Y522370D01*
X202400Y522009D01*
X205141Y522370D01*
X207695Y523428D01*
X209889Y525111D01*
X211572Y527305D01*
X212630Y529859D01*
X212991Y532600D01*
X212630Y535341D01*
X211572Y537895D01*
X209889Y540089D01*
X207695Y541772D01*
X205141Y542830D01*
X202400Y543191D01*
D02*
G37*
G36*
X50000D02*
X47259Y542830D01*
X44705Y541772D01*
X42511Y540089D01*
X40828Y537895D01*
X39770Y535341D01*
X39409Y532600D01*
X39770Y529859D01*
X40828Y527305D01*
X42511Y525111D01*
X44705Y523428D01*
X47259Y522370D01*
X50000Y522009D01*
X52741Y522370D01*
X55295Y523428D01*
X57489Y525111D01*
X59172Y527305D01*
X60230Y529859D01*
X60591Y532600D01*
X60230Y535341D01*
X59172Y537895D01*
X57489Y540089D01*
X55295Y541772D01*
X52741Y542830D01*
X50000Y543191D01*
D02*
G37*
G36*
X202400Y517791D02*
X199659Y517430D01*
X197105Y516372D01*
X194911Y514689D01*
X193228Y512495D01*
X192170Y509941D01*
X191809Y507200D01*
X192170Y504459D01*
X193228Y501905D01*
X194911Y499711D01*
X197105Y498028D01*
X199659Y496970D01*
X202400Y496609D01*
X205141Y496970D01*
X207695Y498028D01*
X209889Y499711D01*
X211572Y501905D01*
X212630Y504459D01*
X212991Y507200D01*
X212630Y509941D01*
X211572Y512495D01*
X209889Y514689D01*
X207695Y516372D01*
X205141Y517430D01*
X202400Y517791D01*
D02*
G37*
G36*
X50000D02*
X47259Y517430D01*
X44705Y516372D01*
X42511Y514689D01*
X40828Y512495D01*
X39770Y509941D01*
X39409Y507200D01*
X39770Y504459D01*
X40828Y501905D01*
X42511Y499711D01*
X44705Y498028D01*
X47259Y496970D01*
X50000Y496609D01*
X52741Y496970D01*
X55295Y498028D01*
X57489Y499711D01*
X59172Y501905D01*
X60230Y504459D01*
X60591Y507200D01*
X60230Y509941D01*
X59172Y512495D01*
X57489Y514689D01*
X55295Y516372D01*
X52741Y517430D01*
X50000Y517791D01*
D02*
G37*
G36*
X462000Y479118D02*
X459659Y478652D01*
X459593Y478608D01*
X414407D01*
X414341Y478652D01*
X412000Y479118D01*
X409659Y478652D01*
X407674Y477326D01*
X406348Y475341D01*
X405882Y473000D01*
X406348Y470659D01*
X407674Y468674D01*
X409659Y467348D01*
X412000Y466883D01*
X414341Y467348D01*
X414407Y467392D01*
X459593D01*
X459659Y467348D01*
X462000Y466883D01*
X464341Y467348D01*
X466326Y468674D01*
X467652Y470659D01*
X468117Y473000D01*
X467652Y475341D01*
X466326Y477326D01*
X464341Y478652D01*
X462000Y479118D01*
D02*
G37*
G36*
X202400Y492391D02*
X199659Y492030D01*
X197105Y490972D01*
X194911Y489289D01*
X193228Y487095D01*
X192170Y484541D01*
X191809Y481800D01*
X192170Y479059D01*
X193228Y476505D01*
X194911Y474311D01*
X197105Y472628D01*
X199659Y471570D01*
X202400Y471209D01*
X205141Y471570D01*
X207695Y472628D01*
X209889Y474311D01*
X211572Y476505D01*
X212630Y479059D01*
X212991Y481800D01*
X212630Y484541D01*
X211572Y487095D01*
X209889Y489289D01*
X207695Y490972D01*
X205141Y492030D01*
X202400Y492391D01*
D02*
G37*
G36*
X50000D02*
X47259Y492030D01*
X44705Y490972D01*
X42511Y489289D01*
X40828Y487095D01*
X39770Y484541D01*
X39409Y481800D01*
X39770Y479059D01*
X40828Y476505D01*
X42511Y474311D01*
X44705Y472628D01*
X47259Y471570D01*
X50000Y471209D01*
X52741Y471570D01*
X55295Y472628D01*
X57489Y474311D01*
X59172Y476505D01*
X60230Y479059D01*
X60591Y481800D01*
X60230Y484541D01*
X59172Y487095D01*
X57489Y489289D01*
X55295Y490972D01*
X52741Y492030D01*
X50000Y492391D01*
D02*
G37*
G36*
X202400Y466991D02*
X199659Y466630D01*
X197105Y465572D01*
X194911Y463889D01*
X193228Y461695D01*
X192170Y459141D01*
X191809Y456400D01*
X192170Y453659D01*
X193228Y451105D01*
X194911Y448911D01*
X197105Y447228D01*
X199659Y446170D01*
X202400Y445809D01*
X205141Y446170D01*
X207695Y447228D01*
X209889Y448911D01*
X211572Y451105D01*
X212630Y453659D01*
X212991Y456400D01*
X212630Y459141D01*
X211572Y461695D01*
X209889Y463889D01*
X207695Y465572D01*
X205141Y466630D01*
X202400Y466991D01*
D02*
G37*
G36*
X50000D02*
X47259Y466630D01*
X44705Y465572D01*
X42511Y463889D01*
X40828Y461695D01*
X39770Y459141D01*
X39409Y456400D01*
X39770Y453659D01*
X40828Y451105D01*
X42511Y448911D01*
X44705Y447228D01*
X47259Y446170D01*
X50000Y445809D01*
X52741Y446170D01*
X55295Y447228D01*
X57489Y448911D01*
X59172Y451105D01*
X60230Y453659D01*
X60591Y456400D01*
X60230Y459141D01*
X59172Y461695D01*
X57489Y463889D01*
X55295Y465572D01*
X52741Y466630D01*
X50000Y466991D01*
D02*
G37*
G36*
X202400Y441591D02*
X199659Y441230D01*
X197105Y440172D01*
X194911Y438489D01*
X193228Y436295D01*
X192170Y433741D01*
X191809Y431000D01*
X192170Y428259D01*
X193228Y425705D01*
X194911Y423511D01*
X197105Y421828D01*
X199659Y420770D01*
X202400Y420409D01*
X205141Y420770D01*
X207695Y421828D01*
X209889Y423511D01*
X211572Y425705D01*
X212630Y428259D01*
X212991Y431000D01*
X212630Y433741D01*
X211572Y436295D01*
X209889Y438489D01*
X207695Y440172D01*
X205141Y441230D01*
X202400Y441591D01*
D02*
G37*
G36*
X50000D02*
X47259Y441230D01*
X44705Y440172D01*
X42511Y438489D01*
X40828Y436295D01*
X39770Y433741D01*
X39409Y431000D01*
X39770Y428259D01*
X40828Y425705D01*
X42511Y423511D01*
X44705Y421828D01*
X47259Y420770D01*
X50000Y420409D01*
X52741Y420770D01*
X55295Y421828D01*
X57489Y423511D01*
X59172Y425705D01*
X60230Y428259D01*
X60591Y431000D01*
X60230Y433741D01*
X59172Y436295D01*
X57489Y438489D01*
X55295Y440172D01*
X52741Y441230D01*
X50000Y441591D01*
D02*
G37*
G36*
X202400Y416191D02*
X199659Y415830D01*
X197105Y414772D01*
X194911Y413089D01*
X193228Y410895D01*
X192170Y408341D01*
X191809Y405600D01*
X192170Y402859D01*
X193228Y400305D01*
X194911Y398111D01*
X197105Y396428D01*
X199659Y395370D01*
X202400Y395009D01*
X205141Y395370D01*
X207695Y396428D01*
X209889Y398111D01*
X211572Y400305D01*
X212630Y402859D01*
X212991Y405600D01*
X212630Y408341D01*
X211572Y410895D01*
X209889Y413089D01*
X207695Y414772D01*
X205141Y415830D01*
X202400Y416191D01*
D02*
G37*
G36*
X50000D02*
X47259Y415830D01*
X44705Y414772D01*
X42511Y413089D01*
X40828Y410895D01*
X39770Y408341D01*
X39409Y405600D01*
X39770Y402859D01*
X40828Y400305D01*
X42511Y398111D01*
X44705Y396428D01*
X47259Y395370D01*
X50000Y395009D01*
X52741Y395370D01*
X55295Y396428D01*
X57489Y398111D01*
X59172Y400305D01*
X60230Y402859D01*
X60591Y405600D01*
X60230Y408341D01*
X59172Y410895D01*
X57489Y413089D01*
X55295Y414772D01*
X52741Y415830D01*
X50000Y416191D01*
D02*
G37*
G36*
X202400Y390791D02*
X199659Y390430D01*
X197105Y389372D01*
X194911Y387689D01*
X193228Y385495D01*
X192170Y382941D01*
X191809Y380200D01*
X192170Y377459D01*
X193228Y374905D01*
X194911Y372711D01*
X197105Y371028D01*
X199659Y369970D01*
X202400Y369609D01*
X205141Y369970D01*
X207695Y371028D01*
X209889Y372711D01*
X211572Y374905D01*
X212630Y377459D01*
X212991Y380200D01*
X212630Y382941D01*
X211572Y385495D01*
X209889Y387689D01*
X207695Y389372D01*
X205141Y390430D01*
X202400Y390791D01*
D02*
G37*
G36*
X50000D02*
X47259Y390430D01*
X44705Y389372D01*
X42511Y387689D01*
X40828Y385495D01*
X39770Y382941D01*
X39409Y380200D01*
X39770Y377459D01*
X40828Y374905D01*
X42511Y372711D01*
X44705Y371028D01*
X47259Y369970D01*
X50000Y369609D01*
X52741Y369970D01*
X55295Y371028D01*
X57489Y372711D01*
X59172Y374905D01*
X60230Y377459D01*
X60591Y380200D01*
X60230Y382941D01*
X59172Y385495D01*
X57489Y387689D01*
X55295Y389372D01*
X52741Y390430D01*
X50000Y390791D01*
D02*
G37*
G36*
X458730Y372359D02*
X457379Y372182D01*
X454937Y371170D01*
X452839Y369561D01*
X451230Y367463D01*
X450218Y365021D01*
X450041Y363670D01*
X458730D01*
Y372359D01*
D02*
G37*
G36*
Y361130D02*
X450041D01*
X450218Y359779D01*
X451230Y357337D01*
X452839Y355239D01*
X454937Y353630D01*
X457379Y352618D01*
X458730Y352441D01*
Y361130D01*
D02*
G37*
G36*
X202400Y365391D02*
X199659Y365030D01*
X197105Y363972D01*
X194911Y362289D01*
X193228Y360095D01*
X192170Y357541D01*
X191809Y354800D01*
X192170Y352059D01*
X193228Y349505D01*
X194911Y347311D01*
X197105Y345628D01*
X199659Y344570D01*
X202400Y344209D01*
X205141Y344570D01*
X207695Y345628D01*
X209889Y347311D01*
X211572Y349505D01*
X212630Y352059D01*
X212991Y354800D01*
X212630Y357541D01*
X211572Y360095D01*
X209889Y362289D01*
X207695Y363972D01*
X205141Y365030D01*
X202400Y365391D01*
D02*
G37*
G36*
X50000D02*
X47259Y365030D01*
X44705Y363972D01*
X42511Y362289D01*
X40828Y360095D01*
X39770Y357541D01*
X39409Y354800D01*
X39770Y352059D01*
X40828Y349505D01*
X42511Y347311D01*
X44705Y345628D01*
X47259Y344570D01*
X50000Y344209D01*
X52741Y344570D01*
X55295Y345628D01*
X57489Y347311D01*
X59172Y349505D01*
X60230Y352059D01*
X60591Y354800D01*
X60230Y357541D01*
X59172Y360095D01*
X57489Y362289D01*
X55295Y363972D01*
X52741Y365030D01*
X50000Y365391D01*
D02*
G37*
G36*
X369270Y345396D02*
Y341270D01*
X373396D01*
X373219Y342162D01*
X371994Y343994D01*
X370162Y345219D01*
X369270Y345396D01*
D02*
G37*
G36*
X366730D02*
X365838Y345219D01*
X364006Y343994D01*
X362781Y342162D01*
X362604Y341270D01*
X366730D01*
Y345396D01*
D02*
G37*
G36*
X373396Y338730D02*
X369270D01*
Y334604D01*
X370162Y334781D01*
X371994Y336006D01*
X373219Y337838D01*
X373396Y338730D01*
D02*
G37*
G36*
X366730D02*
X362604D01*
X362781Y337838D01*
X364006Y336006D01*
X365838Y334781D01*
X366730Y334604D01*
Y338730D01*
D02*
G37*
G36*
X202400Y339991D02*
X199659Y339630D01*
X197105Y338572D01*
X194911Y336889D01*
X193228Y334695D01*
X192170Y332141D01*
X191809Y329400D01*
X192170Y326659D01*
X193228Y324105D01*
X194911Y321911D01*
X197105Y320228D01*
X199659Y319170D01*
X202400Y318809D01*
X205141Y319170D01*
X207695Y320228D01*
X209889Y321911D01*
X211572Y324105D01*
X212630Y326659D01*
X212991Y329400D01*
X212630Y332141D01*
X211572Y334695D01*
X209889Y336889D01*
X207695Y338572D01*
X205141Y339630D01*
X202400Y339991D01*
D02*
G37*
G36*
X50000D02*
X47259Y339630D01*
X44705Y338572D01*
X42511Y336889D01*
X40828Y334695D01*
X39770Y332141D01*
X39409Y329400D01*
X39770Y326659D01*
X40828Y324105D01*
X42511Y321911D01*
X44705Y320228D01*
X47259Y319170D01*
X50000Y318809D01*
X52741Y319170D01*
X55295Y320228D01*
X57489Y321911D01*
X59172Y324105D01*
X60230Y326659D01*
X60591Y329400D01*
X60230Y332141D01*
X59172Y334695D01*
X57489Y336889D01*
X55295Y338572D01*
X52741Y339630D01*
X50000Y339991D01*
D02*
G37*
G36*
X202400Y314591D02*
X199659Y314230D01*
X197105Y313172D01*
X194911Y311489D01*
X193228Y309295D01*
X192170Y306741D01*
X191809Y304000D01*
X192170Y301259D01*
X193228Y298705D01*
X194911Y296511D01*
X197105Y294828D01*
X199659Y293770D01*
X202400Y293409D01*
X205141Y293770D01*
X207695Y294828D01*
X209889Y296511D01*
X211572Y298705D01*
X212630Y301259D01*
X212991Y304000D01*
X212630Y306741D01*
X211572Y309295D01*
X209889Y311489D01*
X207695Y313172D01*
X205141Y314230D01*
X202400Y314591D01*
D02*
G37*
G36*
X50000D02*
X47259Y314230D01*
X44705Y313172D01*
X42511Y311489D01*
X40828Y309295D01*
X39770Y306741D01*
X39409Y304000D01*
X39770Y301259D01*
X40828Y298705D01*
X42511Y296511D01*
X44705Y294828D01*
X47259Y293770D01*
X50000Y293409D01*
X52741Y293770D01*
X55295Y294828D01*
X57489Y296511D01*
X59172Y298705D01*
X60230Y301259D01*
X60591Y304000D01*
X60230Y306741D01*
X59172Y309295D01*
X57489Y311489D01*
X55295Y313172D01*
X52741Y314230D01*
X50000Y314591D01*
D02*
G37*
G36*
X446541Y277396D02*
Y273270D01*
X450667D01*
X450489Y274162D01*
X449265Y275994D01*
X447432Y277218D01*
X446541Y277396D01*
D02*
G37*
G36*
X444001D02*
X443109Y277218D01*
X441277Y275994D01*
X440052Y274162D01*
X439875Y273270D01*
X444001D01*
Y277396D01*
D02*
G37*
G36*
X202400Y289191D02*
X199659Y288830D01*
X197105Y287772D01*
X194911Y286089D01*
X193228Y283895D01*
X192170Y281341D01*
X191809Y278600D01*
X192170Y275859D01*
X193228Y273305D01*
X194911Y271111D01*
X197105Y269428D01*
X199659Y268370D01*
X202400Y268009D01*
X205141Y268370D01*
X207695Y269428D01*
X209889Y271111D01*
X211572Y273305D01*
X212630Y275859D01*
X212991Y278600D01*
X212630Y281341D01*
X211572Y283895D01*
X209889Y286089D01*
X207695Y287772D01*
X205141Y288830D01*
X202400Y289191D01*
D02*
G37*
G36*
X50000D02*
X47259Y288830D01*
X44705Y287772D01*
X42511Y286089D01*
X40828Y283895D01*
X39770Y281341D01*
X39409Y278600D01*
X39770Y275859D01*
X40828Y273305D01*
X42511Y271111D01*
X44705Y269428D01*
X47259Y268370D01*
X50000Y268009D01*
X52741Y268370D01*
X55295Y269428D01*
X57489Y271111D01*
X59172Y273305D01*
X60230Y275859D01*
X60591Y278600D01*
X60230Y281341D01*
X59172Y283895D01*
X57489Y286089D01*
X55295Y287772D01*
X52741Y288830D01*
X50000Y289191D01*
D02*
G37*
G36*
X450667Y270730D02*
X446541D01*
Y266604D01*
X447432Y266781D01*
X449265Y268006D01*
X450489Y269838D01*
X450667Y270730D01*
D02*
G37*
G36*
X444001D02*
X439875D01*
X440052Y269838D01*
X441277Y268006D01*
X443109Y266781D01*
X444001Y266604D01*
Y270730D01*
D02*
G37*
G36*
X202400Y263791D02*
X199659Y263430D01*
X197105Y262372D01*
X194911Y260689D01*
X193228Y258495D01*
X192170Y255941D01*
X191809Y253200D01*
X192170Y250459D01*
X193228Y247905D01*
X194911Y245711D01*
X197105Y244028D01*
X199659Y242970D01*
X202400Y242609D01*
X205141Y242970D01*
X207695Y244028D01*
X209889Y245711D01*
X211572Y247905D01*
X212630Y250459D01*
X212991Y253200D01*
X212630Y255941D01*
X211572Y258495D01*
X209889Y260689D01*
X207695Y262372D01*
X205141Y263430D01*
X202400Y263791D01*
D02*
G37*
G36*
X50000D02*
X47259Y263430D01*
X44705Y262372D01*
X42511Y260689D01*
X40828Y258495D01*
X39770Y255941D01*
X39409Y253200D01*
X39770Y250459D01*
X40828Y247905D01*
X42511Y245711D01*
X44705Y244028D01*
X47259Y242970D01*
X50000Y242609D01*
X52741Y242970D01*
X55295Y244028D01*
X57489Y245711D01*
X59172Y247905D01*
X60230Y250459D01*
X60591Y253200D01*
X60230Y255941D01*
X59172Y258495D01*
X57489Y260689D01*
X55295Y262372D01*
X52741Y263430D01*
X50000Y263791D01*
D02*
G37*
G36*
X346000Y239118D02*
X343659Y238652D01*
X343593Y238608D01*
X312000D01*
X309854Y238181D01*
X308035Y236965D01*
X289535Y218465D01*
X288319Y216646D01*
X287892Y214500D01*
Y185823D01*
X233877Y131808D01*
X211332D01*
X209889Y133689D01*
X207695Y135372D01*
X205141Y136430D01*
X202400Y136791D01*
X199659Y136430D01*
X197105Y135372D01*
X194911Y133689D01*
X193228Y131495D01*
X192170Y128941D01*
X191809Y126200D01*
X192170Y123459D01*
X193228Y120905D01*
X194911Y118711D01*
X197105Y117028D01*
X199659Y115970D01*
X202400Y115609D01*
X205141Y115970D01*
X207695Y117028D01*
X209889Y118711D01*
X211332Y120592D01*
X236200D01*
X238346Y121019D01*
X240165Y122235D01*
X297465Y179535D01*
X298681Y181354D01*
X299108Y183500D01*
Y212177D01*
X314323Y227392D01*
X343593D01*
X343659Y227348D01*
X346000Y226882D01*
X348341Y227348D01*
X350326Y228674D01*
X351652Y230659D01*
X352118Y233000D01*
X351652Y235341D01*
X350326Y237326D01*
X348341Y238652D01*
X346000Y239118D01*
D02*
G37*
G36*
X202400Y238391D02*
X199659Y238030D01*
X197105Y236972D01*
X194911Y235289D01*
X193228Y233095D01*
X192170Y230541D01*
X191809Y227800D01*
X192170Y225059D01*
X193228Y222505D01*
X194911Y220311D01*
X197105Y218628D01*
X199659Y217570D01*
X202400Y217209D01*
X205141Y217570D01*
X207695Y218628D01*
X209889Y220311D01*
X211572Y222505D01*
X212630Y225059D01*
X212991Y227800D01*
X212630Y230541D01*
X211572Y233095D01*
X209889Y235289D01*
X207695Y236972D01*
X205141Y238030D01*
X202400Y238391D01*
D02*
G37*
G36*
X50000D02*
X47259Y238030D01*
X44705Y236972D01*
X42511Y235289D01*
X40828Y233095D01*
X39770Y230541D01*
X39409Y227800D01*
X39770Y225059D01*
X40828Y222505D01*
X42511Y220311D01*
X44705Y218628D01*
X47259Y217570D01*
X50000Y217209D01*
X52741Y217570D01*
X55295Y218628D01*
X57489Y220311D01*
X59172Y222505D01*
X60230Y225059D01*
X60591Y227800D01*
X60230Y230541D01*
X59172Y233095D01*
X57489Y235289D01*
X55295Y236972D01*
X52741Y238030D01*
X50000Y238391D01*
D02*
G37*
G36*
X202400Y212991D02*
X199659Y212630D01*
X197105Y211572D01*
X194911Y209889D01*
X193228Y207695D01*
X192170Y205141D01*
X191809Y202400D01*
X192170Y199659D01*
X193228Y197105D01*
X194911Y194911D01*
X197105Y193228D01*
X199659Y192170D01*
X202400Y191809D01*
X205141Y192170D01*
X207695Y193228D01*
X209889Y194911D01*
X211572Y197105D01*
X212630Y199659D01*
X212991Y202400D01*
X212630Y205141D01*
X211572Y207695D01*
X209889Y209889D01*
X207695Y211572D01*
X205141Y212630D01*
X202400Y212991D01*
D02*
G37*
G36*
X50000D02*
X47259Y212630D01*
X44705Y211572D01*
X42511Y209889D01*
X40828Y207695D01*
X39770Y205141D01*
X39409Y202400D01*
X39770Y199659D01*
X40828Y197105D01*
X42511Y194911D01*
X44705Y193228D01*
X47259Y192170D01*
X50000Y191809D01*
X52741Y192170D01*
X55295Y193228D01*
X57489Y194911D01*
X59172Y197105D01*
X60230Y199659D01*
X60591Y202400D01*
X60230Y205141D01*
X59172Y207695D01*
X57489Y209889D01*
X55295Y211572D01*
X52741Y212630D01*
X50000Y212991D01*
D02*
G37*
G36*
X244000Y352118D02*
X241659Y351652D01*
X239674Y350326D01*
X238348Y348341D01*
X237882Y346000D01*
X238348Y343659D01*
X238392Y343593D01*
Y199323D01*
X221677Y182608D01*
X211332D01*
X209889Y184489D01*
X207695Y186172D01*
X205141Y187230D01*
X202400Y187591D01*
X199659Y187230D01*
X197105Y186172D01*
X194911Y184489D01*
X193228Y182295D01*
X192170Y179741D01*
X191809Y177000D01*
X192170Y174259D01*
X193228Y171705D01*
X194911Y169511D01*
X197105Y167828D01*
X199659Y166770D01*
X202400Y166409D01*
X205141Y166770D01*
X207695Y167828D01*
X209889Y169511D01*
X211332Y171392D01*
X224000D01*
X226146Y171819D01*
X227965Y173035D01*
X247965Y193035D01*
X249181Y194854D01*
X249608Y197000D01*
Y343593D01*
X249652Y343659D01*
X250117Y346000D01*
X249652Y348341D01*
X248326Y350326D01*
X246341Y351652D01*
X244000Y352118D01*
D02*
G37*
G36*
X388000Y260117D02*
X385659Y259652D01*
X383674Y258326D01*
X382348Y256341D01*
X381883Y254000D01*
X382348Y251659D01*
X383674Y249674D01*
X385659Y248348D01*
X388000Y247882D01*
X390341Y248348D01*
X390407Y248392D01*
X420677D01*
X430444Y238626D01*
Y177709D01*
X429324Y177110D01*
X429162Y177218D01*
X428270Y177396D01*
Y172000D01*
Y166604D01*
X429162Y166781D01*
X429324Y166890D01*
X430444Y166291D01*
Y124949D01*
X430871Y122802D01*
X432086Y120983D01*
X444333Y108737D01*
X444348Y108659D01*
X445674Y106674D01*
X447659Y105348D01*
X450000Y104882D01*
X452341Y105348D01*
X454326Y106674D01*
X455652Y108659D01*
X456118Y111000D01*
X455652Y113341D01*
X454326Y115326D01*
X452341Y116652D01*
X452263Y116667D01*
X441659Y127271D01*
Y240949D01*
X441232Y243095D01*
X440017Y244914D01*
X426965Y257965D01*
X425146Y259181D01*
X423000Y259608D01*
X390407D01*
X390341Y259652D01*
X388000Y260117D01*
D02*
G37*
G36*
X425730Y177396D02*
X424838Y177218D01*
X423006Y175994D01*
X421782Y174162D01*
X421604Y173270D01*
X425730D01*
Y177396D01*
D02*
G37*
G36*
Y170730D02*
X421604D01*
X421782Y169838D01*
X423006Y168006D01*
X424838Y166781D01*
X425730Y166604D01*
Y170730D01*
D02*
G37*
G36*
X50000Y187591D02*
X47259Y187230D01*
X44705Y186172D01*
X42511Y184489D01*
X40828Y182295D01*
X39770Y179741D01*
X39409Y177000D01*
X39770Y174259D01*
X40828Y171705D01*
X42511Y169511D01*
X44705Y167828D01*
X47259Y166770D01*
X50000Y166409D01*
X52741Y166770D01*
X55295Y167828D01*
X57489Y169511D01*
X59172Y171705D01*
X60230Y174259D01*
X60591Y177000D01*
X60230Y179741D01*
X59172Y182295D01*
X57489Y184489D01*
X55295Y186172D01*
X52741Y187230D01*
X50000Y187591D01*
D02*
G37*
G36*
X103000Y551118D02*
X100659Y550652D01*
X98674Y549326D01*
X97348Y547341D01*
X96882Y545000D01*
X97348Y542659D01*
X97392Y542593D01*
Y206923D01*
X52351Y161881D01*
X50000Y162191D01*
X47259Y161830D01*
X44705Y160772D01*
X42511Y159089D01*
X40828Y156895D01*
X39770Y154341D01*
X39409Y151600D01*
X39770Y148859D01*
X40828Y146305D01*
X42511Y144111D01*
X44705Y142428D01*
X47259Y141370D01*
X50000Y141009D01*
X52741Y141370D01*
X55295Y142428D01*
X57489Y144111D01*
X59172Y146305D01*
X60230Y148859D01*
X60591Y151600D01*
X60281Y153951D01*
X106965Y200635D01*
X108181Y202454D01*
X108608Y204600D01*
Y542593D01*
X108652Y542659D01*
X109117Y545000D01*
X108652Y547341D01*
X107326Y549326D01*
X105341Y550652D01*
X103000Y551118D01*
D02*
G37*
G36*
X450000Y220117D02*
X447659Y219652D01*
X445674Y218326D01*
X444348Y216341D01*
X443882Y214000D01*
X444348Y211659D01*
X444392Y211593D01*
Y166407D01*
X444348Y166341D01*
X443882Y164000D01*
X444348Y161659D01*
X445674Y159674D01*
X447659Y158348D01*
X450000Y157882D01*
X452341Y158348D01*
X454326Y159674D01*
X455652Y161659D01*
X456118Y164000D01*
X455652Y166341D01*
X455608Y166407D01*
Y211593D01*
X455652Y211659D01*
X456118Y214000D01*
X455652Y216341D01*
X454326Y218326D01*
X452341Y219652D01*
X450000Y220117D01*
D02*
G37*
G36*
X257000Y289118D02*
X254659Y288652D01*
X252674Y287326D01*
X251348Y285341D01*
X250882Y283000D01*
X251348Y280659D01*
X251392Y280593D01*
Y181323D01*
X227277Y157208D01*
X211332D01*
X209889Y159089D01*
X207695Y160772D01*
X205141Y161830D01*
X202400Y162191D01*
X199659Y161830D01*
X197105Y160772D01*
X194911Y159089D01*
X193228Y156895D01*
X192170Y154341D01*
X191809Y151600D01*
X192170Y148859D01*
X193228Y146305D01*
X194911Y144111D01*
X197105Y142428D01*
X199659Y141370D01*
X202400Y141009D01*
X205141Y141370D01*
X207695Y142428D01*
X209889Y144111D01*
X211332Y145992D01*
X229600D01*
X231746Y146419D01*
X233565Y147635D01*
X260965Y175035D01*
X262181Y176854D01*
X262608Y179000D01*
Y280593D01*
X262652Y280659D01*
X263118Y283000D01*
X262652Y285341D01*
X261326Y287326D01*
X259341Y288652D01*
X257000Y289118D01*
D02*
G37*
G36*
X317291Y144396D02*
Y140270D01*
X321417D01*
X321239Y141162D01*
X320015Y142994D01*
X318182Y144219D01*
X317291Y144396D01*
D02*
G37*
G36*
X314751D02*
X313859Y144219D01*
X312027Y142994D01*
X310802Y141162D01*
X310625Y140270D01*
X314751D01*
Y144396D01*
D02*
G37*
G36*
X321417Y137730D02*
X317291D01*
Y133604D01*
X318182Y133781D01*
X320015Y135006D01*
X321239Y136838D01*
X321417Y137730D01*
D02*
G37*
G36*
X314751D02*
X310625D01*
X310802Y136838D01*
X312027Y135006D01*
X313859Y133781D01*
X314751Y133604D01*
Y137730D01*
D02*
G37*
G36*
X50000Y136791D02*
X47259Y136430D01*
X44705Y135372D01*
X42511Y133689D01*
X40828Y131495D01*
X39770Y128941D01*
X39409Y126200D01*
X39770Y123459D01*
X40828Y120905D01*
X42511Y118711D01*
X44705Y117028D01*
X47259Y115970D01*
X50000Y115609D01*
X52741Y115970D01*
X55295Y117028D01*
X57489Y118711D01*
X59172Y120905D01*
X60230Y123459D01*
X60591Y126200D01*
X60230Y128941D01*
X59172Y131495D01*
X57489Y133689D01*
X55295Y135372D01*
X52741Y136430D01*
X50000Y136791D01*
D02*
G37*
G36*
X267250Y120368D02*
X264909Y119902D01*
X262924Y118576D01*
X261598Y116591D01*
X261583Y116513D01*
X251477Y106408D01*
X211332D01*
X209889Y108289D01*
X207695Y109972D01*
X205141Y111030D01*
X202400Y111391D01*
X199659Y111030D01*
X197105Y109972D01*
X194911Y108289D01*
X193228Y106095D01*
X192170Y103541D01*
X191809Y100800D01*
X192170Y98059D01*
X193228Y95505D01*
X194911Y93311D01*
X197105Y91628D01*
X199659Y90570D01*
X202400Y90209D01*
X205141Y90570D01*
X207695Y91628D01*
X209889Y93311D01*
X211332Y95192D01*
X253800D01*
X255946Y95619D01*
X257765Y96835D01*
X269513Y108583D01*
X269591Y108598D01*
X271576Y109924D01*
X272902Y111909D01*
X273368Y114250D01*
X272902Y116591D01*
X271576Y118576D01*
X269591Y119902D01*
X267250Y120368D01*
D02*
G37*
G36*
X380270Y95396D02*
Y91270D01*
X384396D01*
X384218Y92162D01*
X382994Y93994D01*
X381162Y95219D01*
X380270Y95396D01*
D02*
G37*
G36*
X377730D02*
X376838Y95219D01*
X375006Y93994D01*
X373781Y92162D01*
X373604Y91270D01*
X377730D01*
Y95396D01*
D02*
G37*
G36*
X50000Y111391D02*
X47259Y111030D01*
X44705Y109972D01*
X42511Y108289D01*
X40828Y106095D01*
X39770Y103541D01*
X39409Y100800D01*
X39770Y98059D01*
X40828Y95505D01*
X42511Y93311D01*
X44705Y91628D01*
X47259Y90570D01*
X50000Y90209D01*
X52741Y90570D01*
X55295Y91628D01*
X57489Y93311D01*
X59172Y95505D01*
X60230Y98059D01*
X60591Y100800D01*
X60230Y103541D01*
X59172Y106095D01*
X57489Y108289D01*
X55295Y109972D01*
X52741Y111030D01*
X50000Y111391D01*
D02*
G37*
G36*
X384396Y88730D02*
X380270D01*
Y84604D01*
X381162Y84781D01*
X382994Y86006D01*
X384218Y87838D01*
X384396Y88730D01*
D02*
G37*
G36*
X377730D02*
X373604D01*
X373781Y87838D01*
X375006Y86006D01*
X376838Y84781D01*
X377730Y84604D01*
Y88730D01*
D02*
G37*
G36*
X284000Y110118D02*
X281659Y109652D01*
X279674Y108326D01*
X278348Y106341D01*
X278333Y106263D01*
X251677Y79608D01*
X212022D01*
X211572Y80695D01*
X209889Y82889D01*
X207695Y84572D01*
X205141Y85630D01*
X202400Y85991D01*
X199659Y85630D01*
X197105Y84572D01*
X194911Y82889D01*
X193228Y80695D01*
X192170Y78141D01*
X191809Y75400D01*
X192170Y72659D01*
X193228Y70105D01*
X194911Y67911D01*
X197105Y66228D01*
X199659Y65170D01*
X202400Y64809D01*
X205141Y65170D01*
X207695Y66228D01*
X209889Y67911D01*
X210258Y68392D01*
X254000D01*
X256146Y68819D01*
X257965Y70035D01*
X286263Y98333D01*
X286341Y98348D01*
X288326Y99674D01*
X289652Y101659D01*
X290117Y104000D01*
X289652Y106341D01*
X288326Y108326D01*
X286341Y109652D01*
X284000Y110118D01*
D02*
G37*
G36*
X50000Y85991D02*
X47259Y85630D01*
X44705Y84572D01*
X42511Y82889D01*
X40828Y80695D01*
X39770Y78141D01*
X39409Y75400D01*
X39770Y72659D01*
X40828Y70105D01*
X42511Y67911D01*
X44705Y66228D01*
X47259Y65170D01*
X50000Y64809D01*
X52741Y65170D01*
X55295Y66228D01*
X57489Y67911D01*
X59172Y70105D01*
X60230Y72659D01*
X60591Y75400D01*
X60230Y78141D01*
X59172Y80695D01*
X57489Y82889D01*
X55295Y84572D01*
X52741Y85630D01*
X50000Y85991D01*
D02*
G37*
G36*
X375270Y66396D02*
Y62270D01*
X379396D01*
X379218Y63162D01*
X377994Y64994D01*
X376162Y66219D01*
X375270Y66396D01*
D02*
G37*
G36*
X372730D02*
X371838Y66219D01*
X370006Y64994D01*
X368781Y63162D01*
X368604Y62270D01*
X372730D01*
Y66396D01*
D02*
G37*
G36*
X379396Y59730D02*
X375270D01*
Y55604D01*
X376162Y55781D01*
X377994Y57006D01*
X379218Y58838D01*
X379396Y59730D01*
D02*
G37*
G36*
X372730D02*
X368604D01*
X368781Y58838D01*
X370006Y57006D01*
X371838Y55781D01*
X372730Y55604D01*
Y59730D01*
D02*
G37*
G36*
X212440Y60040D02*
X203670D01*
Y51270D01*
X212440D01*
Y60040D01*
D02*
G37*
G36*
X201130D02*
X192360D01*
Y51270D01*
X201130D01*
Y60040D01*
D02*
G37*
G36*
X212440Y48730D02*
X203670D01*
Y39960D01*
X212440D01*
Y48730D01*
D02*
G37*
G36*
X201130D02*
X192360D01*
Y39960D01*
X201130D01*
Y48730D01*
D02*
G37*
G36*
X60500Y60500D02*
X39500D01*
Y39500D01*
X60500D01*
Y60500D01*
D02*
G37*
%LPD*%
D37*
X250000Y609000D02*
Y623000D01*
Y609000D02*
X263000Y596000D01*
X349000D01*
X360000Y585000D01*
X103000Y204600D02*
Y545000D01*
X50000Y151600D02*
X103000Y204600D01*
X327000Y324000D02*
X396000D01*
X409000Y337000D01*
X460000D01*
X275000Y269000D02*
Y414000D01*
Y269000D02*
X417400D01*
X257000Y179000D02*
Y283000D01*
X275000Y414000D02*
X306000Y445000D01*
X229600Y151600D02*
X257000Y179000D01*
X417400Y269000D02*
X460000Y311600D01*
X254000Y74000D02*
X284000Y104000D01*
X203800Y74000D02*
X254000D01*
X202400Y75400D02*
X203800Y74000D01*
X306000Y445000D02*
X360000D01*
X202400Y100800D02*
X253800D01*
X267250Y114250D01*
X48800Y102000D02*
X50000Y100800D01*
X436051Y124949D02*
X450000Y111000D01*
X436051Y124949D02*
Y240949D01*
X423000Y254000D02*
X436051Y240949D01*
X388000Y254000D02*
X423000D01*
X312000Y233000D02*
X346000D01*
X293500Y214500D02*
X312000Y233000D01*
X450000Y164000D02*
Y214000D01*
X412000Y473000D02*
X462000D01*
X202400Y177000D02*
X224000D01*
X244000Y197000D01*
Y346000D01*
X202400Y126200D02*
X236200D01*
X293500Y183500D01*
Y214500D01*
X202400Y151600D02*
X229600D01*
X411000Y535000D02*
X447000D01*
D38*
X460000Y362400D02*
D03*
Y337000D02*
D03*
Y655400D02*
D03*
X50000Y634200D02*
D03*
Y608800D02*
D03*
Y583400D02*
D03*
Y558000D02*
D03*
Y532600D02*
D03*
Y507200D02*
D03*
Y481800D02*
D03*
Y456400D02*
D03*
Y431000D02*
D03*
Y405600D02*
D03*
Y380200D02*
D03*
Y354800D02*
D03*
Y329400D02*
D03*
Y304000D02*
D03*
Y278600D02*
D03*
Y253200D02*
D03*
Y227800D02*
D03*
Y202400D02*
D03*
Y177000D02*
D03*
Y151600D02*
D03*
Y126200D02*
D03*
Y100800D02*
D03*
Y75400D02*
D03*
X202400Y634200D02*
D03*
Y608800D02*
D03*
Y583400D02*
D03*
Y558000D02*
D03*
Y532600D02*
D03*
Y507200D02*
D03*
Y481800D02*
D03*
Y456400D02*
D03*
Y431000D02*
D03*
Y405600D02*
D03*
Y380200D02*
D03*
Y354800D02*
D03*
Y329400D02*
D03*
Y304000D02*
D03*
Y278600D02*
D03*
Y253200D02*
D03*
Y227800D02*
D03*
Y202400D02*
D03*
Y177000D02*
D03*
Y151600D02*
D03*
Y126200D02*
D03*
Y100800D02*
D03*
Y75400D02*
D03*
D39*
X460000Y311600D02*
D03*
Y630000D02*
D03*
X50000Y50000D02*
D03*
X202400D02*
D03*
D40*
X445271Y272000D02*
D03*
X360000Y585000D02*
D03*
X250000Y623000D02*
D03*
X392000Y531000D02*
D03*
X103000Y545000D02*
D03*
X327000Y324000D02*
D03*
X257000Y283000D02*
D03*
X275000Y269000D02*
D03*
X284000Y104000D02*
D03*
X379000Y90000D02*
D03*
X267250Y114250D02*
D03*
X388000Y254000D02*
D03*
X346000Y233000D02*
D03*
X374000Y61000D02*
D03*
X450000Y214000D02*
D03*
X427000Y172000D02*
D03*
X450000Y111000D02*
D03*
Y164000D02*
D03*
X462000Y473000D02*
D03*
X412000D02*
D03*
X360000Y445000D02*
D03*
X316021Y139000D02*
D03*
X244000Y346000D02*
D03*
X447000Y535000D02*
D03*
X411000D02*
D03*
X368000Y340000D02*
D03*
X335000Y650000D02*
D03*
X440000Y597000D02*
D03*
M02*
