G04*
G04 #@! TF.GenerationSoftware,Altium Limited,Altium Designer,20.0.14 (345)*
G04*
G04 Layer_Color=8388736*
%FSLAX44Y44*%
%MOMM*%
G71*
G01*
G75*
%ADD23R,1.1032X0.9032*%
%ADD24R,0.9032X1.1032*%
%ADD25C,1.4032*%
%ADD26R,0.8032X0.6732*%
%ADD27R,1.1532X0.8532*%
%ADD28R,0.8032X1.7532*%
%ADD29R,1.4032X2.0032*%
%ADD30R,1.0032X1.1532*%
%ADD31R,1.3032X0.8032*%
%ADD32R,1.7032X1.7032*%
%ADD33C,1.7032*%
%ADD34R,1.7032X1.7032*%
%ADD35C,0.8032*%
D23*
X360000Y531000D02*
D03*
Y546000D02*
D03*
X378000Y531000D02*
D03*
Y546000D02*
D03*
X460000Y287000D02*
D03*
Y272000D02*
D03*
X248000Y248000D02*
D03*
Y233000D02*
D03*
X388000Y444000D02*
D03*
Y429000D02*
D03*
X311000Y226000D02*
D03*
Y241000D02*
D03*
X378000Y514000D02*
D03*
Y499000D02*
D03*
X450000Y147000D02*
D03*
Y132000D02*
D03*
X340000Y105000D02*
D03*
Y90000D02*
D03*
X361000Y105000D02*
D03*
Y90000D02*
D03*
D24*
X316000Y156000D02*
D03*
X301000D02*
D03*
Y120000D02*
D03*
X316000D02*
D03*
X462000Y437000D02*
D03*
X447000D02*
D03*
X396000Y172000D02*
D03*
X411000D02*
D03*
X368000Y373000D02*
D03*
X353000D02*
D03*
X368000Y307000D02*
D03*
X353000D02*
D03*
D25*
X355000Y40000D02*
D03*
X398000Y61000D02*
D03*
X355000D02*
D03*
D26*
X409500Y443500D02*
D03*
Y430500D02*
D03*
X428500Y437000D02*
D03*
X269500Y247500D02*
D03*
Y234500D02*
D03*
X288500Y241000D02*
D03*
D27*
X423750Y129500D02*
D03*
Y150500D02*
D03*
X400250Y140000D02*
D03*
X429750Y504000D02*
D03*
X406250Y493500D02*
D03*
Y514500D02*
D03*
D28*
X280000Y650000D02*
D03*
X290000D02*
D03*
D29*
X306000Y675250D02*
D03*
X264000D02*
D03*
D30*
X414500Y597000D02*
D03*
X395500D02*
D03*
X405000Y577000D02*
D03*
D31*
X336000Y149500D02*
D03*
Y140000D02*
D03*
Y130500D02*
D03*
X364000D02*
D03*
Y149500D02*
D03*
D32*
X257500Y373000D02*
D03*
X292500D02*
D03*
X257500Y307000D02*
D03*
X292500D02*
D03*
D33*
X460000Y362400D02*
D03*
Y337000D02*
D03*
Y655400D02*
D03*
X50000Y634200D02*
D03*
Y608800D02*
D03*
Y583400D02*
D03*
Y558000D02*
D03*
Y532600D02*
D03*
Y507200D02*
D03*
Y481800D02*
D03*
Y456400D02*
D03*
Y431000D02*
D03*
Y405600D02*
D03*
Y380200D02*
D03*
Y354800D02*
D03*
Y329400D02*
D03*
Y304000D02*
D03*
Y278600D02*
D03*
Y253200D02*
D03*
Y227800D02*
D03*
Y202400D02*
D03*
Y177000D02*
D03*
Y151600D02*
D03*
Y126200D02*
D03*
Y100800D02*
D03*
Y75400D02*
D03*
X202400Y634200D02*
D03*
Y608800D02*
D03*
Y583400D02*
D03*
Y558000D02*
D03*
Y532600D02*
D03*
Y507200D02*
D03*
Y481800D02*
D03*
Y456400D02*
D03*
Y431000D02*
D03*
Y405600D02*
D03*
Y380200D02*
D03*
Y354800D02*
D03*
Y329400D02*
D03*
Y304000D02*
D03*
Y278600D02*
D03*
Y253200D02*
D03*
Y227800D02*
D03*
Y202400D02*
D03*
Y177000D02*
D03*
Y151600D02*
D03*
Y126200D02*
D03*
Y100800D02*
D03*
Y75400D02*
D03*
D34*
X460000Y311600D02*
D03*
Y630000D02*
D03*
X50000Y50000D02*
D03*
X202400D02*
D03*
D35*
X445271Y272000D02*
D03*
X360000Y585000D02*
D03*
X250000Y623000D02*
D03*
X392000Y531000D02*
D03*
X103000Y545000D02*
D03*
X327000Y324000D02*
D03*
X257000Y283000D02*
D03*
X275000Y269000D02*
D03*
X284000Y104000D02*
D03*
X379000Y90000D02*
D03*
X267250Y114250D02*
D03*
X388000Y254000D02*
D03*
X346000Y233000D02*
D03*
X374000Y61000D02*
D03*
X450000Y214000D02*
D03*
X427000Y172000D02*
D03*
X450000Y111000D02*
D03*
Y164000D02*
D03*
X462000Y473000D02*
D03*
X412000D02*
D03*
X360000Y445000D02*
D03*
X316021Y139000D02*
D03*
X244000Y346000D02*
D03*
X447000Y535000D02*
D03*
X411000D02*
D03*
X368000Y340000D02*
D03*
X335000Y650000D02*
D03*
X440000Y597000D02*
D03*
M02*
